<?xml version="1.0" encoding="UTF-8" standalone="no"?>
<!-- Created with Inkscape (http://www.inkscape.org/) -->

<svg
   xmlns:dc="http://purl.org/dc/elements/1.1/"
   xmlns:cc="http://creativecommons.org/ns#"
   xmlns:rdf="http://www.w3.org/1999/02/22-rdf-syntax-ns#"
   xmlns:svg="http://www.w3.org/2000/svg"
   xmlns="http://www.w3.org/2000/svg"
   xmlns:sodipodi="http://sodipodi.sourceforge.net/DTD/sodipodi-0.dtd"
   xmlns:inkscape="http://www.inkscape.org/namespaces/inkscape"
   width="90"
   height="90"
   id="svg4874"
   version="1.1"
   inkscape:version="0.48.5 r10040"
   viewBox="0 0 90 90.000001"
   sodipodi:docname="account-tester.svg">
  <defs
     id="defs4876" />
  <sodipodi:namedview
     id="base"
     pagecolor="#ffffff"
     bordercolor="#666666"
     borderopacity="1.0"
     inkscape:pageopacity="0.0"
     inkscape:pageshadow="2"
     inkscape:zoom="3.517007"
     inkscape:cx="11.084728"
     inkscape:cy="8.1168115"
     inkscape:document-units="px"
     inkscape:current-layer="g4780"
     showgrid="true"
     showborder="true"
     fit-margin-top="0"
     fit-margin-left="0"
     fit-margin-right="0"
     fit-margin-bottom="0"
     inkscape:snap-bbox="true"
     inkscape:bbox-paths="true"
     inkscape:bbox-nodes="true"
     inkscape:snap-bbox-edge-midpoints="true"
     inkscape:snap-bbox-midpoints="true"
     inkscape:object-paths="true"
     inkscape:snap-intersection-paths="true"
     inkscape:object-nodes="true"
     inkscape:snap-smooth-nodes="true"
     inkscape:snap-midpoints="true"
     inkscape:snap-object-midpoints="true"
     inkscape:snap-center="true"
     showguides="false"
     inkscape:guide-bbox="true"
     inkscape:snap-global="true"
     inkscape:window-width="1215"
     inkscape:window-height="936"
     inkscape:window-x="65"
     inkscape:window-y="24"
     inkscape:window-maximized="1">
    <inkscape:grid
       type="xygrid"
       id="grid5451"
       empspacing="6" />
    <sodipodi:guide
       orientation="1,0"
       position="6,77"
       id="guide4063" />
    <sodipodi:guide
       orientation="1,0"
       position="3,78"
       id="guide4065" />
    <sodipodi:guide
       orientation="0,1"
       position="55,84"
       id="guide4067" />
    <sodipodi:guide
       orientation="0,1"
       position="53,87"
       id="guide4069" />
    <sodipodi:guide
       orientation="0,1"
       position="20,3"
       id="guide4071" />
    <sodipodi:guide
       orientation="0,1"
       position="20,6"
       id="guide4073" />
    <sodipodi:guide
       orientation="1,0"
       position="87,7"
       id="guide4075" />
    <sodipodi:guide
       orientation="1,0"
       position="84,7"
       id="guide4077" />
    <sodipodi:guide
       orientation="0,1"
       position="58,81"
       id="guide4074" />
    <sodipodi:guide
       orientation="1,0"
       position="9,74"
       id="guide4076" />
    <sodipodi:guide
       orientation="0,1"
       position="21,9"
       id="guide4078" />
    <sodipodi:guide
       orientation="1,0"
       position="81,4"
       id="guide4080" />
  </sodipodi:namedview>
  <metadata
     id="metadata4879">
    <rdf:RDF>
      <cc:Work
         rdf:about="">
        <dc:format>image/svg+xml</dc:format>
        <dc:type
           rdf:resource="http://purl.org/dc/dcmitype/StillImage" />
        <dc:title></dc:title>
      </cc:Work>
    </rdf:RDF>
  </metadata>
  <g
     inkscape:label="Layer 1"
     inkscape:groupmode="layer"
     id="layer1"
     transform="translate(67.857146,-84.50504)">
    <g
       transform="matrix(0,-1,-1,0,373.50506,516.50504)"
       id="g4845"
       style="display:inline">
      <g
         inkscape:export-ydpi="90"
         inkscape:export-xdpi="90"
         inkscape:export-filename="next01.png"
         transform="matrix(-0.9996045,0,0,1,575.94296,-611.00001)"
         id="g4778"
         inkscape:label="Layer 1">
        <g
           transform="matrix(-1,0,0,1,575.99999,611)"
           id="g4780"
           style="display:inline">
          <rect
             transform="scale(-1,1)"
             y="351.36221"
             x="-432"
             height="90"
             width="90"
             id="rect4120"
             style="color:#000000;fill:none;stroke:none;stroke-width:4;marker:none;visibility:visible;display:inline;overflow:visible;enable-background:accumulate" />
          <path
             sodipodi:nodetypes="cccccccccccccccccc"
             inkscape:connector-curvature="0"
             id="path4122"
             d="m 382.94991,365.19669 c -3.07887,2.13061 -5.74697,4.44959 -8.0274,6.66029 l 0,-0.008 c -3.99967,4.04832 -8.77508,9.49192 -8.77508,9.49192 0,0 4.69091,5.76968 8.76906,9.5265 l 0,-0.008 c 2.27742,2.20795 4.94139,4.52544 8.01536,6.65427 -0.0363,0.0951 -0.0668,0.19244 -0.10377,0.28723 -1.94472,5.12874 -4.53071,9.65753 -7.75811,13.58679 l -21.13197,0 0,-21.25757 0,-0.0271 0,-17.48606 0,-21.28464 21.13197,0 c 3.2274,3.92924 5.81339,8.43624 7.75811,13.52358 0.0434,0.1122 0.0793,0.22731 0.12186,0.33987 z"
             style="font-size:15.00296783px;font-style:normal;font-variant:normal;font-weight:normal;font-stretch:normal;text-align:center;line-height:125%;letter-spacing:0px;word-spacing:0px;writing-mode:lr-tb;text-anchor:middle;fill:#808080;fill-opacity:1;stroke:none;font-family:Ubuntu;-inkscape-font-specification:Ubuntu" />
          <path
             style="font-size:121.62958527px;font-style:normal;font-variant:normal;font-weight:normal;font-stretch:normal;text-align:center;line-height:125%;letter-spacing:0px;word-spacing:0px;writing-mode:lr-tb;text-anchor:middle;fill:#808080;fill-opacity:1;stroke:none;font-family:Ubuntu;-inkscape-font-specification:Ubuntu"
             d="m 419.99538,381.36243 c -4.2e-4,4.75381 -1.99124,9.35043 -5.50399,12.71154 -3.51328,3.36163 -8.31664,5.26477 -13.28361,5.26477 l -0.0151,0 c -1.91234,-0.008 -4.11305,-0.18068 -6.34532,-1.08874 -5.81958,-2.36734 -10.33868,-5.91672 -13.83146,-9.15808 l 0,0.007 c -1.01511,-0.89511 -2.04594,-1.91539 -3.03721,-2.93238 l 0,-9.48741 c 0.99968,-1.02979 2.03673,-2.08206 3.04323,-3.0572 l 0,0.008 c 3.49197,-3.24035 8.008,-6.78859 13.82544,-9.15507 2.23203,-0.90797 4.43243,-1.08164 6.34532,-1.08875 l 0.0151,0 c 4.96783,0 9.77075,1.90505 13.28361,5.26628 3.51231,3.3607 5.50357,7.95622 5.50399,12.71003 l 0,0.001 z"
             id="path4124"
             inkscape:connector-curvature="0" />
          <path
             style="font-size:15.00296783px;font-style:normal;font-variant:normal;font-weight:normal;font-stretch:normal;text-align:center;line-height:125%;letter-spacing:0px;word-spacing:0px;writing-mode:lr-tb;text-anchor:middle;fill:#808080;fill-opacity:1;stroke:none;font-family:Ubuntu;-inkscape-font-specification:Ubuntu"
             d="m 388.25039,430.34074 c -0.0289,0.0758 -0.0527,0.15303 -0.0821,0.22851 -1.54846,4.08363 -3.60849,7.68784 -6.17823,10.81641 l -15.04696,0 0,-16.92578 0,-0.0215 0,-7.07618 8.03442,0 c -0.003,0.003 -0.0918,0.10156 -0.0918,0.10156 0,0 3.73612,4.59271 6.98323,7.58399 l 0,-0.006 c 1.81334,1.75802 3.93385,3.6038 6.38143,5.29882 z"
             id="path4115"
             inkscape:connector-curvature="0"
             sodipodi:nodetypes="cccccccccccc" />
          <path
             inkscape:connector-curvature="0"
             id="path4117"
             d="m 417.76167,417.481 c -3.3e-4,3.7851 -1.60092,7.44505 -4.4251,10.12125 -2.82464,2.67661 -6.68644,4.19195 -10.6798,4.19195 l -0.012,0 c -1.53749,-0.007 -3.30682,-0.14386 -5.10151,-0.86688 -4.67884,-1.88494 -8.31211,-4.71104 -11.12027,-7.2919 l 0,0.006 c -0.81613,-0.71271 -1.64489,-1.52508 -2.44186,-2.33484 l 0,-7.55411 c 0.80374,-0.81995 1.6375,-1.6578 2.44671,-2.43423 l 0,0.007 c 2.80749,-2.58005 6.43827,-5.40525 11.11542,-7.28949 1.7945,-0.72295 3.56358,-0.86123 5.10151,-0.8669 l 0.012,0 c 3.99405,0 7.85552,1.51685 10.6798,4.19315 2.82382,2.67587 4.42477,6.33494 4.4251,10.12005 l 0,8e-4 z"
             style="font-size:121.62958527px;font-style:normal;font-variant:normal;font-weight:normal;font-stretch:normal;text-align:center;line-height:125%;letter-spacing:0px;word-spacing:0px;writing-mode:lr-tb;text-anchor:middle;fill:#808080;fill-opacity:1;stroke:none;font-family:Ubuntu;-inkscape-font-specification:Ubuntu" />
          <path
             style="fill:#0f0f0f;fill-opacity:1;fill-rule:nonzero;stroke:#e38a14;stroke-width:0.40000001000000002;stroke-linecap:round;stroke-linejoin:round;stroke-miterlimit:4;stroke-opacity:1;stroke-dasharray:none"
             id="path3819"
             d="m 14.643133,13.514511 c 0,1.634913 0,3.269826 0,4.904739 0,0.93889 0,1.87778 0,2.81667 0,0.621237 0,1.242475 0,1.863712 0,0.156975 -0.0237,0.31575 0,0.470926 0.01026,0.06717 0.06609,0.11874 0.09913,0.17811 0.248445,0.503532 0.278945,1.022621 0.209875,1.56932 -0.0105,0.0831 -0.117124,0.241292 -0.03372,0.249024 0.08382,0.0078 0.03348,-0.164996 0.05022,-0.247494 0.152911,0.316588 0.06061,0.192319 0.24811,0.392565 0,0 -1.591501,1.195213 -1.591501,1.195213 l 0,0 c -0.392989,-0.56199 -0.242288,-0.292804 -0.480492,-0.790997 -0.06619,-0.272331 -0.157632,-0.53974 -0.198575,-0.816993 -0.0135,-0.09141 0.02491,-0.183106 0.03737,-0.274659 0.0082,-0.03062 0.0078,-0.06503 0.02467,-0.09185 0.0054,-0.0086 0.03043,0.01516 0.03005,0.005 -0.0059,-0.157333 -0.182338,-0.562283 -0.200263,-0.610181 -0.06173,-0.25236 -0.146458,-0.500183 -0.185201,-0.757078 -0.02341,-0.15522 0,-0.313951 0,-0.470926 0,-0.621237 0,-1.242475 0,-1.863712 0,-0.93889 0,-1.87778 0,-2.81667 0,-1.634913 0,-3.269826 0,-4.904739 0,0 1.990329,0 1.990329,0 z"
             inkscape:connector-curvature="0"
             transform="matrix(0,-1,-1.0003957,0,432.00008,441.36222)" />
          <path
             style="fill:#0f0f0f;fill-opacity:1;fill-rule:nonzero;stroke:#e38a14;stroke-width:0.40000001;stroke-linecap:round;stroke-linejoin:round;stroke-miterlimit:4;stroke-opacity:1;stroke-dasharray:none"
             id="path3821"
             d="m 8.8572827,12.406893 c 0.6645514,-0.398611 1.3652993,-0.689026 2.1252473,-0.791328 0.598313,0.04696 1.193345,0.06764 1.793195,0.05329 0.575527,-0.01102 1.151182,-0.0022 1.726767,-0.0017 0.382174,0.06283 1.070984,-0.0862 1.420242,-9.72e-4 0.249416,0.06086 0.486256,0.164946 0.729384,0.24742 0.09477,0.0474 0.185193,0.104734 0.284315,0.142192 0.0064,0.0024 0.873651,-0.118211 0.914423,-0.120985 0.633016,-0.0035 0.361529,-0.0571 1.21328,0.462242 0.05903,0.03599 0.196287,0.194082 0.142166,0.15105 -0.278355,-0.221318 -0.298936,-0.226662 -0.0239,-0.268488 0.635308,-0.11931 0.791314,-0.02601 1.468041,0.18372 0,0 -0.890104,1.780203 -0.890104,1.780203 l 0,0 c 0.657102,-0.115148 -0.333206,0.02032 -0.344577,0.01268 -0.352167,0.036 -0.699703,0.09991 -1.05312,-0.01247 -0.22788,-0.07246 -1.478196,-0.904005 -0.165374,-0.320545 0.06769,0.03008 -0.148149,-0.0013 -0.222224,-0.0019 -0.760248,0.041 -1.521347,0.2265 -2.213375,-0.227627 0.05353,-0.01237 0.213176,-0.02125 0.16058,-0.03712 -0.09058,-0.02733 -0.189231,-7e-5 -0.283847,-7e-5 -0.379283,0 -0.758566,6.71e-4 -1.137849,0.001 -0.559146,-5.53e-4 -1.118358,-0.009 -1.677451,0.0011 -0.566848,0.01343 -1.135662,0.02232 -1.698766,-0.05778 -0.01642,-0.101173 -0.236212,0.07236 -0.50483,0.168295 -0.02535,0.0091 -0.05575,-0.01452 -0.08064,-0.0043 -0.409501,0.168747 -0.7666488,0.452596 -1.1988527,0.572931 0,0 -0.4827256,-1.930903 -0.4827256,-1.930903 z"
             inkscape:connector-curvature="0"
             transform="matrix(0,-1,-1.0003957,0,432.00008,441.36222)" />
          <path
             style="fill:#0f0f0f;fill-opacity:1;fill-rule:nonzero;stroke:#e38a14;stroke-width:0.40000001;stroke-linecap:round;stroke-linejoin:round;stroke-miterlimit:4;stroke-opacity:1;stroke-dasharray:none"
             id="path3823"
             d="m 25.5764,13.962448 c -0.251761,0.536637 -0.317334,1.13563 -0.526011,1.686184 -0.223539,0.58976 -0.386409,0.638294 -0.238133,1.220892 0.147381,0.517609 0.04879,0.809414 -0.108573,1.374463 -0.07093,0.254699 -0.240711,0.488583 -0.186903,0.76176 0.137391,0.537372 0.09649,1.099891 0.07828,1.648443 -0.211521,-0.3256 0.20468,1.20715 -0.003,0.816315 -0.716724,-1.349114 0.393426,-0.03386 -0.179969,-0.584722 0.71045,0.401687 0.918017,0.915557 1.312774,1.56829 0.01765,0.02918 -0.04239,-0.12487 -0.01837,-0.100659 0.09124,0.09196 0.153066,0.209031 0.229599,0.313546 -0.101818,-0.105595 -0.329613,-0.172099 -0.305455,-0.316783 0.02036,-0.121932 0.235682,0.08921 0.330137,0.168956 0.459299,0.387792 0.55915,0.575988 0.877892,1.028878 0.05249,0.07458 -0.09667,-0.154683 -0.145001,-0.232024 1.04364,1.535094 -0.664817,-1.172243 0.701892,0.72229 0.164132,0.227519 0.144946,0.652076 0.456371,0.689725 0.4588,0.498036 0.189928,0.447891 0.780978,0.353543 1.474202,0.498862 0.383505,0.02564 1.02716,0.454907 0.04988,0.03327 -0.189656,-0.139739 -0.132503,-0.121628 0.156999,0.04975 0.291773,0.153408 0.442468,0.219851 0.167647,0.07392 0.151509,0.06159 0.293308,0.04683 0.04079,-0.0078 0.08137,-0.01673 0.122363,-0.02333 0.03234,-0.0052 0.535693,-0.07894 0.512431,-0.06236 -0.147758,0.105275 -0.36774,0.07367 -0.512651,0.182833 -0.123772,0.09324 -0.126921,0.297914 -0.25019,0.391814 -0.04512,0.03437 -0.03406,-0.10821 -0.05109,-0.162315 0,0 1.949131,-0.402861 1.949131,-0.402861 l 0,0 c 0.09265,0.533751 0.236826,0.937886 -0.148271,1.482051 -0.426703,0.602957 -1.251173,0.546573 -1.877161,0.568044 -0.178378,-0.03133 -0.360436,-0.04622 -0.535134,-0.09398 -0.243953,-0.06669 -1.934714,-0.807278 -0.6602,-0.497647 -0.947563,0.06277 -1.546066,-0.100231 -2.231919,-0.763056 -0.012,-0.0116 0.03338,-7.01e-4 0.05007,-0.0011 -0.395695,-0.346243 -0.476237,-0.355016 -0.731657,-0.820401 -0.04016,-0.07317 0.02957,-0.189386 -0.02915,-0.248712 -0.150451,-0.152006 -0.332223,-0.269617 -0.492692,-0.411006 -0.0466,-0.04106 0.100446,0.0731 0.150669,0.10965 -0.149774,-0.150648 -0.299548,-0.301296 -0.449322,-0.451944 0.03268,0.02216 0.123714,0.09648 0.09804,0.06649 -0.831116,-0.970998 -0.278228,-0.139128 -0.144042,-0.263949 0.227363,-0.211494 -2.6073,-0.05058 -0.766295,-0.529716 0.224395,0.07765 -0.0381,-0.0066 -0.340244,-0.444164 -0.03039,-0.04401 -0.01816,-0.108276 -0.04671,-0.153508 -0.08322,-0.131872 -0.656203,-0.666858 -0.09469,-0.377759 -0.198975,-0.101759 -0.405303,-0.190272 -0.596927,-0.305279 -0.05554,-0.03333 -0.105468,-0.08054 -0.138628,-0.136179 -0.511699,-0.858662 -0.47567,-0.892901 -0.443294,-1.745026 0.01819,-0.547726 0.02597,-1.084986 -0.07888,-1.626936 0.03309,-0.515425 0.0015,-0.489697 0.153376,-0.986938 0.04265,-0.139628 0.06946,-0.29062 0.152859,-0.410454 0.02076,-0.02982 0.06239,0.08815 0.08881,0.0632 0.10576,-0.09989 -0.275534,-0.390665 -0.07299,-0.430277 -0.09187,-0.664429 -0.0752,-1.204004 0.144834,-1.852611 0.03284,-0.09681 0.11469,-0.171529 0.150157,-0.267406 0.175312,-0.473914 0.251068,-0.981488 0.469153,-1.441475 0,0 1.963248,0.327208 1.963248,0.327208 z"
             inkscape:connector-curvature="0"
             transform="matrix(0,-1,-1.0003957,0,432.00008,441.36222)" />
          <path
             style="fill:#0f0f0f;fill-opacity:1;fill-rule:nonzero;stroke:#e38a14;stroke-width:0.40000001;stroke-linecap:round;stroke-linejoin:round;stroke-miterlimit:4;stroke-opacity:1;stroke-dasharray:none"
             id="path3825"
             d="m 25.874273,19.058998 c 0.815415,0.04529 1.660936,-0.155777 2.431007,0.213344 0.179901,0.08623 0.314132,0.24621 0.476259,0.362466 0.0189,0.01355 -0.02446,-0.04244 -0.04504,-0.05326 -0.120956,-0.06357 -0.24954,-0.111425 -0.37431,-0.167138 0.599703,-0.120688 1.21515,-0.09015 1.822493,-0.07057 0,0 -0.06417,1.989294 -0.06417,1.989294 l 0,0 c -0.588676,-0.01899 -1.174714,-0.03078 -1.758322,0.0716 -0.140498,-0.03218 -0.831186,-0.08539 -0.98802,-0.36256 -0.03402,-0.06012 0.122894,0.07574 0.191926,0.07813 0.02412,8.36e-4 0.03819,-0.06854 0.01418,-0.07099 -0.565735,-0.05765 -1.141432,0.08071 -1.705996,0 0,0 0,-1.990329 0,-1.990329 z"
             inkscape:connector-curvature="0"
             transform="matrix(0,-1,-1.0003957,0,432.00008,441.36222)" />
          <path
             style="fill:#0f0f0f;fill-opacity:1;fill-rule:nonzero;stroke:#e38a14;stroke-width:0.40000001;stroke-linecap:round;stroke-linejoin:round;stroke-miterlimit:4;stroke-opacity:1;stroke-dasharray:none"
             id="path3827"
             d="m 26.300772,13.372345 c 1.121422,0 1.123109,-0.05365 2.212734,0.153738 0.21031,0.04003 0.431654,0.06647 0.619653,0.168884 0.250345,0.13638 0.437822,0.365969 0.668822,0.533036 0.01317,0.0095 -0.01388,-0.05584 7.61e-4,-0.04877 0.09619,0.04639 0.177707,0.118472 0.266561,0.177708 0.366554,-0.12498 0.794489,-0.143822 1.193592,-0.153682 0.296342,0.158531 0.592684,0.317062 0.889026,0.475593 0.04598,0.04996 0.190013,0.19344 0.13794,0.149871 -0.452698,-0.37877 -0.07395,-0.26776 0.290964,-0.311438 0.471501,-0.03235 0.237149,-0.02363 0.703034,-0.02677 0,0 0.0019,1.990328 0.0019,1.990328 l 0,0 c -0.303579,-0.0024 -0.147414,-0.0061 -0.468451,0.01266 -0.443729,0.05311 -0.94545,0.165426 -1.384712,0.02239 -0.220507,-0.0718 -0.413775,-0.211626 -0.607315,-0.339381 -0.05923,-0.0391 -0.215097,-0.159215 -0.144172,-0.156675 0.212409,0.0076 0.409053,0.11566 0.61358,0.17349 -0.797738,3.49e-4 -1.585699,0.293777 -2.329468,-0.180339 -0.140231,-0.09349 -0.648595,-0.422661 -0.6923,-0.510812 -0.04901,-0.09886 0.422626,0.122209 0.313406,0.106536 -0.129625,-0.0186 -0.247466,-0.08801 -0.375512,-0.115448 -0.904303,-0.193767 -0.863097,-0.130595 -1.91009,-0.130595 0,0 0,-1.990328 0,-1.990328 z"
             inkscape:connector-curvature="0"
             transform="matrix(0,-1,-1.0003957,0,432.00008,441.36222)" />
          <path
             style="fill:#0f0f0f;fill-opacity:1;fill-rule:nonzero;stroke:#e38a14;stroke-width:0.40000001;stroke-linecap:round;stroke-linejoin:round;stroke-miterlimit:4;stroke-opacity:1;stroke-dasharray:none"
             id="path3829"
             d="m 41.654737,15.078341 c -0.870769,0 -1.741538,0 -2.612307,0 -0.50852,0.0699 -1.103248,-0.09071 -1.603814,0 -0.07688,0.01393 0.223172,-0.06262 0.233934,0.01477 0.01146,0.08241 -0.142679,0.08563 -0.214018,0.128449 -0.16504,0.05839 -0.32506,0.133606 -0.495118,0.175166 -0.112081,0.02739 0.234875,-0.05428 0.319843,-0.132331 0.118381,-0.108752 0.148154,-0.292021 0.26372,-0.403761 0.02766,-0.02674 0.04724,0.06878 0.04317,0.107035 -0.02688,0.252403 -0.06259,0.506074 -0.134386,0.74954 -0.03507,0.118915 -0.121497,0.216149 -0.182245,0.324224 1.32912,-0.03409 -1.131263,0.996291 -0.262895,0.420171 0.09135,-0.06061 0.05141,0.213575 0.06552,0.322292 -0.468095,1.476851 -0.01562,0.402362 -0.474527,1.09291 -0.02679,0.04032 0.06759,-0.06957 0.104822,-0.100509 0.122135,-0.101476 0.08808,0.306831 0.104465,0.464773 0.0074,0.114558 0.09386,0.43337 0.02221,0.343673 -0.107833,-0.135005 -0.140472,-0.324889 -0.145165,-0.497608 -0.0017,-0.06376 0.102793,0.08042 0.13532,0.13528 0.839176,1.415448 0.189393,0.526774 0.200509,0.34271 0.0028,-0.04707 0.08168,0.04714 0.12252,0.0707 0.25181,-0.101244 0.02905,-0.03117 0.572087,0.310889 0.01871,0.01179 0.07911,0.03829 0.06148,0.02493 -0.474993,-0.359903 0.16904,0.169724 0.530027,0.250289 0.151536,0.190229 0.290076,0.391579 0.454606,0.570687 0.03953,0.04303 -0.03658,-0.114681 -0.07564,-0.158139 -0.06601,-0.07344 -0.327351,-0.209946 -0.232028,-0.184172 0.335218,0.09064 0.740635,0.371554 1.02876,0.570204 0.347569,0.286406 0.590256,0.495353 0.931235,0.793926 0.02599,0.02276 -0.09135,-0.09852 -0.05969,-0.08472 0.311384,0.135759 0.144477,0.215854 0.27794,0.138836 0.670195,0.346366 1.315789,0.579148 1.945733,0.900146 0.02456,0.01613 0.09707,0.0662 0.07369,0.0484 -0.527309,-0.401319 0.398533,0.15389 0.49255,0.260698 0.426665,0.484709 0.553174,0.763678 0.367473,0.392752 0.110079,0.14711 0.220158,0.294221 0.330237,0.441331 -0.04378,-0.06818 -0.191728,-0.258593 -0.131354,-0.204547 0.140615,0.125876 0.241368,0.291023 0.375858,0.423423 0.04764,0.0469 -0.161724,-0.211704 -0.113629,-0.165268 0.144644,0.139653 0.312136,0.268578 0.405215,0.446794 0.113311,0.216954 0.13167,0.471482 0.197506,0.707223 -0.159826,-0.459082 0.08636,1.132677 -0.07434,0.88432 -0.08639,-0.133517 -0.07882,-0.615288 -1.38e-4,-0.477087 0.351424,0.617253 0.255448,0.404134 0.345203,1.107152 -0.0693,0.698845 -0.09339,1.397925 -0.06864,2.09926 0.08492,0.807725 -0.349006,1.592779 -1.139323,1.853649 -0.197684,0.06525 -0.413806,0.04596 -0.620709,0.06895 0.852445,-0.341272 0.09894,0.11116 0.132732,0.07353 0.08921,-0.09935 0.336487,-0.38185 0.312606,-0.250477 -0.07785,0.428258 -0.827894,0.68585 -1.105046,0.748937 -0.187082,0.04258 -0.383641,-0.0085 -0.575461,-0.01272 -0.131018,-0.01835 -0.489111,0.03592 -0.393053,-0.05505 0.11581,-0.109674 0.318368,-0.02851 0.477835,-0.02524 0.01325,2.72e-4 -0.0079,0.02826 -0.01952,0.03465 -0.164544,0.09046 -0.323677,0.198411 -0.503389,0.252833 -0.383639,0.116178 -0.64169,0.07036 -1.018192,0.04521 -0.543677,-0.08165 -1.092439,-0.04157 -1.639076,-0.03194 -0.581169,0.0018 -0.323094,0.04654 -1.148361,-0.434421 -0.05873,-0.03423 -0.150507,-0.211884 -0.144201,-0.144201 0.0077,0.08267 0.177851,0.121366 0.149339,0.199342 -0.02636,0.07208 -0.153024,0.01221 -0.229414,0.01965 -0.09971,0.0097 -0.199239,0.02118 -0.298858,0.03177 -0.857583,-0.18076 -0.499066,-0.05208 -1.097256,-0.319168 0,0 0.840784,-1.80402 0.840784,-1.80402 l 0,0 c 0.190615,0.09755 0.208749,0.04759 0.07398,0.141243 0.294984,-0.02456 0.830121,-0.08771 1.106191,-0.02012 0.300666,0.07361 0.584067,0.208885 0.862601,0.343931 0.06118,0.02966 0.212215,0.144784 0.144228,0.144228 -0.193849,-0.0016 -0.389471,-0.06026 -0.562512,-0.147648 -0.08002,-0.04041 0.179301,-4.05e-4 0.268951,-6.08e-4 0.614937,-0.0105 1.232289,-0.04963 1.844034,0.03895 0.06057,0.008 0.127143,-0.0034 0.181706,0.02405 0.02477,0.01248 -0.202066,0.199664 -0.124018,0.148186 0.4438,-0.292718 0.768757,-0.592335 1.39375,-0.425055 0.146358,0.122717 0.01793,-0.01104 -0.232561,0.266703 -0.03626,0.0402 -0.09722,0.190975 -0.06142,0.150356 0.713094,-0.80924 0.319469,-0.640828 1.331327,-0.982968 -0.06735,0.07778 -0.28233,0.299319 -0.20928,0.226869 0.05683,-0.05637 0.161385,-0.254463 0.164981,-0.174497 0.0087,0.193579 -0.06488,0.38703 -0.14754,0.562289 -0.03533,0.0749 3.8e-4,-0.165637 -4.8e-4,-0.24845 -7.93e-4,-0.07633 -0.003,-0.152636 -0.0045,-0.228955 -0.02433,-0.696987 -0.02486,-1.397799 0.06898,-2.090279 0.05912,0.04537 0.210011,0.209504 0.166979,0.148661 -0.06745,-0.09537 -0.179124,-0.160624 -0.226537,-0.267386 -0.229429,-0.516608 -0.345228,-0.777174 -0.200061,-1.250266 0.0465,0.06513 0.08218,0.139541 0.139492,0.195392 0.04914,0.04789 0.223558,0.157501 0.173964,0.110074 -1.41458,-1.352767 0.673072,0.729855 -0.782661,-0.724286 -0.0339,-0.03386 0.07861,0.05481 0.117912,0.08222 -0.130577,-0.13555 -0.286208,-0.2508 -0.391731,-0.406648 -0.05119,-0.07561 0.299324,0.209288 0.223575,0.158296 -0.110163,-0.07416 -0.348287,-0.09676 -0.326836,-0.227809 0.0196,-0.119739 0.459303,0.156709 0.345248,0.115321 -0.708273,-0.257016 -0.416473,-0.07385 -0.800565,-0.354831 0.133728,0.03849 0.539535,0.100534 0.401182,0.115473 -0.431944,0.04664 -0.752921,-0.215175 -1.106212,-0.381358 -0.794146,-0.373556 -0.173903,-0.0128 -0.610958,-0.27644 -0.423333,-0.177582 -0.725291,-0.307664 -1.062798,-0.622448 -0.01899,-0.01771 0.09789,0.02736 0.07699,0.01193 -0.778357,-0.574829 -0.245934,-0.07748 -0.687775,-0.512337 -0.118975,-0.105603 -0.317453,-0.120546 -0.404038,-0.254 -0.04071,-0.06274 0.288984,0.0711 0.22063,0.04076 -0.58611,-0.260218 -0.803607,-0.131904 -1.125262,-0.697871 -0.0538,-0.09466 0.173144,0.132057 0.259716,0.198086 -0.09692,-0.06503 -0.387141,-0.129237 -0.290774,-0.195091 0.114881,-0.07851 0.536234,0.146973 0.399588,0.120731 -0.290652,-0.05582 -0.680895,-0.122819 -0.91308,-0.353101 -0.02753,-0.0273 0.150493,0.02871 0.115723,0.01157 -0.188359,-0.09286 -0.387952,-0.160936 -0.581928,-0.241404 -0.124611,-0.09451 -0.268492,-0.167933 -0.373835,-0.283533 -0.776202,-0.851777 -0.394321,-0.622279 -0.200167,-0.342368 0.03628,0.05231 -0.101606,-0.08087 -0.135069,-0.13503 -0.470787,-0.761968 -0.418508,-0.517311 -0.449895,-1.049139 -0.04555,-0.441735 -0.126685,-0.905842 0.0027,-1.34396 0.05465,-0.185014 0.16356,-0.349705 0.255631,-0.519233 0.0112,-0.02062 0.05151,-0.07081 0.05209,-0.04736 0.0041,0.163662 -0.02743,0.326273 -0.04114,0.489409 -0.06747,-0.578661 -0.102207,-1.028514 0.177187,-1.576785 0.065,-0.127545 0.133384,-0.329806 0.27653,-0.328574 0.120614,0.001 -0.170691,0.448357 -0.14919,0.32967 0.02832,-0.156323 0.113414,-0.296804 0.17012,-0.445206 0.08264,-0.07387 0.09013,0.433541 0.05822,0.327391 -0.14496,-0.482236 -0.08483,-0.996053 0.203595,-1.434056 0.132207,-0.200772 0.386103,-0.287158 0.588627,-0.416664 0.0098,-0.0063 0.0076,0.022 0.01135,0.033 0.384016,-0.229048 0.43249,-0.280109 1.001752,-0.425447 0.101876,-0.02601 0.210288,0 0.315432,0 0.42946,0 0.858921,0 1.288382,0 0.870769,0 1.741538,0 2.612307,0 0,0 0,1.990329 0,1.990329 z"
             inkscape:connector-curvature="0"
             transform="matrix(0,-1,-1.0003957,0,432.00008,441.36222)" />
          <path
             style="fill:#0f0f0f;fill-opacity:1;fill-rule:nonzero;stroke:#e38a14;stroke-width:0.40000001;stroke-linecap:round;stroke-linejoin:round;stroke-miterlimit:4;stroke-opacity:1;stroke-dasharray:none"
             id="path3831"
             d="m 53.312376,16.357838 c 0.171834,1.148768 0.189886,2.322541 0.351978,3.471514 0.235592,1.669964 0.0136,-0.925637 0.238689,1.198537 0.03035,0.286388 0.03197,0.575095 0.04796,0.862642 -0.0031,1.102081 -0.107273,2.199633 -0.07482,3.301656 0.01688,0.561545 0.0048,1.123402 0.0037,1.685086 0.0011,0.568864 0.0015,1.137727 0.0012,1.706593 -3.5e-5,0.09481 -7e-5,0.189612 -1.04e-4,0.284418 0,0 -1.990329,-7.28e-4 -1.990329,-7.28e-4 l 0,0 c 3.5e-5,-0.09489 7e-5,-0.189776 1.04e-4,-0.284663 2.79e-4,-0.56981 -8.9e-5,-1.139617 -0.0012,-1.709426 0.001,-0.541191 0.01276,-1.082552 -0.0029,-1.623613 -0.03113,-1.089799 0.055,-2.175268 0.07623,-3.264652 -0.02516,-0.68541 0.006,-0.557733 -0.119595,-1.217576 -0.04922,-0.258647 -0.124797,-0.5124 -0.162426,-0.772986 -0.03947,-0.273356 -0.04093,-0.550925 -0.06843,-0.825744 -0.04309,-0.430619 -0.09554,-0.860248 -0.143314,-1.290372 -0.04903,-0.506896 -0.09807,-1.013791 -0.147106,-1.520686 0,0 1.990329,0 1.990329,0 z"
             inkscape:connector-curvature="0"
             transform="matrix(0,-1,-1.0003957,0,432.00008,441.36222)" />
          <path
             style="fill:#0f0f0f;fill-opacity:1;fill-rule:nonzero;stroke:#e38a14;stroke-width:0.40000001;stroke-linecap:round;stroke-linejoin:round;stroke-miterlimit:4;stroke-opacity:1;stroke-dasharray:none"
             id="path3833"
             d="m 46.914891,15.078341 c 1.113636,0 2.227273,0 3.340909,0 0.38091,0.07522 1.132378,-0.0906 1.488304,0 0.250147,0.06367 0.487915,0.168671 0.731872,0.253007 0.0908,0.045 0.177249,0.100161 0.272414,0.13501 0.02449,0.009 0.874085,-0.115727 0.929155,-0.119495 0.404877,-0.01066 0.809133,0.0174 1.213908,0.02037 0.08972,6.6e-4 0.349029,-0.04098 0.269155,-1.21e-4 -0.174069,0.08905 -0.37765,0.10148 -0.566475,0.152219 0.629499,-0.721204 1.530931,-0.46554 2.349498,-0.421175 -0.20693,0.04916 -0.413859,0.09832 -0.620789,0.147486 0,0 1.407268,1.407482 1.407268,1.407482 l 0,0 c -0.301722,0.14394 -0.603443,0.287879 -0.905165,0.431819 -0.367045,-0.02336 -0.322364,-0.01473 -0.674275,-0.05865 -0.283794,-0.03542 -0.234887,-0.06371 0.0036,-0.254665 0.05287,-0.04234 -0.09504,0.09655 -0.142558,0.14482 -0.283695,0.146998 -0.552698,0.326731 -0.851085,0.440995 -0.222069,0.08504 -1.062126,-0.07213 -1.358181,-0.02417 -0.76985,0.04178 -1.538507,0.22601 -2.239301,-0.233275 0.06033,-0.01044 0.238092,-0.0093 0.180978,-0.03133 -0.233779,-0.09025 -1.205831,0.07334 -1.488304,0 -1.113636,0 -2.227273,0 -3.340909,0 0,0 0,-1.990328 0,-1.990328 z"
             inkscape:connector-curvature="0"
             transform="matrix(0,-1,-1.0003957,0,432.00008,441.36222)" />
          <path
             style="fill:#0f0f0f;fill-opacity:1;fill-rule:nonzero;stroke:#e38a14;stroke-width:0.40000001;stroke-linecap:round;stroke-linejoin:round;stroke-miterlimit:4;stroke-opacity:1;stroke-dasharray:none"
             id="path3835"
             d="m 62.411022,16.784337 c 0,1.522364 0,3.044729 0,4.567093 0,0.926303 0,1.852605 0,2.778908 0.0085,0.789543 0.06002,1.239219 -0.208969,2.016144 -0.20756,0.599492 -0.148131,0.183406 -0.181489,0.466686 0.01168,0.04399 0.02837,0.08695 0.03504,0.131975 0.01565,0.10559 0.02106,0.212445 0.03174,0.318651 0.01132,0.112483 0.106441,0.424436 0.03427,0.337416 -0.969253,-1.168733 0.512915,-0.0014 -0.288875,-0.571954 0.193622,-0.346042 0.717878,0.232901 0.967207,0.339131 0.0083,0.0035 -0.119023,-0.06853 -0.0013,-0.09124 0.07049,-0.0136 0.142762,-0.01525 0.214142,-0.02288 0.618608,-0.187591 1.142834,0.185469 1.727474,0.299964 0.243488,0.04768 0.643811,0.02736 0.871986,0.0248 1.00935,-0.04186 2.01901,-0.128345 3.029384,-0.07335 -1.106798,0.592977 -0.875302,0.151026 -1.024778,1.090881 0,0 1.698707,-1.03721 1.698707,-1.03721 l 0,0 c 0.344435,1.581628 0.570057,0.92378 -0.783641,1.933632 -0.977647,-0.0549 -1.954621,0.04896 -2.931571,0.07634 -0.660711,-0.01143 -0.878122,0.02241 -1.525128,-0.13916 -0.182762,-0.04564 -0.353449,-0.130432 -0.530174,-0.195649 0.07009,-0.01277 0.272781,-0.0041 0.21028,-0.03832 -0.168716,-0.09232 -0.41354,0.140551 -0.57549,0.04138 -0.324568,0.0235 -0.605122,0.0632 -0.933541,-0.0066 -0.179161,-0.03809 -0.348777,-0.113523 -0.517419,-0.185005 -0.05775,-0.02448 -0.219147,-0.08559 -0.158467,-0.101484 0.130509,-0.03418 0.532627,9.8e-5 0.402991,0.03745 -0.169811,0.04893 -0.353438,-5.39e-4 -0.530157,-8.09e-4 -0.211625,-0.08083 -0.431022,-0.143689 -0.634874,-0.242497 -0.07495,-0.03633 -0.144661,-0.0909 -0.192969,-0.158758 -0.176124,-0.247386 -0.350006,-0.500806 -0.473968,-0.77803 -0.125077,-0.279717 -0.04685,-1.238839 -0.04111,-1.512164 0.04349,-0.140691 0.07922,-0.284018 0.130463,-0.422074 0.03064,-0.08255 0.06098,-0.16814 0.114547,-0.23802 0.01541,-0.0201 0.07094,0.01522 0.07536,-0.0097 0.07387,-0.416711 -0.06628,-0.871443 0,-1.289493 0,-0.926303 0,-1.852605 0,-2.778908 0,-1.522364 0,-3.044729 0,-4.567093 0,0 1.990329,0 1.990329,0 z"
             inkscape:connector-curvature="0"
             transform="matrix(0,-1,-1.0003957,0,432.00008,441.36222)" />
          <path
             style="fill:#0f0f0f;fill-opacity:1;fill-rule:nonzero;stroke:#e38a14;stroke-width:0.40000001;stroke-linecap:round;stroke-linejoin:round;stroke-miterlimit:4;stroke-opacity:1;stroke-dasharray:none"
             id="path3837"
             d="m 63.406186,21.33366 c 1.137331,0 2.274661,0 3.411992,0 0.269524,0 0.539047,0 0.808571,0 0,0 0,1.990328 0,1.990328 l 0,0 c -0.269524,0 -0.539047,0 -0.808571,0 -1.137331,0 -2.274661,0 -3.411992,0 0,0 0,-1.990328 0,-1.990328 z"
             inkscape:connector-curvature="0"
             transform="matrix(0,-1,-1.0003957,0,432.00008,441.36222)" />
          <path
             style="fill:#0f0f0f;fill-opacity:1;fill-rule:nonzero;stroke:#e38a14;stroke-width:0.40000001;stroke-linecap:round;stroke-linejoin:round;stroke-miterlimit:4;stroke-opacity:1;stroke-dasharray:none"
             id="path3839"
             d="m 62.837521,15.362673 c 1.003158,-0.0997 1.973691,0.09368 2.942523,0.314046 0.103073,0.02023 0.206147,0.04046 0.309221,0.0607 0.05342,-0.0064 0.107242,-0.02855 0.160248,-0.01933 0.214728,0.03738 0.423048,0.105129 0.634573,0.157694 0.509107,0.223495 1.079984,0.07349 1.618882,0.0436 0,0 0.10461,1.987578 0.10461,1.987578 l 0,0 c -0.787129,0.03834 -1.601314,0.189272 -2.35289,-0.14299 -0.02259,-0.242525 0.0172,-0.01423 -0.555759,-0.07488 -0.338613,-0.03584 -0.530422,-0.138613 -0.869651,-0.203926 -0.987446,-0.190117 -0.884092,-0.132165 -1.991757,-0.132165 0,0 0,-1.990329 0,-1.990329 z"
             inkscape:connector-curvature="0"
             transform="matrix(0,-1,-1.0003957,0,432.00008,441.36222)" />
          <path
             style="fill:#0f0f0f;fill-opacity:1;fill-rule:nonzero;stroke:#e38a14;stroke-width:0.40000001;stroke-linecap:round;stroke-linejoin:round;stroke-miterlimit:4;stroke-opacity:1;stroke-dasharray:none"
             id="path3841"
             d="m 73.916493,18.633928 c 0.10364,1.241892 0.298038,2.476206 0.498854,3.705538 0.143587,0.87899 0.209268,0.773226 0.283937,1.667519 0.02429,0.290945 0.01775,0.583644 0.02663,0.875467 0.03353,0.284348 0.07206,0.568149 0.100577,0.853044 0.07371,0.736497 0.128424,1.399189 0.147377,2.135352 0.0061,0.238434 -0.02238,0.477777 -0.0034,0.715531 0.0016,0.02015 0.05944,0.02074 0.06064,5.64e-4 0.0033,-0.05544 -0.03418,-0.10569 -0.05127,-0.158535 0.216949,0.340715 0.268447,0.425898 0.463996,0.828386 0,0 -1.837449,0.764979 -1.837449,0.764979 l 0,0 c 0.03451,-0.173758 -0.38236,-0.561252 -0.169089,-0.3356 -0.09558,-0.149104 -0.219451,-0.283481 -0.286728,-0.447311 -0.24563,-0.598155 -0.150362,-0.670597 -0.164859,-1.274234 -0.0244,-1.015966 -0.134082,-2.027109 -0.249627,-3.035902 -0.01148,-0.840631 -0.157718,-1.496959 -0.293643,-2.326211 -0.200446,-1.222882 -0.394423,-2.45144 -0.49631,-3.687112 0,0 1.970325,-0.281475 1.970325,-0.281475 z"
             inkscape:connector-curvature="0"
             transform="matrix(0,-1,-1.0003957,0,432.00008,441.36222)" />
          <path
             style="fill:#0f0f0f;fill-opacity:1;fill-rule:nonzero;stroke:#e38a14;stroke-width:0.40000001;stroke-linecap:round;stroke-linejoin:round;stroke-miterlimit:4;stroke-opacity:1;stroke-dasharray:none"
             id="path3843"
             d="m 72.628446,16.178567 c 0.954421,-0.470521 1.994222,-0.826262 3.075128,-0.74481 0.508585,0.03832 0.689452,0.21557 1.138956,0.308531 -0.03016,-0.01399 -0.111721,-0.01639 -0.09048,-0.04197 0.03073,-0.037 0.09495,-0.01578 0.142773,-0.02099 0.473877,-0.05162 0.63392,-0.07877 1.171798,0.300576 0.194835,0.137411 0.267127,0.396253 0.422189,0.577357 0.0555,0.06483 0.13619,0.102884 0.204285,0.154326 0.356357,0.530309 0.86716,0.969335 1.164907,1.540525 0.148949,0.285737 0.237873,0.599221 0.371112,0.892614 0.331743,0.766233 0.06687,1.545597 0.07576,2.32828 -0.04333,0.365737 0.110305,0.780747 0.02387,1.141003 -0.125835,0.524497 -0.199442,0.634955 -0.397626,1.023507 -1.422863,1.77899 -0.277013,0.0916 -0.296275,0.202351 -0.0893,0.513462 -0.494713,0.796683 -0.840629,1.118556 -0.241522,0.05287 -0.486648,0.09135 -0.724566,0.158596 -0.24522,0.06931 0.36146,-0.05497 0.335733,-0.02644 -0.529924,0.587585 -1.221181,0.617984 -1.956386,0.599584 -0.603408,0.337215 -1.329891,0.231712 -1.989033,0.194576 -0.95949,-0.04466 -1.628129,0.245485 -0.222666,-1.992409 0.134636,-0.214378 0.490832,0.124593 0.733911,0.195282 0.147947,0.04302 0.305977,0.06738 0.43866,0.145705 0.221321,0.130646 0.40604,0.315176 0.60906,0.472765 0.310642,0.342851 0.09987,0.07364 0.412264,0.848119 0.05957,0.147684 -0.141003,-0.289434 -0.172357,-0.445562 -0.0066,-0.03267 0.05818,0.03612 0.09113,0.0411 0.02528,0.0038 0.05,-0.01066 0.075,-0.01599 0.174729,0.114673 0.349457,0.229347 0.524185,0.344021 0.318251,0.156035 -0.0727,-0.0501 0.535969,0.626179 0.05138,0.05709 -0.158563,-0.261991 -0.110065,-0.202433 0.116641,0.143243 0.203289,0.308896 0.31596,0.455283 0.05855,0.07608 -0.08897,-0.172542 -0.153233,-0.243861 -0.05284,-0.05864 -0.127831,-0.09265 -0.191747,-0.138981 0.20186,0.08687 0.425129,0.135188 0.605578,0.260616 0.523781,0.364071 0.447121,0.570073 0.712546,1.118725 0.01162,0.02403 -0.01066,-0.100807 0.0059,-0.07986 0.07117,0.09018 0.273455,0.347196 0.168414,0.300684 -0.13511,-0.05983 -0.183226,-0.231873 -0.274838,-0.347809 0.713573,0.615574 0.223118,0.07402 0.695237,1.111722 0.03692,0.08115 -0.0031,-0.188558 -0.05364,-0.262016 -0.09575,-0.139243 -0.486685,-0.230398 -0.367024,-0.349722 0.145165,-0.144756 0.36465,0.196247 0.563324,0.246804 0.188878,0.18189 0.377757,0.36378 0.566636,0.54567 0.04179,-0.09668 -0.376488,-0.300458 -0.261106,-0.259021 0.204793,0.07355 0.384038,0.204799 0.578251,0.302935 0.01866,0.0094 0.06394,0.03987 0.05966,0.0194 -0.0066,-0.03165 -0.04648,-0.04497 -0.06971,-0.06745 0.965533,0.517219 0.445344,0.164764 1.154647,0.963234 0.04078,0.04591 -0.03874,-0.120723 -0.08058,-0.165669 -0.0731,-0.07852 -0.170441,-0.130338 -0.255661,-0.195507 0,0 -0.306106,1.966649 -0.306106,1.966649 l 0,0 c -0.57615,-0.209698 -0.826397,-0.167094 -1.13147,-0.702709 -0.05236,-0.09192 0.354104,0.176543 0.250023,0.195467 -0.03693,0.0067 -0.738015,-0.495135 0.06004,-0.09529 -0.03768,-0.0097 -0.789861,-0.15003 -0.872608,-0.324048 -0.03739,-0.07864 0.333402,0.09654 0.254097,0.06059 -0.227909,-0.103318 -0.486363,-0.138323 -0.702758,-0.263982 -0.138934,-0.08068 -0.341435,-0.180916 -0.34005,-0.341569 0.0011,-0.132295 0.227498,0.13512 0.341247,0.202681 -0.111739,-0.04969 -0.223478,-0.09939 -0.335216,-0.149081 0.04039,0.0031 0.155861,0.03027 0.121177,0.0093 -0.733244,-0.44259 -0.92869,-0.238391 -1.142306,-1.04706 -0.04671,-0.176841 0.280331,0.538891 0.392693,0.383253 -0.03299,-0.02783 -1.65084,-1.294647 -0.545274,-1.057648 -0.239557,-0.06487 -0.50138,-0.07468 -0.71867,-0.194595 -0.170019,-0.09383 -0.661443,-0.644528 -0.726067,-0.790149 -0.0509,-0.114706 0.30085,0.115939 0.289315,0.240901 -0.01075,0.116505 -0.195885,-0.128003 -0.293828,-0.192004 0.346882,0.01758 -0.02221,0.01098 -0.46171,-0.225 -0.629709,-0.338106 -0.998212,-1.522647 -0.543763,-0.597201 0.02464,0.05018 -0.0749,-0.08303 -0.112346,-0.124547 0.656292,0.158984 -0.364734,-0.05718 -0.396122,-0.189049 -0.534695,-2.246411 -0.836566,-2.020007 0.398051,-1.984084 0.215782,0.01217 0.579818,0.073 0.800158,0.0593 0.156146,-0.0097 0.449203,-0.129586 0.545687,-0.150415 0.213974,-0.04619 0.432373,-0.06877 0.64856,-0.103149 0.531756,0.08152 0.11949,-0.06318 0.210143,0.167758 0.0092,0.02341 0.05395,-0.004 0.07246,-0.02106 0.166475,-0.153223 0.287145,-0.359329 0.476079,-0.483808 0.183383,-0.120823 0.402556,-0.181099 0.615371,-0.235297 0.06862,-0.01748 -0.115596,0.08183 -0.173393,0.122738 -0.06667,0.100891 -0.132303,0.402865 -0.200017,0.302671 -0.07029,-0.104005 0.0643,-0.285223 0.18161,-0.329906 0.09362,-0.03566 -0.123375,0.379509 -0.07772,0.290333 0.02922,-0.05708 0.277916,-0.976399 0.615454,-1.02496 0.09017,-0.01297 -0.08549,0.16089 -0.128231,0.241336 0.04738,-0.09287 0.05468,-0.221869 0.14214,-0.278614 0.04645,-0.03013 0.02056,0.21416 0.03813,0.161657 0.09115,-0.272369 -0.07828,-0.855427 -0.02385,-1.152834 0.007,-0.509308 0.116566,-1.006627 0.09395,-1.514307 -0.06051,-0.139523 -0.130206,-0.275413 -0.181537,-0.418569 -0.02228,-0.06215 -0.01106,-0.134164 -0.03823,-0.194336 -0.207774,-0.460188 -0.651093,-0.775841 -0.898726,-1.212838 -0.436666,-0.474573 -0.794512,-0.608075 -0.430888,-0.561141 0.175151,0.02261 0.360392,0.0072 0.525015,0.07113 0.08651,0.0336 -0.184868,0.01669 -0.277298,0.02508 -0.516054,0.04686 -0.235385,0.04273 -0.836246,-0.0097 -0.129493,-0.0419 -0.421239,-0.201173 -0.56704,-0.224592 -0.770104,-0.123695 -1.51093,0.216696 -2.185026,0.534687 0,0 -0.890102,-1.780205 -0.890102,-1.780205 z"
             inkscape:connector-curvature="0"
             transform="matrix(0,-1,-1.0003957,0,432.00008,441.36222)" />
          <path
             style="fill:#0f0f0f;fill-opacity:1;fill-rule:nonzero;stroke:#e38a14;stroke-width:0.40000001;stroke-linecap:round;stroke-linejoin:round;stroke-miterlimit:4;stroke-opacity:1;stroke-dasharray:none"
             id="path3845"
             d="M 5.7001937,50.029822 C 5.9596535,48.865417 6.17716,47.63852 6.7710179,46.582881 c 0.1611354,-0.286433 0.3984669,-0.525103 0.5612458,-0.810606 0.084105,-0.147514 0.1100493,-0.321472 0.1739131,-0.478811 0.107911,-0.265856 0.2274671,-0.526835 0.3412007,-0.790253 0.1609831,-0.558238 0.4583211,-1.065632 0.6405041,-1.615526 0.235045,-0.709451 -0.064403,-0.231503 0.2273061,-0.994676 0.1031136,-0.269767 0.2866412,-0.577817 0.4383366,-0.84144 0.5486469,-0.808831 1.2235407,-0.836805 2.0985557,-0.693557 0.0971,0.0159 0.203799,0.0023 0.291399,0.04715 0.256174,0.131047 0.481964,0.314493 0.722946,0.47174 0.338395,0.55009 0.784603,1.031142 1.084632,1.606262 0.264881,0.507745 0.398424,1.080793 0.60385,1.613262 0.07976,0.167866 0.159515,0.335732 0.239273,0.503598 0.06697,0.176551 0.123932,0.357227 0.2009,0.529653 0.23807,0.53333 0.05719,-0.515743 0.302532,0.782758 0.07906,0.418433 0.02774,0.643778 -0.01711,1.04417 0.235746,0.537923 0.196744,1.145307 0.290826,1.711773 0.02817,0.169599 0.09124,0.33162 0.129994,0.499118 0.164923,0.712732 0.0074,0.41463 0.236852,0.781811 0.447936,0.143931 -0.102795,0.963653 0.292195,1.069693 0,0 -1.849832,0.734529 -1.849832,0.734529 l 0,0 c -0.120036,-0.373669 -0.174211,-0.610554 -0.248368,-0.967708 -0.08504,-0.204424 -0.188108,-0.402252 -0.255122,-0.613274 -0.0554,-0.174454 -0.07125,-0.359104 -0.110453,-0.537896 -0.213135,-0.971922 -0.338793,-1.955898 -0.45845,-2.944899 0.01575,-0.07925 0.102943,-0.322906 0.06751,-0.408544 -0.06609,-0.159711 -0.173602,-0.29954 -0.24566,-0.456647 -0.05608,-0.122264 -0.09183,-0.252863 -0.137751,-0.379295 -0.09906,-0.21335 -0.198122,-0.4267 -0.297183,-0.640049 -0.07282,-0.192964 -0.150778,-0.384067 -0.21846,-0.578892 -0.07849,-0.225932 -0.102692,-0.472691 -0.211658,-0.685604 -0.240762,-0.470434 -0.611638,-0.853342 -0.863213,-1.3162 0.140836,0.0484 0.316833,0.04027 0.422508,0.145201 0.07923,0.07867 -0.220811,-0.03351 -0.330579,-0.05392 -0.06601,-0.01227 -0.145126,-8.88e-4 -0.196531,-0.04407 -0.01442,-0.01211 0.379076,-0.343311 0.181473,-0.227427 -0.04444,0.07722 -0.08216,0.158721 -0.133323,0.231657 -0.02693,0.03839 -0.08275,0.05586 -0.09919,0.09978 -0.152,0.406105 -0.179871,0.850092 -0.314703,1.262215 -0.184484,0.563889 -0.4986904,1.080154 -0.6567636,1.6543 -0.099164,0.229612 -0.6286683,1.468074 -0.7288416,1.645345 -0.097227,0.172057 -0.2619448,0.298957 -0.3628354,0.468891 -0.5296662,0.892138 -0.6859564,1.960708 -0.9195045,2.950545 0,0 -1.9632482,-0.327208 -1.9632482,-0.327208 z"
             inkscape:connector-curvature="0"
             transform="matrix(0,-1,-1.0003957,0,432.00008,441.36222)" />
          <path
             style="fill:#0f0f0f;fill-opacity:1;fill-rule:nonzero;stroke:#e38a14;stroke-width:0.40000001;stroke-linecap:round;stroke-linejoin:round;stroke-miterlimit:4;stroke-opacity:1;stroke-dasharray:none"
             id="path3847"
             d="m 9.6673109,45.217604 c 0.7338311,-0.06031 1.4582241,-0.406108 2.2035781,-0.355416 0.129381,0.0088 0.485033,-0.01545 0.383529,0.06525 -0.331915,0.263918 -0.766611,0.362752 -1.149917,0.544128 0.600006,-1.127527 1.597728,-0.867035 2.633873,-0.807535 0,0 -0.118614,1.986791 -0.118614,1.986791 l 0,0 c -0.04802,-0.003 -0.975907,-0.05599 -0.940854,-0.108879 0.4236,-0.639184 0.09708,0.11093 0.313787,-0.44098 -0.382487,0.237254 -1.541011,0.915411 -1.121804,0.751549 0.01598,-0.0062 -0.03261,-0.01552 -0.04964,-0.01354 -0.132538,0.01543 -0.263789,0.04071 -0.394936,0.0653 -1.44894,0.271676 0.01017,0.03269 -1.7589971,0.303658 0,0 0,-1.990329 0,-1.990329 z"
             inkscape:connector-curvature="0"
             transform="matrix(0,-1,-1.0003957,0,432.00008,441.36222)" />
          <path
             style="fill:#0f0f0f;fill-opacity:1;fill-rule:nonzero;stroke:#e38a14;stroke-width:0.40000001;stroke-linecap:round;stroke-linejoin:round;stroke-miterlimit:4;stroke-opacity:1;stroke-dasharray:none"
             id="path3849"
             d="m 21.161346,42.787236 c -0.324099,-0.04621 -0.647436,-0.09813 -0.972297,-0.138628 -0.602867,-0.07516 -2.106406,0.118509 -0.0563,-1.038164 0.16617,-0.09375 -0.02661,0.380658 -0.03991,0.570987 -0.744799,0.734933 -0.588851,0.709335 -1.165997,0.99711 -0.08543,0.04259 0.164486,-0.162004 0.254719,-0.130861 0.06642,0.02293 -0.06639,0.124186 -0.106116,0.18215 -0.09209,0.134375 -0.192568,0.262799 -0.288852,0.394199 -0.545257,0.36165 -0.639418,0.606189 -1.167733,0.971222 -0.08928,0.06169 -0.198038,0.09489 -0.280131,0.16586 -0.03756,0.03247 0.09441,-0.03075 0.141618,-0.04612 0.04864,-0.05835 0.08092,-0.135748 0.145931,-0.175042 0.09808,-0.05928 0.08593,0.214155 0.106561,0.326888 0.06901,0.377076 0.07402,0.736285 0.05769,1.11761 -0.05642,0.02131 0.01726,0.895382 -0.02852,0.7994 -0.08426,-0.176638 -0.146075,-0.372325 -0.148547,-0.568016 -8.46e-4,-0.06689 0.107824,0.08385 0.143147,0.140656 0.119364,0.191975 0.211372,0.399664 0.317058,0.599496 -0.0321,-0.07976 -0.110641,-0.154513 -0.09631,-0.239293 0.008,-0.04739 0.08557,0.04455 0.124457,0.07278 0.120129,0.08721 0.250171,0.164847 0.351848,0.273006 0.330983,0.352078 0.509298,0.76204 0.792863,1.13946 0.338928,0.245667 0.525002,0.595199 0.79005,0.9072 0.282816,0.332916 0.03131,-0.02083 0.171601,0.01093 0.127984,0.02897 0.242898,0.09939 0.364347,0.149083 0.435049,0.0036 0.551927,-0.01905 1.117599,0.142303 0.674557,0.192407 0.09035,0.11501 0.434562,0.153505 0.38735,-0.08532 0.7887,-0.09304 1.183813,-0.09781 0,0 0.01536,1.990269 0.01536,1.990269 l 0,0 c -0.56145,7.29e-4 -1.116895,0.129659 -1.67769,0.0395 -0.247886,-0.07023 -0.686889,-0.180278 -0.69027,-0.235502 -0.0048,-0.07759 0.306617,-0.04411 0.228885,-0.04465 -0.463358,-0.0032 -0.919234,0.114628 -1.36658,-0.105751 -0.301332,-0.123528 -0.777322,-0.308781 -1.006373,-0.473913 -0.183537,-0.132319 -0.314742,-0.325139 -0.472113,-0.487708 0.0029,-0.02017 0.02229,-0.04532 0.0087,-0.06051 -0.22797,-0.254923 -0.538683,-0.42975 -0.721224,-0.729686 -0.09426,-0.13559 -0.194129,-0.267452 -0.282793,-0.406768 -0.0537,-0.08437 -0.110151,-0.169166 -0.143704,-0.263381 -0.0071,-0.02004 0.04416,-0.04072 0.02981,-0.05642 -0.337467,-0.369347 -0.870353,-0.485142 -1.038598,-1.028206 0.05654,0.05722 0.118992,0.109161 0.169633,0.171669 0.04412,0.05445 -0.114462,-0.08694 -0.149949,-0.147373 -0.480223,-0.817786 -0.462625,-0.742347 -0.425654,-1.480884 0.0044,-0.08833 0.01122,-0.176523 0.01683,-0.264785 0.05177,-0.791011 -0.376004,-1.532403 0.04376,-2.304764 0.133965,-0.148439 0.46412,-0.619887 0.758912,-0.696047 0.0379,-0.0098 -0.07736,0.134014 -0.04952,0.106491 0.04878,-0.04823 0.53622,-0.780109 0.634435,-0.5536 0.309333,-0.404961 0.509542,-0.811158 0.960711,-1.06134 0.149549,-0.08293 0.435253,-0.443401 0.434716,-0.272399 -8.18e-4,0.2604 -0.290598,0.43219 -0.435897,0.648285 0.101337,0.816415 -0.05665,-0.06707 0.730103,-1.087215 0.0792,-0.102689 0.254184,-0.05595 0.38353,-0.06526 0.745242,-0.05364 1.490536,0.160041 2.225015,0.22679 0,0 -0.327208,1.963248 -0.327208,1.963248 z"
             inkscape:connector-curvature="0"
             transform="matrix(0,-1,-1.0003957,0,432.00008,441.36222)" />
          <path
             style="fill:#0f0f0f;fill-opacity:1;fill-rule:nonzero;stroke:#e38a14;stroke-width:0.40000001;stroke-linecap:round;stroke-linejoin:round;stroke-miterlimit:4;stroke-opacity:1;stroke-dasharray:none"
             id="path3851"
             d="m 31.397323,44.493232 c -0.622296,-0.130344 -1.215886,-0.361513 -1.828351,-0.526012 -0.0866,-0.02326 -0.335231,0.0068 -0.264625,-0.04844 0.07754,-0.06071 0.19622,0.03326 0.294364,0.02515 0.07127,-0.0059 0.268809,-0.09664 0.204031,-0.06634 -0.14442,0.06755 -0.295845,0.118987 -0.443768,0.17848 -0.400966,0.170047 -0.850548,-0.03075 -1.254868,0.03163 -0.04451,0.0069 0.149133,0.01741 0.123615,0.05451 -0.05061,0.0736 -0.166577,0.0676 -0.241274,0.116574 -0.03785,0.02482 -0.06045,0.06737 -0.09068,0.101062 0.054,-0.02793 0.179133,-0.142099 0.161986,-0.08378 -0.149512,0.508511 -0.688425,0.551207 -1.084415,0.787051 -0.06011,0.0358 0.260437,-0.08651 0.205376,-0.04334 -0.677123,0.53088 -0.187714,-0.03268 -0.395793,0.21544 -0.09409,0.09298 -0.405348,0.396446 -0.457401,0.470448 -0.01782,0.02533 0.0028,0.06187 0.0042,0.09281 -0.09813,0.128409 -0.201058,0.253289 -0.294387,0.385228 -0.02538,0.03587 0.06935,-0.05752 0.09001,-0.0963 0.04343,-0.08153 0.06611,-0.172516 0.09916,-0.258775 0.16079,0.454029 -0.176421,0.862602 -0.370258,1.237155 -0.01536,0.02968 0.09031,-0.04963 0.09876,-0.01729 0.01644,0.0629 0.01556,0.1291 0.02334,0.19365 0.0099,0.09803 0.02181,0.195888 0.02981,0.294097 0.03579,0.439482 0.02715,0.672843 0.02593,0.671036 -0.859668,-1.267601 0.146394,-0.254931 0.189605,-0.211422 0.09411,0.0944 0.201618,0.177115 0.282335,0.283194 0.12915,0.169731 0.219653,0.366199 0.343771,0.539644 0.0082,0.01152 -5.29e-4,-0.04108 0.01361,-0.04024 0.03537,0.0021 0.06627,0.02668 0.09548,0.04674 0.304105,0.208854 0.396984,0.306819 0.688355,0.561361 0.04174,0.0129 0.09065,0.01199 0.125234,0.03869 0.150381,0.116077 0.27587,0.261608 0.421633,0.383433 0.02945,0.02461 -0.03866,-0.07008 -0.07115,-0.09051 -0.09697,-0.06098 -0.417514,-0.187634 -0.309684,-0.148974 0.339683,0.121787 0.523087,0.206653 0.789642,0.328347 0.565185,1.724933 0.572946,0.604242 0.433265,0.449863 -0.0651,-0.07195 -0.165935,-0.107521 -0.225383,-0.184204 -0.02302,-0.02969 0.322359,-0.07913 0.664422,-0.118078 1.163228,0.46818 0.638654,0.110376 1.132342,0.597333 0.05407,0.05333 -0.102251,-0.112344 -0.15506,-0.166919 -0.02212,-0.02286 -0.09428,-0.04519 -0.0696,-0.06526 0.04817,-0.03919 0.122597,-0.02 0.184183,-0.02795 0.102945,-0.01329 0.206226,-0.02383 0.309339,-0.03575 0.759004,-0.07622 0.991526,-0.05767 1.736158,0.253507 0.331821,0.138666 0.155833,0.161583 0.326542,0.125822 0,0 -0.48703,1.929821 -0.48703,1.929821 l 0,0 c -0.02296,-0.0071 -0.719916,-0.189052 -0.799556,-0.312162 -0.0322,-0.04978 0.227031,9.95e-4 0.175572,-0.02845 -0.1776,-0.10162 -0.534365,0.04835 -0.723666,0.0087 -0.458706,0.05279 -0.9556,0.152024 -1.408096,-0.0072 -0.204686,-0.07201 -0.377787,-0.214147 -0.559347,-0.332965 -0.02369,-0.01551 -0.08029,-0.06913 -0.05204,-0.06715 0.206721,0.01451 0.408334,0.07099 0.612501,0.106485 -0.70388,0.07778 -1.313375,0.229563 -1.972978,-0.178658 -0.156385,-0.09678 -0.29523,-0.239138 -0.374678,-0.405003 -0.04769,-0.09956 0.181012,0.126422 0.271517,0.189634 -0.09149,-0.05461 -0.373049,-0.123361 -0.27448,-0.163825 0.139956,-0.05745 0.591953,0.125736 0.443977,0.09424 -0.241002,-0.05129 -0.493591,-0.06387 -0.723058,-0.153639 -0.138223,-0.05407 -0.247568,-0.166256 -0.355402,-0.268243 -0.02841,-0.02687 0.143577,0.05924 0.111217,0.0373 -0.159586,-0.108242 -0.330509,-0.198747 -0.495763,-0.29812 -0.273567,-0.247116 -0.604774,-0.439071 -0.870652,-0.689741 -0.128048,-0.120724 -0.230488,-0.266004 -0.345733,-0.399007 -0.005,-0.03455 0.0064,-0.076 -0.01491,-0.103664 -0.08209,-0.106623 -0.190012,-0.190593 -0.285017,-0.28589 -0.39997,-0.402728 -0.500245,-0.510994 -0.767647,-1.172668 -0.09315,-0.230508 0.08143,-0.589749 -0.04892,-0.817912 -0.024,-0.358506 -0.06528,-0.61552 0.02636,-0.980592 0.04496,-0.179098 0.132036,-0.34529 0.211033,-0.512195 0.02154,-0.04551 0.08145,-0.171716 0.08911,-0.121955 0.02554,0.165796 0.06408,0.363794 -0.03052,0.502329 -0.07216,0.105675 -0.03524,-0.253489 -0.05286,-0.380233 0.02722,-0.220257 0.01957,-0.447701 0.08167,-0.66077 0.04152,-0.142469 0.148769,-0.256812 0.223153,-0.385218 0.0023,0.01424 -9.16e-4,0.05486 0.0069,0.04272 0.121702,-0.189312 0.207168,-0.401706 0.340467,-0.58304 0.163467,-0.222372 0.584577,-0.570321 0.785999,-0.746574 0.01702,-0.0103 0.913813,-0.555486 0.960242,-0.480423 0.05421,0.08765 -1.436902,1.120295 0.03497,-0.309662 0.568909,-0.407792 1.112824,-0.713157 1.844761,-0.675212 0.245869,0.01275 0.15718,-0.02166 0.272845,0.0327 -0.257213,0.209189 0.07524,-0.07184 0.328929,-0.136652 0.888406,-0.226956 1.765304,0.36154 2.608545,0.516951 0,0 -0.327208,1.963248 -0.327208,1.963248 z"
             inkscape:connector-curvature="0"
             transform="matrix(0,-1,-1.0003957,0,432.00008,441.36222)" />
          <path
             style="fill:#0f0f0f;fill-opacity:1;fill-rule:nonzero;stroke:#e38a14;stroke-width:0.40000001;stroke-linecap:round;stroke-linejoin:round;stroke-miterlimit:4;stroke-opacity:1;stroke-dasharray:none"
             id="path3853"
             d="m 37.652641,53.591878 c -0.868705,-0.407419 -2.034766,-0.644367 -2.687618,-1.434453 -0.56558,-0.684468 -0.35785,-1.034956 -0.599627,-1.76611 0.04172,0.11996 0.119967,0.23298 0.125156,0.359882 0.0018,0.04434 -0.07776,-0.04334 -0.113299,-0.06991 -0.10102,-0.07553 -0.201387,-0.152348 -0.295812,-0.235978 -0.604425,-0.535325 -0.65399,-0.803146 -0.797891,-1.577027 -0.26107,-0.859138 -0.191504,-1.740179 -0.154575,-2.621156 0.01711,-0.510149 0.0013,-1.020501 -0.0049,-1.530669 -0.0011,-0.0868 -0.0252,-0.176737 -0.0021,-0.260416 0.07165,-0.259553 0.188568,-0.504427 0.282852,-0.756641 0.396922,-0.67745 1.013292,-1.012977 1.747242,-1.307794 -0.06208,0.01786 -0.219514,0.10894 -0.18624,0.05357 0.06233,-0.103716 0.177361,-0.171389 0.287354,-0.221822 0.679991,-0.311787 1.119544,-0.179235 1.804037,-0.115216 0.312925,0.07312 1.06457,-0.119029 1.316912,-0.02366 0.300648,0.113628 0.57192,0.293443 0.85788,0.440164 0.0425,0.04281 0.348149,0.351075 0.354221,0.355361 0.01396,0.0099 0.01774,-0.02922 0.02661,-0.04383 0.145112,0.120892 0.303375,0.22755 0.435335,0.362675 0.190393,0.194959 0.32996,0.433776 0.495775,0.650026 0.07913,0.08771 0.169272,0.166618 0.237402,0.263122 0.19993,0.226211 0.285662,0.524516 0.456217,0.768909 0.155352,0.222608 0.422786,0.409323 0.622,0.58499 0.742149,0.921404 0.791165,1.456019 0.635265,2.58955 0.01666,-0.08387 -0.03504,-0.242498 0.04999,-0.251615 0.08699,-0.0093 0.09373,0.149958 0.120104,0.233376 0.223311,0.706224 0.213838,1.346229 0.124187,2.06793 -0.03047,0.501574 0.0062,1.005226 0.0075,1.507857 -0.0038,0.57924 0.04322,0.32491 -0.443363,1.142206 -0.03494,0.05868 -0.187735,0.197649 -0.146651,0.14309 0.407818,-0.541572 0.120409,0.08499 -0.01723,0.469659 -0.266942,0.447633 0.04256,-0.0211 -0.742281,0.662613 -0.04002,0.03486 0.189826,-0.09161 0.147787,-0.05922 -0.483731,0.372704 -0.938059,0.415364 -1.527491,0.391135 -0.549726,-0.09204 -1.104345,-0.05593 -1.657803,-0.04368 -0.683188,-0.240656 -0.813895,-0.379607 -1.225072,-0.790795 0,0 1.407396,-1.407355 1.407396,-1.407355 l 0,0 c 0.267264,0.267272 0.795154,0.597644 -0.226012,0.208301 0.61595,-0.0134 1.234269,-0.04854 1.846231,0.04847 0.04411,0.0083 0.120021,-0.01823 0.132343,0.02494 0.01195,0.04187 -0.07155,0.0505 -0.101893,0.08173 -0.02278,0.02346 -0.08264,0.0994 -0.05585,0.08065 0.150917,-0.1056 0.251904,-0.3072 0.432362,-0.344106 0.128035,-0.02618 -0.148963,0.217522 -0.245283,0.305846 -0.05108,0.04684 0.071,-0.119052 0.106494,-0.178578 -0.01152,0.111341 -0.04171,0.44573 -0.03457,0.334023 0.01288,-0.201401 -0.0074,-0.410294 0.05179,-0.603218 0.178902,-0.582707 0.855616,-1.202612 0.306845,-0.181555 -0.04419,0.08222 0.0013,-0.186673 0.0019,-0.28001 -9.78e-4,-0.587286 -0.05009,-1.176283 0.0083,-1.761874 0.02782,-0.214687 0.138282,-0.721455 0.07526,-0.917902 -0.03811,-0.118772 -0.111893,-0.222968 -0.16784,-0.334453 -0.06627,-0.273058 -0.13254,-0.546116 -0.19881,-0.819174 8.4e-5,-6.07e-4 0.04832,-0.392049 0.0729,-0.458225 0.01073,-0.02888 0.0808,-0.01033 0.05851,-0.06879 -0.03355,-0.08798 -0.101431,-0.160161 -0.135054,-0.248117 -0.0068,-0.01771 0.01322,-0.03554 0.01983,-0.05331 -0.377463,-0.336014 -0.73855,-0.660977 -1.026596,-1.081272 -0.06853,-0.1 -0.127133,-0.206824 -0.181193,-0.31533 -0.01938,-0.03891 -0.01229,-0.08972 -0.03805,-0.12473 -0.09901,-0.134512 -0.220519,-0.250909 -0.330778,-0.376363 -0.08321,-0.109137 -0.170037,-0.215607 -0.249627,-0.32741 -0.02723,-0.03825 -0.0742,-0.07524 -0.07032,-0.12203 0.0022,-0.02664 0.101766,0.02331 0.07978,0.0081 -0.334569,-0.231431 -0.659761,-0.366954 -0.907547,-0.693974 0.191364,0.05081 0.396433,0.06504 0.574092,0.152446 0.07796,0.03835 -0.173776,2.81e-4 -0.260648,0.0018 -0.421117,0.0072 -0.842341,0.04434 -1.263461,0.01265 -0.404882,-0.04037 -0.684605,-0.08205 -0.65882,-0.108011 0.08471,-0.08529 0.83291,-0.515867 -0.381718,0.283776 -0.254691,0.04965 -0.08822,0.003 -0.467779,0.223984 -0.0587,0.01748 0.172221,-0.173676 0.124946,-0.134731 -0.116256,0.09577 -0.193602,0.247914 -0.332645,0.305831 -0.0028,0.0012 0.38573,-0.686141 -0.0344,0.05833 -7.71e-4,-0.09272 -0.0012,-0.185435 -0.0023,-0.278148 -9.68e-4,-0.08174 9.28e-4,0.163482 0.0019,0.245218 0.0013,0.104303 0.0033,0.208596 0.0049,0.312896 0.0065,0.444223 0.01432,0.888676 -0.0015,1.332826 -0.03435,0.807397 -0.09323,1.585561 0.14975,2.375212 -0.03355,-0.01677 -0.132569,-0.02275 -0.112172,0.0087 0.282731,0.436234 1.09853,0.561339 1.136165,1.173853 0.04531,0.194535 0.106983,0.38597 0.135919,0.583604 0.0096,0.06578 0.02461,0.150333 -0.02144,0.198276 -0.03406,0.03546 -0.169434,-0.06745 -0.145438,-0.02454 0.324341,0.580028 1.234408,0.626342 1.719537,0.982374 0,0 -0.327208,1.963249 -0.327208,1.963249 z"
             inkscape:connector-curvature="0"
             transform="matrix(0,-1,-1.0003957,0,432.00008,441.36222)" />
          <path
             style="fill:#0f0f0f;fill-opacity:1;fill-rule:nonzero;stroke:#e38a14;stroke-width:0.40000001;stroke-linecap:round;stroke-linejoin:round;stroke-miterlimit:4;stroke-opacity:1;stroke-dasharray:none"
             id="path3855"
             d="m 47.757887,46.214197 c 0.128593,1.179025 0.254927,2.36457 0.223252,3.55273 -0.0048,0.179849 -0.04831,0.358722 -0.03847,0.538366 0.0012,0.02261 0.0578,-0.02729 0.06759,-0.0069 0.06099,0.127226 0.08217,0.269955 0.123249,0.404933 0.202397,0.264856 0.399476,1.503388 0.690108,1.596759 0.06625,0.02128 -0.05366,-0.128418 -0.08049,-0.192628 0.07087,0.04003 0.141745,0.08005 0.212617,0.12008 0.12433,0.106901 0.24866,0.213802 0.372989,0.320703 0.09201,0.105145 0.172082,0.222088 0.276046,0.315436 0.01392,0.0125 0.05488,-0.0022 0.05215,-0.02075 -0.0057,-0.03838 -0.0607,-0.05582 -0.06904,-0.0937 -0.01982,-0.0901 0.170379,-0.07343 0.260314,-0.09398 0.357214,-0.08017 0.721384,-0.08114 1.084798,-0.06613 0.100178,0.0041 0.389551,-0.02873 0.300311,0.01698 -1.057225,0.541469 -0.615538,0.155843 -0.463279,0.008 0.714771,-0.366812 0.409472,-0.300921 1.178641,-0.357747 0.110305,-0.0081 -0.230615,0.08737 -0.329624,0.03807 -0.02023,-0.01007 0.513375,-0.281352 0.181362,-0.183549 0.369271,-0.42736 0.628909,-0.843268 1.082891,-1.180888 0.105409,-0.07839 0.241965,-0.112346 0.339118,-0.200762 0.02597,-0.02363 -0.01955,-0.07443 -0.0028,-0.105292 0.07146,-0.131809 0.17279,-0.245074 0.259185,-0.367611 0.244246,-0.538603 0.252248,-0.973192 0.465478,-1.536564 -0.04686,-0.549421 -0.07547,-1.101051 -0.07626,-1.654712 0.01483,-0.639353 0.01714,-1.278843 0.01631,-1.918337 -2.68e-4,-0.206576 0.0245,-0.414807 -0.0016,-0.619727 -0.0083,-0.06477 -0.06591,-0.112738 -0.09887,-0.169107 -0.02907,-0.05084 -0.05813,-0.101688 -0.0872,-0.152531 0,0 1.788873,-0.87255 1.788873,-0.87255 l 0,0 c 0.06626,0.144596 0.132527,0.289192 0.198791,0.433788 0.06291,0.251751 0.153276,0.498193 0.188724,0.755252 0.02846,0.206387 0.0014,0.416678 0.0016,0.625017 8.02e-4,0.63917 -0.0011,1.278361 -0.01631,1.917383 -6.14e-4,0.788976 0.156166,1.58841 -0.05293,2.360938 -0.03675,0.09683 -0.0438,0.211033 -0.110238,0.29048 -0.02651,0.0317 -0.02613,-0.160418 -0.03265,-0.119607 -0.02749,0.172154 -0.0019,0.350255 -0.03161,0.522047 -0.08015,0.464125 -0.371606,0.857294 -0.530064,1.291649 -0.369096,0.515583 -0.369415,0.562125 -0.889806,1.046929 -0.04378,0.04078 -0.09972,0.07337 -0.158589,0.08407 -0.01783,0.0032 0.0044,-0.06742 -0.0077,-0.05384 -0.490672,0.555311 -0.127389,0.30563 -0.464808,0.515349 -0.539083,0.827582 -0.666822,0.951151 -1.603342,1.244239 -0.08571,0.02682 0.564757,-0.60208 0.177819,-0.202426 -0.72509,0.700387 -1.112911,0.470216 -1.890327,0.557574 -0.815651,0.167239 -1.829978,0.183891 -2.333296,-0.636597 -0.0071,-0.01153 0.02653,-0.0054 0.03979,-0.0081 -0.293179,-0.169186 -0.577386,-0.326398 -0.823057,-0.583459 -0.534304,-0.559075 -0.558444,-1.438985 -0.918149,-2.09068 -0.120021,-0.394382 -0.227033,-0.699096 -0.271206,-1.130223 -0.01315,-0.128359 0.02862,-0.256747 0.03261,-0.385715 0.0075,-0.241044 0.01015,-0.482465 0.0017,-0.723477 -0.0365,-1.043784 -0.09827,-1.473907 -0.204965,-2.547778 0,0 1.970325,-0.281475 1.970325,-0.281475 z"
             inkscape:connector-curvature="0"
             transform="matrix(0,-1,-1.0003957,0,432.00008,441.36222)" />
          <path
             style="fill:#0f0f0f;fill-opacity:1;fill-rule:nonzero;stroke:#e38a14;stroke-width:0.40000001;stroke-linecap:round;stroke-linejoin:round;stroke-miterlimit:4;stroke-opacity:1;stroke-dasharray:none"
             id="path3857"
             d="m 58.430364,52.75242 c 0.04538,-0.875618 0.316383,-1.72283 0.361503,-2.597809 0.028,-0.543044 -0.04139,-1.099313 -0.07523,-1.640646 -0.05048,-0.66041 0.0031,-1.320782 0.0025,-1.981322 0.140171,-0.278999 0.18295,-0.634384 0.420514,-0.836996 0.300974,-0.256693 1.078373,-0.426495 1.502102,-0.254368 0.274443,0.111485 0.510325,0.302118 0.752662,0.472473 0.07379,0.05187 0.143389,0.114884 0.191448,0.191206 0.121843,0.193499 0.20883,0.406867 0.313245,0.6103 -0.0354,-0.08439 -0.145884,-0.335634 -0.106216,-0.253164 0.13829,0.287505 0.560111,1.099982 0.693172,1.435235 0.08977,0.226167 0.358615,1.134858 0.442451,1.413449 0.484599,0.627151 0.550566,1.424903 0.852276,2.129542 0.04909,0.114653 0.115973,0.220842 0.173959,0.331263 0.05787,0.141573 0.115743,0.283146 0.173614,0.424719 -0.330488,-0.002 0.451513,0.937032 0.230198,0.784133 -0.110209,-0.07614 -0.298395,-0.281061 -0.18712,-0.355634 0.113131,-0.07582 0.223877,0.167322 0.293161,0.284568 0.12888,0.218096 0.193397,0.468297 0.290095,0.702446 -0.186335,-0.671029 -0.05249,-0.507098 -1.477014,-0.438335 -0.113559,0.0055 -0.11762,0.259153 -0.231014,0.250927 -0.08962,-0.0065 -0.02996,-0.179953 -0.01776,-0.268975 0.03211,-0.234359 0.05657,-0.47622 0.149641,-0.693688 0.105172,-0.245734 0.290294,-0.448905 0.435441,-0.673358 0.169432,-0.146048 0.360003,-0.270673 0.508296,-0.438145 0.02229,-0.02518 -0.04616,-0.06128 -0.03732,-0.09374 0.339136,-0.742241 0.06576,-0.01568 0.152424,-0.563428 0.05682,-0.359093 0.153037,-0.710929 0.219608,-1.068342 0.253778,-0.886573 0.675089,-1.711017 1.152153,-2.496602 0.02249,-0.09541 0.0352,-0.193675 0.06748,-0.286238 0.05985,-0.171633 0.153441,-0.33068 0.208087,-0.50404 0.188406,-0.597705 -0.216831,0.02014 0.236285,-0.837967 0.142716,-0.270274 0.349713,-0.501442 0.518219,-0.756436 0.187837,-0.141201 0.375673,-0.282402 0.563509,-0.423602 0,0 0.894946,1.777773 0.894946,1.777773 l 0,0 c 0.06222,-0.07796 0.124435,-0.155927 0.186653,-0.23389 -0.07127,0.102847 -0.142535,0.205694 -0.213802,0.308542 -0.0292,0.01031 -0.06995,0.0055 -0.08761,0.03094 -0.136422,0.196587 -0.230978,0.801148 -0.261981,0.902558 -0.03941,0.128927 -0.108873,0.246755 -0.158346,0.372167 -0.09275,0.235115 -0.178827,0.472808 -0.268241,0.709212 -0.219456,0.328741 -0.338131,0.697568 -0.549608,1.028707 -0.01669,0.02613 -0.06118,0.02821 -0.07387,0.05649 -0.104259,0.232338 -0.130338,0.495079 -0.257638,0.719223 -0.189103,1.002541 -0.313289,2.412873 -1.235984,3.028746 -0.38602,-0.06277 0.08227,1.263712 -0.459339,1.526913 -1.4482,0.703762 -1.491084,0.227315 -1.913577,-0.538632 0.06806,0.08626 0.292747,0.32777 0.221729,0.243925 -0.558533,-0.659417 -0.579811,-0.546053 -0.781675,-1.309869 -0.0031,-0.01191 0.0243,-0.004 0.03645,-0.0061 -0.184726,-0.475624 -0.06522,-0.189284 -0.382105,-0.848786 -0.07345,-0.178645 -0.124082,-0.365838 -0.186123,-0.548756 -0.03253,-0.147946 -0.04438,-0.302011 -0.09758,-0.443839 -0.157834,-0.420709 -0.447743,-0.783988 -0.592401,-1.210882 -0.10697,-0.355468 -0.164924,-0.727143 -0.303783,-1.071408 -0.07068,-0.175241 -0.471619,-0.84977 -0.506701,-1.074818 -0.0096,-0.06171 0.180244,0.165284 0.151951,0.109608 -0.09392,-0.184821 -0.237041,-0.34019 -0.355562,-0.510285 0.05666,0.0583 0.133053,0.102482 0.169969,0.174916 0.03536,0.06938 -0.230541,-0.123139 -0.165079,-0.165321 0.093,-0.05993 0.215969,0.05162 0.326163,0.06152 0.04901,0.0044 -0.168863,-0.0045 -0.140651,-0.04485 0.659709,-0.942859 0.161294,0.530507 0.510544,-0.831037 -4.69e-4,0.619234 -0.04819,1.238034 -0.0064,1.857169 0.04123,0.65978 0.105741,1.322816 0.06693,1.984595 -0.047,0.801566 -0.259402,1.581993 -0.349329,2.378013 0,0 -1.990329,0 -1.990329,0 z"
             inkscape:connector-curvature="0"
             transform="matrix(0,-1,-1.0003957,0,432.00008,441.36222)" />
          <path
             style="fill:#0f0f0f;fill-opacity:1;fill-rule:nonzero;stroke:#e38a14;stroke-width:0.40000001;stroke-linecap:round;stroke-linejoin:round;stroke-miterlimit:4;stroke-opacity:1;stroke-dasharray:none"
             id="path3859"
             d="m 74.485158,46.782863 c 0.201671,0.897448 0.365449,1.540701 0.492442,2.455703 0.04339,0.312645 0.04295,0.630181 0.08279,0.943299 0.0181,0.142279 0.06677,0.279191 0.09074,0.4206 0.102935,0.607383 0.08249,0.616941 0.107662,1.247101 -0.02885,0.777124 -0.08044,1.553078 -0.05551,2.33087 0.0115,0.569833 0.0024,1.139851 0.0019,1.709762 -0.582136,-1.38353 0.30744,0.04721 0.303369,0.165861 -0.01405,0.409498 -0.255547,0.778614 -0.383321,1.167921 0,0 -1.401842,-1.412886 -1.401842,-1.412886 l 0,0 c -0.151652,1.355391 -0.293262,0.561036 0.08063,1.071805 0.04077,0.0557 -0.09933,-0.09588 -0.148991,-0.143825 -0.146725,-0.283596 -0.29345,-0.567192 -0.440175,-0.850788 5.34e-4,-0.548333 0.009,-1.09676 -8.93e-4,-1.645029 -0.02422,-0.777186 0.01217,-1.553459 0.05555,-2.329521 -0.01156,-0.546088 -0.1228,-1.026452 -0.192559,-1.566583 -0.03266,-0.252901 -0.02478,-0.510054 -0.05938,-0.762697 -0.118606,-0.86602 -0.314601,-1.665037 -0.502724,-2.520118 0,0 1.970325,-0.281475 1.970325,-0.281475 z"
             inkscape:connector-curvature="0"
             transform="matrix(0,-1,-1.0003957,0,432.00008,441.36222)" />
          <path
             style="fill:#0f0f0f;fill-opacity:1;fill-rule:nonzero;stroke:#e38a14;stroke-width:0.40000001;stroke-linecap:round;stroke-linejoin:round;stroke-miterlimit:4;stroke-opacity:1;stroke-dasharray:none"
             id="path3861"
             d="m 71.367501,46.354935 c 0.947775,0 1.895551,0 2.843327,0 0.573108,0 1.146216,0 1.719324,0 -0.163308,0.08716 0.718645,-0.08716 0.555337,0 -0.174809,0.0933 -0.375026,0.154355 -0.573147,0.157703 -0.07094,0.0012 0.194993,-0.205794 0.15046,-0.150559 -0.0495,0.06139 -0.206685,0.236331 -0.165428,0.169125 0.11416,-0.185965 0.257414,-0.352419 0.386121,-0.528628 0.637009,-0.390944 1.090192,-0.326147 1.761698,-0.22187 0,0 -0.31079,1.965914 -0.31079,1.965914 l 0,0 c -0.40796,-0.06599 -0.481439,-0.02244 -0.05175,-0.328495 0.03282,-0.08143 0.143889,-0.319421 0.09846,-0.244295 -0.1159,0.191645 -0.194321,0.404409 -0.310927,0.595624 -0.312906,0.513114 -0.998631,0.614137 -1.540025,0.575809 -0.573108,0 -1.146216,0 -1.719324,0 -0.947776,0 -1.895552,0 -2.843327,0 0,0 0,-1.990328 0,-1.990328 z"
             inkscape:connector-curvature="0"
             transform="matrix(0,-1,-1.0003957,0,432.00008,441.36222)" />
          <path
             style="fill:#0f0f0f;fill-opacity:1;fill-rule:nonzero;stroke:#e38a14;stroke-width:0.40000001;stroke-linecap:round;stroke-linejoin:round;stroke-miterlimit:4;stroke-opacity:1;stroke-dasharray:none"
             id="path3863"
             d="m 11.647638,64.127156 c 0.125758,1.62873 0.958339,3.119497 1.160161,4.727449 0.05256,0.418741 0.02199,0.844901 0.07074,1.264102 0.01832,0.21313 0.01828,0.428643 0.05496,0.639391 0.02672,0.153552 0.238488,0.767146 0.273622,0.930719 0.1105,0.514462 0.103251,0.971543 0.03078,1.485874 0.01015,-0.110651 -0.04785,-0.253114 0.03046,-0.331954 0.05224,-0.0526 0.07731,0.127428 0.103974,0.196599 0.224326,0.581886 0.198369,1.110977 0.132931,1.716635 -0.0278,0.457744 0.0038,0.324212 -0.161261,-0.378772 0,0 -1.414324,1.40039 -1.414324,1.40039 l 0,0 c -0.472527,-1.005422 -0.447908,-0.572608 -0.403111,-1.236491 0.0019,-0.01708 0.09648,-0.542679 0.08017,-0.583016 -0.353703,-0.874881 0.0636,0.650372 -0.334274,-1.0972 0.181212,-0.868136 -0.447179,-1.656819 -0.373687,-2.537372 -0.01953,-0.205918 -0.0515,-0.411034 -0.0586,-0.617755 -0.0049,-0.142898 0.03928,-0.286327 0.02271,-0.428346 -0.06445,-0.552332 -0.400207,-1.540087 -0.52307,-1.98401 -0.423699,-1.530889 -0.3488078,-1.307895 -0.6625132,-2.884768 0,0 1.9703252,-0.281475 1.9703252,-0.281475 z"
             inkscape:connector-curvature="0"
             transform="matrix(0,-1,-1.0003957,0,432.00008,441.36222)" />
          <path
             style="fill:#0f0f0f;fill-opacity:1;fill-rule:nonzero;stroke:#e38a14;stroke-width:0.40000001;stroke-linecap:round;stroke-linejoin:round;stroke-miterlimit:4;stroke-opacity:1;stroke-dasharray:none"
             id="path3865"
             d="m 15.353964,61.424566 c 1.020879,0.05909 1.981911,-0.193673 2.932962,0.247229 0.28912,0.134034 0.468711,0.381229 0.674871,0.608429 0.07963,0.09796 0.145841,0.208551 0.238875,0.293878 0.01356,0.01244 0.02462,-0.04959 0.03941,-0.03865 0.132571,0.09805 0.236601,0.230154 0.36288,0.336187 0.03543,0.02975 -0.05945,-0.07091 -0.08918,-0.106367 0.158872,0.171579 0.304465,0.356483 0.476614,0.514736 0.06414,0.05897 -0.09983,-0.142832 -0.149741,-0.214248 0.776773,0.70831 0.487935,1.620897 0.471051,2.529726 0.116536,0.881107 -0.179721,1.547687 -0.67768,2.254362 -0.223697,0.557706 -0.563712,0.620399 -0.981775,0.953868 -0.08742,0.06973 0.358623,-0.258624 0.288163,-0.171785 -0.117176,0.144415 -0.289084,0.234041 -0.433626,0.351062 -1.530957,0.422253 0.109103,0.03647 -1.160065,0.170278 -0.02272,0.0024 0.05273,0.04695 0.03375,0.05967 -0.08158,0.05464 -0.181802,0.07527 -0.276092,0.102659 -0.140642,0.04085 -0.344383,0.222314 -0.427435,0.101685 -0.0795,-0.115471 0.260869,-0.102776 0.391304,-0.154164 -0.484743,0.547157 -0.833747,0.392807 -1.407932,0.463329 -0.02373,0.0029 0.06309,0.04474 0.04287,0.05749 -0.09056,0.05713 -0.19978,0.07823 -0.303023,0.106631 -0.1446,0.03978 -0.292808,0.06504 -0.439212,0.09756 -0.191285,0.1927 -1.39866,-0.173399 -1.595926,-0.04776 -0.05031,0.03204 0.11673,0.02461 0.175095,0.03692 -0.438301,0.228145 -0.183218,0.116503 -0.778274,0.303427 0,0 -0.50476,-1.92526 -0.50476,-1.92526 l 0,0 c 0.186399,0.01194 0.05521,0.01712 0.366294,-0.144801 0.249482,-0.08687 0.491474,-0.199347 0.748447,-0.260603 0.380148,-0.09062 0.817537,0.07325 1.200326,0.08609 0.131489,-0.01833 1.332481,-0.367782 1.225769,-0.262744 -0.07447,0.07331 -0.168084,0.124206 -0.252264,0.186122 -0.01857,0.01366 0.03696,-0.02757 0.05545,-0.04136 0.520737,-0.352901 0.637197,-0.45539 1.164919,-0.598337 0.227907,-0.06173 0.458215,-0.117078 0.691462,-0.153805 0.0416,-0.0066 0.127924,-0.01645 0.123735,0.02545 -0.0058,0.05803 -0.09143,0.07243 -0.137142,0.108649 -0.248573,0.356521 -0.04369,0.04089 0.404426,-0.317229 0.0879,-0.07024 -0.291352,0.339823 -0.234642,0.242646 0.710561,-1.217599 -0.257639,0.885838 0.427995,-0.570011 0.04057,-0.04522 0.08936,-0.08423 0.121713,-0.135656 0.05623,-0.08937 0.05001,-0.231105 0.141831,-0.283235 0.05376,-0.03052 0.01587,0.239848 0.03695,0.181735 0.09282,-0.255911 -0.100426,-0.610621 -0.02035,-0.872438 0.0026,-0.0875 0.05593,-1.117367 0.09453,-1.120198 0.135618,-0.0099 0.08235,0.396323 0.296552,0.280138 -0.144691,-0.136575 -0.319513,-0.247048 -0.434073,-0.409726 -0.07379,-0.104784 0.424622,0.283082 0.307791,0.230402 -0.155799,-0.07025 -0.284548,-0.189382 -0.426822,-0.284074 0.0084,-0.0064 0.03341,-0.01252 0.02523,-0.01923 -0.738313,-0.605406 -0.329218,-0.14775 -0.752423,-0.668849 -0.01555,-0.03266 -0.06937,-0.08853 -0.03596,-0.102403 0.05078,-0.02108 0.21537,-0.03108 0.160719,-0.0371 -0.725722,-0.07993 -1.478097,0.08211 -2.203579,0 0,0 0,-1.990329 0,-1.990329 z"
             inkscape:connector-curvature="0"
             transform="matrix(0,-1,-1.0003957,0,432.00008,441.36222)" />
          <path
             style="fill:#0f0f0f;fill-opacity:1;fill-rule:nonzero;stroke:#e38a14;stroke-width:0.40000001;stroke-linecap:round;stroke-linejoin:round;stroke-miterlimit:4;stroke-opacity:1;stroke-dasharray:none"
             id="path3867"
             d="m 14.500966,63.414895 c -0.564564,0.08071 -1.14026,-0.05765 -1.705996,0 -0.02401,0.0024 -0.0099,0.07182 0.01418,0.07099 0.06903,-0.0024 0.225943,-0.13825 0.191927,-0.07813 -0.05317,0.09396 -0.305027,0.292748 -0.258295,0.195422 0.08418,-0.175311 0.251928,-0.296331 0.377892,-0.444497 -0.4249,0.739026 -0.617103,0.799443 -1.165544,1.301008 -0.05035,0.04605 0.115236,-0.0731 0.172854,-0.109649 -0.1453,0.125714 -0.2906,0.251427 -0.4359,0.377141 0,0 -1.104036,-1.656054 -1.104036,-1.656054 l 0,0 c -0.03423,0.05167 -0.06846,0.103338 -0.102697,0.155006 0.134625,-0.149098 0.26925,-0.298196 0.403874,-0.447294 -0.02701,0.04261 -0.117646,0.162513 -0.08103,0.127816 0.134591,-0.127531 0.234455,-0.290537 0.377394,-0.408636 0.05739,-0.04742 -0.16329,0.24806 -0.114735,0.191624 0.322561,-0.374914 0.455513,-0.723038 0.118916,-0.01369 0.149658,-0.242943 0.302545,-0.483927 0.448974,-0.72883 0.01193,-0.01996 -0.06394,0.06681 -0.04504,0.05326 0.162126,-0.116256 0.296358,-0.276233 0.476259,-0.362466 0.77007,-0.369121 1.615592,-0.16805 2.431006,-0.213344 0,0 0,1.990329 0,1.990329 z"
             inkscape:connector-curvature="0"
             transform="matrix(0,-1,-1.0003957,0,432.00008,441.36222)" />
          <path
             style="fill:#0f0f0f;fill-opacity:1;fill-rule:nonzero;stroke:#e38a14;stroke-width:0.40000001;stroke-linecap:round;stroke-linejoin:round;stroke-miterlimit:4;stroke-opacity:1;stroke-dasharray:none"
             id="path3869"
             d="m 23.87626,63.433626 c 0.04859,0.532389 0.105593,1.064077 0.145764,1.597167 0.03297,0.437578 0.03168,0.877585 0.07364,1.314393 0.07434,0.773963 0.136671,0.705543 0.233278,1.364551 0.07089,0.48356 0.04773,0.511726 0.03379,1.010501 -0.01241,0.169379 -0.05008,0.338791 -0.03723,0.508137 0.01834,0.241719 0.152343,0.460604 0.213899,0.695072 0.107874,0.410887 0.124831,0.761345 0.08414,1.18202 -0.08248,0.50972 -0.03385,1.029096 -0.02529,1.542766 2.3e-4,0.09856 8.8e-4,0.197115 6.88e-4,0.295673 -2.11e-4,0.108742 -0.0033,0.460227 -0.0039,0.570636 -5.4e-4,0.09347 0.04233,0.363151 -0.0012,0.280415 -0.494266,-0.940219 0.277931,-0.264537 -0.564463,-0.855257 0.616563,-0.218341 1.27072,-0.182355 1.910869,-0.139771 0.760439,0.01321 1.521296,-0.0042 2.281937,-0.0043 0.371937,-0.06488 0.783669,0.07507 1.154194,0.0028 0.08082,-0.01577 -0.311464,0.03989 -0.246775,-0.01105 0.23484,-0.184942 0.830925,-0.273479 1.101472,-0.329454 0.623968,-0.0382 1.228996,0.08592 1.852692,0.06503 0.469619,-0.01439 0.385168,-0.03394 -0.225867,0.128885 0,0 1.394113,1.420514 1.394113,1.420514 l 0,0 c -0.901373,0.476183 -0.508504,0.421643 -1.105591,0.439943 -0.526697,0.01575 -1.045859,-0.0097 -1.565893,-0.09497 -0.447489,0.04763 -0.753291,0.253014 -1.207836,0.371421 -0.358952,0.09351 -0.788807,-0.08577 -1.150428,-0.0028 -0.804689,1.4e-5 -1.60975,0.02167 -2.414127,-1.17e-4 -0.610923,-0.04064 -1.185001,-0.01551 -1.786522,0.144145 -0.328939,-0.09827 -0.719557,-0.07933 -0.986816,-0.294812 -0.607441,-0.489752 -0.40516,-1.306729 -0.426632,-1.95425 -0.0099,-0.614009 -0.05919,-1.233345 0.04302,-1.842571 0.138171,-0.283128 -0.558134,-1.788232 -0.276757,-2.20852 0.05953,-0.730601 -0.195491,-1.450251 -0.266057,-2.174271 -0.0403,-0.413536 -0.03761,-0.830258 -0.06853,-1.244601 -0.03812,-0.51083 -0.09238,-1.020328 -0.138568,-1.530493 0,0 1.974959,-0.24687 1.974959,-0.24687 z"
             inkscape:connector-curvature="0"
             transform="matrix(0,-1,-1.0003957,0,432.00008,441.36222)" />
          <path
             style="fill:#0f0f0f;fill-opacity:1;fill-rule:nonzero;stroke:#e38a14;stroke-width:0.40000001;stroke-linecap:round;stroke-linejoin:round;stroke-miterlimit:4;stroke-opacity:1;stroke-dasharray:none"
             id="path3871"
             d="m 36.252416,63.272729 c 0,0.781915 0,1.563829 0,2.345744 0,0.07108 -0.02339,0.280374 0,0.21325 0.09227,-0.26479 -0.205311,-0.83452 0.233264,0.360591 0.408952,2.244199 -0.127267,-0.875869 0.122152,1.132155 0.02432,0.195813 0.141836,0.370557 0.178183,0.564497 0.10879,0.580472 0.0823,0.664019 0.08838,1.265895 0.194165,0.553131 0.178953,1.148546 0.284143,1.715593 0.01445,0.07787 0.07221,0.141681 0.09694,0.216918 0.19425,0.590957 0.01359,0.315861 0.229658,0.603749 0.407311,0.189087 0.46793,0.715084 0.594077,1.078235 0.03486,0.100358 -0.01795,-0.228243 -0.0909,-0.305484 -0.449042,-0.475498 -0.809676,-0.299104 -0.460318,-0.436294 0.120237,-0.02192 0.239567,-0.08193 0.360712,-0.06576 1.036384,0.138309 0.619707,0.09946 1.188511,0.488257 0.0312,0.02132 -0.100317,-0.112229 -0.071,-0.08839 0.509312,0.414178 0.631619,0.660378 0.473905,0.37136 -0.0591,-0.04339 -0.141989,-0.06592 -0.177307,-0.130177 -0.01514,-0.02754 0.05858,-0.02406 0.08952,-0.02953 0.126878,-0.02241 0.509133,-0.05959 0.617858,-0.0665 0.118026,-0.0075 0.447905,-0.0852 0.35457,-0.01257 -0.146333,0.113871 -0.35656,0.101902 -0.53484,0.152853 0.295152,-0.3164 0.711278,-0.487133 1.055397,-0.743938 0.152077,-0.113491 0.79717,-0.566215 0.472976,-0.500703 -0.03456,0.07266 -0.09993,0.29834 -0.103674,0.21797 -0.01655,-0.355175 0.240633,-1.073869 0.404947,-1.345926 0.109532,-0.181354 0.262237,-0.332835 0.393356,-0.499252 0.03622,-0.06639 0.09119,-0.125598 0.108676,-0.199184 0.0053,-0.02249 -0.05,0.037 -0.06623,0.02054 -0.03551,-0.03603 -0.04209,-0.09274 -0.05351,-0.142031 -0.08167,-0.352317 -0.11206,-0.716246 -0.135473,-1.075851 0.03214,-0.560165 0.04292,-1.119059 0.03469,-1.680097 -0.0074,-0.667894 -0.0019,-1.335855 -0.0015,-2.003777 -2.85e-4,-0.586682 -7.11e-4,-1.173363 -6.3e-4,-1.760045 0,0 1.990328,2.75e-4 1.990328,2.75e-4 l 0,0 c -8.1e-5,0.586962 3.48e-4,1.173924 6.31e-4,1.760886 -3.7e-4,0.657869 -0.0058,1.315777 0.0013,1.973619 0.0078,0.533887 0.0124,1.068052 -0.03746,1.600378 0.03548,1.012303 0.440816,1.894637 -0.323025,2.792811 -0.05108,0.04837 -0.09618,0.103965 -0.153247,0.145108 -0.01411,0.01018 -0.04601,-0.01333 -0.05212,0.003 -0.0534,0.142501 -0.0727,0.29562 -0.114602,0.441917 -0.0031,0.01075 -0.0189,0.03828 -0.01973,0.02713 -0.0075,-0.100255 0.0063,-0.401892 -8.54e-4,-0.30161 -0.01871,0.262159 -0.02256,0.525167 -0.03383,0.78775 -0.113855,0.208596 -0.201875,0.433533 -0.341565,0.625787 -0.411587,0.566462 -1.098901,0.852399 -1.620295,1.265482 -0.269818,0.142123 -0.527653,0.309799 -0.809455,0.426367 -0.07209,0.02982 -0.1561,6.37e-4 -0.233975,0.0053 -0.640232,0.03795 -1.22786,0.209849 -1.84177,-0.118025 -1.0702,-0.881494 0.736313,0.35641 -0.596284,-0.434956 -0.141077,-0.08378 0.341008,-0.08022 0.49198,-0.01595 0.102473,0.04362 -0.219159,0.03978 -0.328739,0.05967 -0.921836,0.145416 -1.438172,0.06102 -1.799057,-0.875893 -0.02493,-0.06473 0.07058,0.126686 0.129991,0.162485 0.04496,0.02709 -0.05514,-0.08933 -0.0827,-0.133991 -0.144645,-0.167197 -0.28929,-0.334395 -0.433935,-0.501593 -0.0892,-0.184621 -0.191962,-0.363287 -0.267609,-0.553864 -0.369243,-0.930227 -0.346674,-1.95787 -0.578856,-2.921957 0.0031,-0.199733 0.02194,-0.530588 -0.01825,-0.742205 -0.100754,-0.530557 -0.286553,-1.044329 -0.26833,-1.590944 -0.126326,-0.503264 -0.03274,-0.167647 -0.335401,-0.989989 -0.01954,-0.06834 0,-0.142167 0,-0.21325 0,-0.16586 0,-0.331721 0,-0.497582 0,-0.616054 0,-1.232108 0,-1.848162 0,0 1.990329,0 1.990329,0 z"
             inkscape:connector-curvature="0"
             transform="matrix(0,-1,-1.0003957,0,432.00008,441.36222)" />
          <path
             style="fill:#0f0f0f;fill-opacity:1;fill-rule:nonzero;stroke:#e38a14;stroke-width:0.40000001;stroke-linecap:round;stroke-linejoin:round;stroke-miterlimit:4;stroke-opacity:1;stroke-dasharray:none"
             id="path3873"
             d="M 53.369034,65.12124 C 53.011543,64.883454 52.354322,64.409915 51.905,64.213742 c -0.02314,-0.0101 -0.09252,0.03379 -0.06729,0.03483 0.629149,0.02581 0.830383,-0.173537 0.09162,0.26777 -0.204055,0.03492 -0.408089,0.06997 -0.612166,0.104767 -0.109,0.01859 0.2419,-0.126813 0.326933,-0.05613 0.06833,0.05679 -0.1554,0.08694 -0.227653,0.138655 -0.129553,0.09272 -0.216691,0.23592 -0.343639,0.332175 -0.158962,0.120529 -0.333989,0.218257 -0.500984,0.327386 0.384315,-0.03462 -0.48191,0.30959 -0.483189,0.391359 -0.0017,0.109096 0.29725,-0.290674 0.270026,-0.185015 -0.05115,0.19853 -0.147337,0.382642 -0.221005,0.573963 -0.02442,0.04906 -0.06223,0.09349 -0.07327,0.147166 -0.0054,0.02632 0.03018,-0.06889 0.05509,-0.05884 0.0195,0.0079 0.04507,0.327279 0.04307,0.339751 -0.09813,0.614118 -0.134804,0.642848 -0.334809,1.097419 -0.0017,0.530723 0.08289,1.066503 0.08923,1.601965 -0.02339,0.664687 -0.02228,1.329767 -0.01682,1.99472 0.05451,0.164785 -0.05521,0.356764 0.0013,0.520983 0.0182,0.0529 -0.0085,-0.197951 0.03589,-0.163942 0.08959,0.0686 0.109186,0.198523 0.147764,0.304561 0.224593,0.617325 0.01984,0.341873 0.21065,0.57784 0.118913,0.376668 0.358043,0.694157 0.536424,1.042156 0.360046,0.702406 0.0511,0.226706 0.297547,0.590784 0.620203,1.198502 0.0047,0.162324 0.06559,0.174199 0.123396,0.02406 0.199384,0.167416 0.249781,0.282592 0.0429,0.09805 -0.145045,-0.158051 -0.225945,-0.228119 -0.03694,-0.03199 -0.153891,-0.03647 -0.1253,-0.0761 0.03967,-0.05499 0.134201,-0.0195 0.201301,-0.02925 0.625862,-0.09642 1.258036,-0.04702 1.887392,-0.03728 -0.194501,0.05118 -0.389001,0.102354 -0.583502,0.15353 0.04909,-0.04924 0.194319,-0.198915 0.147273,-0.147719 -0.05231,0.05692 -0.203305,0.230905 -0.163063,0.164902 0.37242,-0.610825 0.310286,-0.48657 0.85879,-0.958717 -0.367261,0.204585 -0.03349,0.02857 0.300021,-0.265147 0.0575,-0.05064 -0.171912,0.196259 -0.194195,0.122956 -0.08686,-0.285735 0.7261,-0.478935 0.674977,-0.724063 0.04352,-0.0591 0.101583,-0.109867 0.130545,-0.177304 0.01297,-0.03021 -0.08108,0.0048 -0.09548,-0.02473 -0.02233,-0.04582 -0.02431,-0.09907 -0.03336,-0.149228 -0.05133,-0.284599 -0.04724,-0.317235 -0.0764,-0.624817 -0.582192,0.552076 0.789907,0.515593 0.59561,0.778176 -0.11043,0.149239 -0.363853,-0.07476 -0.543664,-0.120968 -0.07246,-0.01862 -0.153947,-0.02624 -0.212137,-0.07326 -0.628715,-0.507957 -0.694893,-0.910758 -0.627025,-0.557373 -0.0974,-0.160308 -0.187964,-0.32498 -0.29221,-0.480926 -0.05127,-0.0767 0.07079,0.174596 0.132989,0.242742 0.06831,0.07485 0.191894,0.0911 0.248449,0.175189 0.0083,0.01235 -0.7632,0.115809 -0.76835,0.116334 -0.553162,0.102847 -1.065467,-0.236404 -1.413223,-0.648104 0,0 1.522002,-1.282543 1.522002,-1.282543 l 0,0 c 0.504653,0.600674 -1.073394,-0.200065 -0.30414,-0.05007 0.661603,-0.06239 1.298161,-0.259944 1.929169,0.111907 0.1925,0.11344 0.310067,0.322114 0.455987,0.491326 0.03054,0.03542 -0.07249,-0.0591 -0.10874,-0.08865 0.100125,0.11448 0.424362,0.255358 0.300377,0.343439 -0.134738,0.09572 -0.298102,-0.149262 -0.425507,-0.254545 -0.05488,-0.04535 0.160282,0.01196 0.20187,0.06974 0.02748,0.03818 -0.184837,0.001 -0.140215,0.01592 1.324999,0.441921 0.753488,-0.117161 1.431358,1.036433 0.07432,0.952166 0.311975,1.672491 -0.432193,2.486849 -0.114927,0.11339 -0.214082,0.245388 -0.344781,0.340169 -0.02802,0.02032 0.0408,-0.12756 0.01698,-0.10245 -0.07519,0.07923 -0.110332,0.189654 -0.179757,0.273983 -1.292627,1.570131 0.49032,-0.699252 -0.726962,0.726913 0.05472,-0.07811 0.218342,-0.312844 0.164172,-0.234344 -0.08525,0.123542 -0.140284,0.275608 -0.257417,0.36947 -0.06713,0.05379 0.140001,-0.313385 0.09553,-0.239745 -0.553465,0.91651 -0.171861,0.626475 -1.315608,1.17479 -0.543621,-0.0089 -1.090024,-0.05761 -1.630661,0.02478 -0.360912,0.03565 -0.701328,0.100037 -1.063561,-0.03383 -0.409054,-0.151166 -0.912393,-0.633996 -1.03901,-1.052379 -0.32463,-0.577723 -0.62155,-1.173435 -0.908092,-1.769976 -0.07211,-0.164857 -0.144216,-0.329715 -0.216324,-0.494573 3.65e-4,-0.03088 0.01158,-0.0636 0.0011,-0.09265 -0.179165,-0.496327 -0.474258,-0.962654 -0.384243,-1.513561 -0.0055,-0.666078 -0.0079,-1.332401 0.01679,-1.998176 0.0017,-0.809665 -0.231217,-1.638543 0.08192,-2.422381 0.03794,-0.08444 0.03875,-0.199154 0.113814,-0.253332 0.03839,-0.02771 0.05126,0.177211 0.0568,0.130189 0.01431,-0.121395 -0.02566,-0.243366 -0.02906,-0.365555 -0.01143,-0.411266 0.01925,-0.822768 0.240682,-1.183225 -0.0046,0.06489 -0.03102,0.257419 -0.01386,0.194668 0.06357,-0.232509 0.05177,-0.4882 0.153817,-0.706575 0.103425,-0.221332 0.410276,-0.616794 0.693811,-0.740046 0.03307,-0.01438 -0.09176,0.110409 -0.06439,0.08693 0.139331,-0.119542 0.267959,-0.251023 0.401938,-0.376534 0.284881,-0.09393 0.569443,-0.462223 0.830275,-0.651035 0.235185,-0.170247 0.520238,-0.260475 0.792341,-0.361749 0.03282,-0.01222 -0.05269,0.04615 -0.07904,0.06923 -0.03214,0.03781 -0.136076,0.143229 -0.09641,0.113422 0.503351,-0.378197 0.31423,-0.490095 1.21873,-0.520942 0.736114,-0.0251 1.580232,0.795405 2.165002,1.117657 0,0 -1.024015,1.706693 -1.024015,1.706693 z"
             inkscape:connector-curvature="0"
             transform="matrix(0,-1,-1.0003957,0,432.00008,441.36222)" />
          <path
             style="fill:#0f0f0f;fill-opacity:1;fill-rule:nonzero;stroke:#e38a14;stroke-width:0.40000001;stroke-linecap:round;stroke-linejoin:round;stroke-miterlimit:4;stroke-opacity:1;stroke-dasharray:none"
             id="path3875"
             d="m 60.989358,65.54739 c 0.06583,0.70816 -0.05761,1.424002 0,2.132495 0.03145,0.386806 0.193487,0.75247 0.260635,1.134699 0.119518,0.680333 0.08778,0.732026 0.09478,1.459837 -0.08598,1.065843 -0.09428,2.131626 -0.07131,3.199559 0.0103,0.799926 -8.9e-4,1.599935 -8.81e-4,2.399906 7.27e-4,0.333492 3.57e-4,0.169235 0.0011,0.492772 0,0 -1.990323,0.0046 -1.990323,0.0046 l 0,0 c -7.56e-4,-0.325282 -3.83e-4,-0.159484 -0.0011,-0.497395 9e-6,-0.785707 0.01076,-1.571448 0.0013,-2.357113 -0.02327,-1.082001 -0.01973,-2.162693 0.07085,-3.242352 0.0065,-0.466836 0.03178,-0.58174 -0.04738,-1.028074 -0.103772,-0.585071 -0.255529,-0.94839 -0.30803,-1.566462 -0.02808,-0.330531 0,-0.663443 0,-0.995164 0,-0.37911 0,-0.758221 0,-1.137331 0,0 1.990328,0 1.990328,0 z"
             inkscape:connector-curvature="0"
             transform="matrix(0,-1,-1.0003957,0,432.00008,441.36222)" />
          <path
             style="fill:#0f0f0f;fill-opacity:1;fill-rule:nonzero;stroke:#e38a14;stroke-width:0.40000001;stroke-linecap:round;stroke-linejoin:round;stroke-miterlimit:4;stroke-opacity:1;stroke-dasharray:none"
             id="path3877"
             d="m 65.404199,74.200805 c -0.299972,-1.980848 -0.212544,-3.969536 -0.131217,-5.958142 -0.0025,-0.611246 -0.02592,-1.221619 -0.02082,-1.832937 -0.02915,-1.093217 0.188534,-1.538895 1.404933,-1.719586 0.189691,-0.02818 0.393373,0.01089 0.568324,0.08943 0.26688,0.119811 0.484506,0.327982 0.726759,0.491973 0.234563,0.196526 0.40954,0.472869 0.653705,0.65743 0.0173,0.01308 0.04809,-0.03312 0.06276,-0.01716 0.598403,0.651014 0.501378,0.538885 0.779046,1.17118 0.06326,0.14589 0.41638,0.972998 0.48478,1.073405 0.06909,0.101413 0.194604,0.150285 0.283238,0.235148 0.455013,0.435652 0.840544,0.871794 1.207681,1.382312 0.08527,0.132092 0.195123,0.251234 0.2558,0.396275 0.149215,0.356674 0.238186,0.73608 0.336527,1.109992 0.118168,0.449303 0.170077,0.870451 0.121899,0.826415 -0.161164,-0.147308 -0.152519,-0.409184 -0.228778,-0.613776 0.0559,0.05454 0.237856,0.197908 0.167693,0.163613 -0.08324,-0.04069 -0.286395,-0.234031 -0.208651,-0.183634 0.547674,0.355027 0.793177,0.562729 1.151505,1.148946 0.123202,0.492942 0.307193,0.722319 0.668113,1.027413 0.09812,0.08294 0.210507,0.151027 0.295849,0.247072 0.139845,0.157384 0.250121,0.338741 0.375181,0.508111 -0.12351,-0.29248 0.2574,0.236539 0.276753,0.39657 0.01938,0.160253 -0.438641,-0.452454 -0.291076,-0.387021 0.631526,0.280029 0.748644,1.369218 0.208596,1.826258 -0.360477,0.30507 -0.944431,0.0098 -1.416646,0.01475 -0.163159,-0.268399 -0.375697,-0.512429 -0.489478,-0.805197 -0.208351,-0.536105 0.01239,-1.641341 0.0202,-2.262972 -0.02529,-0.908136 -0.02483,-1.816336 -0.02064,-2.724715 0.0035,-0.798334 6.15e-4,-1.596677 4.56e-4,-2.395015 -0.06543,-0.299439 0.05252,-0.614654 2.6e-4,-0.915218 -0.0091,-0.05229 -0.07045,-0.08111 -0.09332,-0.129006 -0.05096,-0.106733 -0.09131,-0.218587 -0.12655,-0.331489 -0.141891,-0.454573 -0.108106,-0.413966 -0.135488,-0.905122 0.04935,-0.360438 0.09653,-0.716283 0.08884,-1.080311 -0.0019,-0.08795 -0.04878,-0.341965 -0.0084,-0.26379 0.08457,0.163851 0.09831,0.355436 0.147458,0.533154 0,0 1.392404,-1.422189 1.392404,-1.422189 l 0,0 c 0.149853,0.276309 0.333314,0.536883 0.449559,0.828928 0.09721,0.24422 -0.02928,1.110065 -0.07951,1.403906 -0.09455,0.08448 0.110909,0.442305 0.164542,0.621615 0.174153,0.582242 0.232198,1.059838 0.190553,1.659125 1.59e-4,0.801529 0.0031,1.603061 -4.78e-4,2.404584 -0.0042,0.915643 -0.0033,1.831026 0.02042,2.746448 -0.0072,0.405367 -0.02729,0.80267 -0.07406,1.205314 -0.02682,0.230975 -0.03496,0.384842 -0.05367,0.380699 -0.112438,-0.02489 -0.18784,-0.133282 -0.281761,-0.199923 -0.36684,0.07584 -0.866449,-0.06494 -1.100521,0.227521 -0.241451,0.301682 -0.07474,0.778356 -0.0093,1.159186 0.01613,0.09392 0.297921,0.233702 0.236124,0.161162 -0.166134,-0.195017 -0.364329,-0.360449 -0.553279,-0.533453 -0.0099,-0.0091 0.770946,0.821939 -0.149017,-0.157779 0.132936,-0.16301 0.03552,-0.01658 -0.329015,-0.344162 -0.426713,-0.383455 -0.926679,-0.86212 -1.021275,-1.456456 -0.05416,-0.08861 -0.189871,-0.165656 -0.162472,-0.265825 0.02102,-0.07684 0.2609,0.182496 0.198971,0.132386 -0.119993,-0.09709 -0.297019,-0.139608 -0.373554,-0.273651 -0.05097,-0.08926 0.37295,0.171062 0.284797,0.118204 -0.740128,-0.443791 -0.432319,-0.127538 -0.656273,-0.367658 -0.154562,-0.271791 -0.323851,-0.53572 -0.463686,-0.815374 -0.01331,-0.02662 0.01529,-0.05895 0.01172,-0.0885 -0.01028,-0.08526 -0.03097,-0.169111 -0.05282,-0.252166 -0.04189,-0.159313 -0.110701,-0.312046 -0.138268,-0.474453 -0.0072,-0.04258 0.05266,-0.08417 0.03664,-0.124279 -0.05193,-0.130073 -0.151563,-0.235569 -0.227344,-0.353353 -0.434301,-0.717191 -1.179195,-1.193899 -1.650111,-1.897147 -0.127831,-0.190897 -0.196531,-0.415364 -0.291058,-0.624761 -0.07558,-0.167431 -0.146148,-0.337081 -0.219223,-0.505621 -0.03983,-0.09652 -0.174711,-0.200934 -0.119506,-0.289568 0.04563,-0.07325 0.308362,0.148415 0.241103,0.09434 -0.165561,-0.133108 -0.371326,-0.208874 -0.541583,-0.335921 -0.248151,-0.185172 -0.423874,-0.467689 -0.661889,-0.665661 0.387396,0.0786 0.281613,0.156837 0.583337,-0.30062 0.09881,-0.149807 0.03919,-0.366306 0.125824,-0.523465 0.0016,-0.0029 -0.0033,0.573309 -0.0034,0.579993 -0.0055,0.633302 0.02347,1.265625 0.01917,1.898929 -0.07956,1.878525 -0.167887,3.756847 0.117574,5.628414 0,0 -1.97496,0.24687 -1.97496,0.24687 z"
             inkscape:connector-curvature="0"
             transform="matrix(0,-1,-1.0003957,0,432.00008,441.36222)" />
        </g>
      </g>
    </g>
  </g>
</svg>
