<?xml version="1.0" encoding="UTF-8" standalone="no"?>
<!-- Created with Inkscape (http://www.inkscape.org/) -->

<svg
   xmlns:dc="http://purl.org/dc/elements/1.1/"
   xmlns:cc="http://creativecommons.org/ns#"
   xmlns:rdf="http://www.w3.org/1999/02/22-rdf-syntax-ns#"
   xmlns:svg="http://www.w3.org/2000/svg"
   xmlns="http://www.w3.org/2000/svg"
   xmlns:sodipodi="http://sodipodi.sourceforge.net/DTD/sodipodi-0.dtd"
   xmlns:inkscape="http://www.inkscape.org/namespaces/inkscape"
   width="90"
   height="90"
   id="svg4874"
   version="1.1"
   inkscape:version="0.91 r13725"
   viewBox="0 0 90 90.000001"
   sodipodi:docname="app.svg">
  <defs
     id="defs4876" />
  <sodipodi:namedview
     id="base"
     pagecolor="#ffffff"
     bordercolor="#666666"
     borderopacity="1.0"
     inkscape:pageopacity="0.0"
     inkscape:pageshadow="2"
     inkscape:zoom="4.2717821"
     inkscape:cx="10.869618"
     inkscape:cy="-4.1820078"
     inkscape:document-units="px"
     inkscape:current-layer="g4780"
     showgrid="true"
     showborder="true"
     fit-margin-top="0"
     fit-margin-left="0"
     fit-margin-right="0"
     fit-margin-bottom="0"
     inkscape:snap-bbox="true"
     inkscape:bbox-paths="true"
     inkscape:bbox-nodes="true"
     inkscape:snap-bbox-edge-midpoints="true"
     inkscape:snap-bbox-midpoints="true"
     inkscape:object-paths="true"
     inkscape:snap-intersection-paths="true"
     inkscape:object-nodes="true"
     inkscape:snap-smooth-nodes="true"
     inkscape:snap-midpoints="true"
     inkscape:snap-object-midpoints="true"
     inkscape:snap-center="true"
     showguides="false"
     inkscape:guide-bbox="true"
     inkscape:snap-global="true"
     inkscape:window-width="1391"
     inkscape:window-height="915"
     inkscape:window-x="65"
     inkscape:window-y="24"
     inkscape:window-maximized="1">
    <inkscape:grid
       type="xygrid"
       id="grid5451"
       empspacing="6" />
    <sodipodi:guide
       orientation="1,0"
       position="6,77"
       id="guide4063" />
    <sodipodi:guide
       orientation="1,0"
       position="3,78"
       id="guide4065" />
    <sodipodi:guide
       orientation="0,1"
       position="55,84"
       id="guide4067" />
    <sodipodi:guide
       orientation="0,1"
       position="53,87"
       id="guide4069" />
    <sodipodi:guide
       orientation="0,1"
       position="20,3"
       id="guide4071" />
    <sodipodi:guide
       orientation="0,1"
       position="20,6"
       id="guide4073" />
    <sodipodi:guide
       orientation="1,0"
       position="87,7"
       id="guide4075" />
    <sodipodi:guide
       orientation="1,0"
       position="84,7"
       id="guide4077" />
    <sodipodi:guide
       orientation="0,1"
       position="58,81"
       id="guide4074" />
    <sodipodi:guide
       orientation="1,0"
       position="9,74"
       id="guide4076" />
    <sodipodi:guide
       orientation="0,1"
       position="21,9"
       id="guide4078" />
    <sodipodi:guide
       orientation="1,0"
       position="81,4"
       id="guide4080" />
  </sodipodi:namedview>
  <metadata
     id="metadata4879">
    <rdf:RDF>
      <cc:Work
         rdf:about="">
        <dc:format>image/svg+xml</dc:format>
        <dc:type
           rdf:resource="http://purl.org/dc/dcmitype/StillImage" />
        <dc:title />
      </cc:Work>
    </rdf:RDF>
  </metadata>
  <g
     inkscape:label="Layer 1"
     inkscape:groupmode="layer"
     id="layer1"
     transform="translate(67.857146,-84.50504)">
    <g
       transform="matrix(0,-1,-1,0,373.50506,516.50504)"
       id="g4845"
       style="display:inline">
      <g
         inkscape:export-ydpi="90"
         inkscape:export-xdpi="90"
         inkscape:export-filename="next01.png"
         transform="matrix(-0.9996045,0,0,1,575.94296,-611.00001)"
         id="g4778"
         inkscape:label="Layer 1">
        <g
           transform="matrix(-1,0,0,1,575.99999,611)"
           id="g4780"
           style="display:inline">
          <rect
             transform="scale(-1,1)"
             y="351.36221"
             x="-432"
             height="90"
             width="90"
             id="rect4120"
             style="color:#000000;fill:none;stroke:none;stroke-width:4;marker:none;visibility:visible;display:inline;overflow:visible;enable-background:accumulate" />
          <path
             sodipodi:nodetypes="cccccccccccccccccc"
             inkscape:connector-curvature="0"
             id="path4122"
             d="m 382.94991,365.19669 c -3.07887,2.13061 -5.74697,4.44959 -8.0274,6.66029 l 0,-0.008 c -3.99967,4.04832 -8.77508,9.49192 -8.77508,9.49192 0,0 4.69091,5.76968 8.76906,9.5265 l 0,-0.008 c 2.27742,2.20795 4.94139,4.52544 8.01536,6.65427 -0.0363,0.0951 -0.0668,0.19244 -0.10377,0.28723 -1.94472,5.12874 -4.53071,9.65753 -7.75811,13.58679 l -21.13197,0 0,-21.25757 0,-0.0271 0,-17.48606 0,-21.28464 21.13197,0 c 3.2274,3.92924 5.81339,8.43624 7.75811,13.52358 0.0434,0.1122 0.0793,0.22731 0.12186,0.33987 z"
             style="font-size:15.00296783px;font-style:normal;font-variant:normal;font-weight:normal;font-stretch:normal;text-align:center;line-height:125%;letter-spacing:0px;word-spacing:0px;writing-mode:lr-tb;text-anchor:middle;fill:#808080;fill-opacity:1;stroke:none;font-family:Ubuntu;-inkscape-font-specification:Ubuntu" />
          <path
             style="font-size:121.62958527px;font-style:normal;font-variant:normal;font-weight:normal;font-stretch:normal;text-align:center;line-height:125%;letter-spacing:0px;word-spacing:0px;writing-mode:lr-tb;text-anchor:middle;fill:#808080;fill-opacity:1;stroke:none;font-family:Ubuntu;-inkscape-font-specification:Ubuntu"
             d="m 419.99538,381.36243 c -4.2e-4,4.75381 -1.99124,9.35043 -5.50399,12.71154 -3.51328,3.36163 -8.31664,5.26477 -13.28361,5.26477 l -0.0151,0 c -1.91234,-0.008 -4.11305,-0.18068 -6.34532,-1.08874 -5.81958,-2.36734 -10.33868,-5.91672 -13.83146,-9.15808 l 0,0.007 c -1.01511,-0.89511 -2.04594,-1.91539 -3.03721,-2.93238 l 0,-9.48741 c 0.99968,-1.02979 2.03673,-2.08206 3.04323,-3.0572 l 0,0.008 c 3.49197,-3.24035 8.008,-6.78859 13.82544,-9.15507 2.23203,-0.90797 4.43243,-1.08164 6.34532,-1.08875 l 0.0151,0 c 4.96783,0 9.77075,1.90505 13.28361,5.26628 3.51231,3.3607 5.50357,7.95622 5.50399,12.71003 l 0,0.001 z"
             id="path4124"
             inkscape:connector-curvature="0" />
          <path
             style="font-size:15.00296783px;font-style:normal;font-variant:normal;font-weight:normal;font-stretch:normal;text-align:center;line-height:125%;letter-spacing:0px;word-spacing:0px;writing-mode:lr-tb;text-anchor:middle;fill:#808080;fill-opacity:1;stroke:none;font-family:Ubuntu;-inkscape-font-specification:Ubuntu"
             d="m 388.25039,430.34074 c -0.0289,0.0758 -0.0527,0.15303 -0.0821,0.22851 -1.54846,4.08363 -3.60849,7.68784 -6.17823,10.81641 l -15.04696,0 0,-16.92578 0,-0.0215 0,-7.07618 8.03442,0 c -0.003,0.003 -0.0918,0.10156 -0.0918,0.10156 0,0 3.73612,4.59271 6.98323,7.58399 l 0,-0.006 c 1.81334,1.75802 3.93385,3.6038 6.38143,5.29882 z"
             id="path4115"
             inkscape:connector-curvature="0"
             sodipodi:nodetypes="cccccccccccc" />
          <path
             inkscape:connector-curvature="0"
             id="path4117"
             d="m 417.76167,417.481 c -3.3e-4,3.7851 -1.60092,7.44505 -4.4251,10.12125 -2.82464,2.67661 -6.68644,4.19195 -10.6798,4.19195 l -0.012,0 c -1.53749,-0.007 -3.30682,-0.14386 -5.10151,-0.86688 -4.67884,-1.88494 -8.31211,-4.71104 -11.12027,-7.2919 l 0,0.006 c -0.81613,-0.71271 -1.64489,-1.52508 -2.44186,-2.33484 l 0,-7.55411 c 0.80374,-0.81995 1.6375,-1.6578 2.44671,-2.43423 l 0,0.007 c 2.80749,-2.58005 6.43827,-5.40525 11.11542,-7.28949 1.7945,-0.72295 3.56358,-0.86123 5.10151,-0.8669 l 0.012,0 c 3.99405,0 7.85552,1.51685 10.6798,4.19315 2.82382,2.67587 4.42477,6.33494 4.4251,10.12005 l 0,8e-4 z"
             style="font-size:121.62958527px;font-style:normal;font-variant:normal;font-weight:normal;font-stretch:normal;text-align:center;line-height:125%;letter-spacing:0px;word-spacing:0px;writing-mode:lr-tb;text-anchor:middle;fill:#808080;fill-opacity:1;stroke:none;font-family:Ubuntu;-inkscape-font-specification:Ubuntu" />
          <path
             style="fill:#0f0f0f;fill-opacity:1;fill-rule:nonzero;stroke:#e38a14;stroke-width:0.40007913;stroke-linecap:round;stroke-linejoin:round;stroke-miterlimit:4;stroke-dasharray:none;stroke-opacity:1"
             id="path3819"
             d="m 371.15885,429.76816 c -1.63556,0 -3.27112,0 -4.90668,0 -0.93926,0 -1.87852,0 -2.81778,0 -0.62148,0 -1.24297,0 -1.86445,0 -0.15704,0 -0.31588,0.0237 -0.47111,0 -0.0672,-0.0103 -0.11879,-0.0661 -0.17818,-0.0991 -0.50374,-0.24845 -1.02303,-0.27895 -1.56994,-0.20988 -0.0831,0.0105 -0.24139,0.11713 -0.24913,0.0337 -0.008,-0.0838 0.16506,-0.0335 0.24759,-0.0502 -0.31671,-0.15291 -0.19239,-0.0606 -0.39272,-0.24811 0,0 -1.19568,1.5915 -1.19568,1.5915 l 0,0 c 0.56221,0.39299 0.29292,0.24229 0.79131,0.4805 0.27244,0.0662 0.53995,0.15763 0.81731,0.19857 0.0915,0.0135 0.18318,-0.0249 0.27477,-0.0374 0.0306,-0.008 0.0651,-0.008 0.0919,-0.0247 0.009,-0.005 -0.0152,-0.0304 -0.005,-0.0301 0.15739,0.006 0.5625,0.18234 0.61042,0.20026 0.25246,0.0617 0.50038,0.14646 0.75738,0.18521 0.15528,0.0234 0.31407,0 0.47111,0 0.62148,0 1.24297,0 1.86445,0 0.93926,0 1.87852,0 2.81778,0 1.63556,0 3.27112,0 4.90668,0 0,0 0,-1.99033 0,-1.99033 z"
             inkscape:connector-curvature="0" />
          <path
             style="fill:#0f0f0f;fill-opacity:1;fill-rule:nonzero;stroke:#e38a14;stroke-width:0.40007913;stroke-linecap:round;stroke-linejoin:round;stroke-miterlimit:4;stroke-dasharray:none;stroke-opacity:1"
             id="path3821"
             d="m 372.26691,435.55401 c 0.39877,-0.66455 0.6893,-1.3653 0.79164,-2.12525 -0.047,-0.59831 -0.0677,-1.19334 -0.0533,-1.79319 0.011,-0.57553 0.002,-1.15119 0.002,-1.72677 -0.0629,-0.38217 0.0862,-1.07098 9.7e-4,-1.42024 -0.0609,-0.24942 -0.16501,-0.48626 -0.24752,-0.72939 -0.0474,-0.0948 -0.10477,-0.18519 -0.14224,-0.28431 -0.002,-0.006 0.11825,-0.87365 0.12103,-0.91442 0.004,-0.63302 0.0571,-0.36153 -0.46243,-1.21328 -0.036,-0.059 -0.19415,-0.19629 -0.15111,-0.14217 0.22141,0.27835 0.22676,0.29894 0.2686,0.0239 0.11936,-0.63531 0.026,-0.79131 -0.18379,-1.46804 0,0 -1.78091,0.8901 -1.78091,0.8901 l 0,0 c 0.11519,-0.6571 -0.0203,0.33321 -0.0127,0.34458 -0.036,0.35217 -0.1,0.6997 0.0125,1.05312 0.0725,0.22788 0.90436,1.4782 0.32067,0.16537 -0.0301,-0.0677 0.001,0.14815 0.002,0.22223 -0.041,0.76025 -0.22659,1.52134 0.22772,2.21337 0.0124,-0.0535 0.0213,-0.21317 0.0371,-0.16058 0.0273,0.0906 7e-5,0.18923 7e-5,0.28385 0,0.37928 -6.7e-4,0.75857 -10e-4,1.13785 5.6e-4,0.55914 0.009,1.11836 -10e-4,1.67745 -0.0134,0.56685 -0.0223,1.13566 0.0578,1.69877 0.10122,0.0164 -0.0724,0.23621 -0.16836,0.50483 -0.009,0.0254 0.0145,0.0557 0.004,0.0806 -0.16881,0.4095 -0.45277,0.76664 -0.57315,1.19885 0,0 1.93166,0.48272 1.93166,0.48272 z"
             inkscape:connector-curvature="0" />
          <path
             style="fill:#0f0f0f;fill-opacity:1;fill-rule:nonzero;stroke:#e38a14;stroke-width:0.40007913;stroke-linecap:round;stroke-linejoin:round;stroke-miterlimit:4;stroke-dasharray:none;stroke-opacity:1"
             id="path3823"
             d="m 370.71074,418.83489 c -0.53685,0.25176 -1.13608,0.31734 -1.68685,0.52601 -0.59,0.22354 -0.63855,0.38641 -1.22138,0.23814 -0.51781,-0.14739 -0.80973,-0.0488 -1.375,0.10857 -0.2548,0.0709 -0.48878,0.24071 -0.76207,0.1869 -0.53758,-0.13739 -1.10032,-0.0965 -1.64909,-0.0783 0.32573,0.21152 -1.20763,-0.20468 -0.81664,0.003 1.34965,0.71673 0.0339,-0.39342 0.58495,0.17997 -0.40184,-0.71045 -0.91592,-0.91802 -1.56891,-1.31277 -0.0292,-0.0176 0.12492,0.0424 0.1007,0.0184 -0.092,-0.0912 -0.20911,-0.15307 -0.31367,-0.2296 0.10564,0.10182 0.17217,0.32961 0.31691,0.30545 0.12198,-0.0204 -0.0892,-0.23568 -0.16902,-0.33013 -0.38795,-0.4593 -0.57622,-0.55915 -1.02929,-0.8779 -0.0746,-0.0525 0.15475,0.0967 0.23212,0.145 -1.5357,-1.04364 1.17271,0.66482 -0.72258,-0.70189 -0.22761,-0.16413 -0.65233,-0.14494 -0.69,-0.45637 -0.49823,-0.4588 -0.44806,-0.18993 -0.35368,-0.78098 -0.49906,-1.4742 -0.0256,-0.3835 -0.45509,-1.02716 -0.0333,-0.0499 0.1398,0.18966 0.12168,0.13251 -0.0498,-0.157 -0.15347,-0.29178 -0.21994,-0.44247 -0.0739,-0.16765 -0.0616,-0.15151 -0.0469,-0.29331 0.008,-0.0408 0.0167,-0.0814 0.0233,-0.12236 0.005,-0.0323 0.079,-0.5357 0.0624,-0.51243 -0.10532,0.14775 -0.0737,0.36774 -0.18291,0.51265 -0.0933,0.12377 -0.29803,0.12692 -0.39197,0.25019 -0.0344,0.0451 0.10826,0.0341 0.16238,0.0511 0,0 0.40302,-1.94913 0.40302,-1.94913 l 0,0 c -0.53396,-0.0926 -0.93825,-0.23683 -1.48263,0.14827 -0.6032,0.4267 -0.54679,1.25117 -0.56827,1.87716 0.0313,0.17838 0.0462,0.36043 0.094,0.53513 0.0667,0.24396 0.8076,1.93472 0.49785,0.6602 -0.0628,0.94757 0.10027,1.54607 0.76336,2.23192 0.0116,0.012 7e-4,-0.0334 10e-4,-0.0501 0.34638,0.3957 0.35515,0.47624 0.82072,0.73166 0.0732,0.0402 0.18946,-0.0296 0.24881,0.0292 0.15207,0.15045 0.26973,0.33222 0.41117,0.49269 0.0411,0.0466 -0.0731,-0.10045 -0.10969,-0.15067 0.15071,0.14978 0.30141,0.29955 0.45212,0.44932 -0.0222,-0.0327 -0.0965,-0.12371 -0.0665,-0.098 0.97139,0.83112 0.13919,0.27823 0.26406,0.14405 0.21158,-0.22737 0.0506,2.6073 0.52992,0.76629 -0.0777,-0.22439 0.007,0.0381 0.44434,0.34024 0.044,0.0304 0.10832,0.0182 0.15357,0.0467 0.13193,0.0832 0.66712,0.65621 0.37791,0.0947 0.1018,0.19898 0.19035,0.40531 0.3054,0.59693 0.0333,0.0555 0.0806,0.10547 0.13623,0.13863 0.859,0.5117 0.89326,0.47567 1.74572,0.44329 0.54794,-0.0182 1.08541,-0.026 1.62758,0.0789 0.51563,-0.0331 0.48989,-0.002 0.98733,-0.15337 0.13968,-0.0426 0.29073,-0.0695 0.41061,-0.15286 0.0298,-0.0208 -0.0882,-0.0624 -0.0632,-0.0888 0.0999,-0.10576 0.39082,0.27553 0.43045,0.073 0.66469,0.0919 1.20448,0.0752 1.85334,-0.14484 0.0969,-0.0328 0.1716,-0.11469 0.26751,-0.15015 0.4741,-0.17531 0.98188,-0.25107 1.44205,-0.46916 0,0 -0.32734,-1.96324 -0.32734,-1.96324 z"
             inkscape:connector-curvature="0" />
          <path
             style="fill:#0f0f0f;fill-opacity:1;fill-rule:nonzero;stroke:#e38a14;stroke-width:0.40007913;stroke-linecap:round;stroke-linejoin:round;stroke-miterlimit:4;stroke-dasharray:none;stroke-opacity:1"
             id="path3825"
             d="m 365.61217,418.53702 c -0.0453,-0.81542 0.15584,-1.66094 -0.21343,-2.43101 -0.0863,-0.1799 -0.2463,-0.31413 -0.36261,-0.47626 -0.0136,-0.0189 0.0425,0.0245 0.0533,0.045 0.0636,0.12096 0.11147,0.24954 0.16721,0.37431 0.12073,-0.5997 0.0902,-1.21515 0.0706,-1.82249 0,0 -1.99008,0.0642 -1.99008,0.0642 l 0,0 c 0.019,0.58868 0.0308,1.17471 -0.0716,1.75832 0.0322,0.1405 0.0854,0.83119 0.3627,0.98802 0.0601,0.034 -0.0758,-0.12289 -0.0782,-0.19192 -8.4e-4,-0.0241 0.0686,-0.0382 0.071,-0.0142 0.0577,0.56573 -0.0807,1.14143 0,1.70599 0,0 1.99111,0 1.99111,0 z"
             inkscape:connector-curvature="0" />
          <path
             style="fill:#0f0f0f;fill-opacity:1;fill-rule:nonzero;stroke:#e38a14;stroke-width:0.40007913;stroke-linecap:round;stroke-linejoin:round;stroke-miterlimit:4;stroke-dasharray:none;stroke-opacity:1"
             id="path3827"
             d="m 371.30107,418.11052 c 0,-1.12142 0.0537,-1.12311 -0.15379,-2.21273 -0.0401,-0.21031 -0.0665,-0.43166 -0.16895,-0.61966 -0.13644,-0.25034 -0.36612,-0.43782 -0.53325,-0.66882 -0.01,-0.0132 0.0559,0.0139 0.0488,-7.6e-4 -0.0464,-0.0962 -0.11852,-0.17771 -0.17778,-0.26656 0.12503,-0.36656 0.14388,-0.79449 0.15374,-1.19359 -0.15859,-0.29635 -0.31719,-0.59269 -0.47578,-0.88903 -0.05,-0.046 -0.19352,-0.19001 -0.14993,-0.13794 0.37892,0.4527 0.26787,0.074 0.31156,-0.29096 0.0324,-0.4715 0.0236,-0.23715 0.0268,-0.70304 0,0 -1.99111,-0.002 -1.99111,-0.002 l 0,0 c 0.002,0.30358 0.006,0.14742 -0.0127,0.46845 -0.0531,0.44373 -0.16549,0.94545 -0.0224,1.38472 0.0718,0.2205 0.21171,0.41377 0.33952,0.60731 0.0391,0.0592 0.15928,0.2151 0.15674,0.14417 -0.008,-0.21241 -0.11571,-0.40905 -0.17356,-0.61358 -3.5e-4,0.79774 -0.2939,1.5857 0.18041,2.32947 0.0935,0.14023 0.42283,0.6486 0.51101,0.6923 0.0989,0.049 -0.12226,-0.42263 -0.10658,-0.31341 0.0186,0.12963 0.088,0.24747 0.1155,0.37552 0.19384,0.9043 0.13064,0.86309 0.13064,1.91009 0,0 1.99112,0 1.99112,0 z"
             inkscape:connector-curvature="0" />
          <path
             style="fill:#0f0f0f;fill-opacity:1;fill-rule:nonzero;stroke:#e38a14;stroke-width:0.40007913;stroke-linecap:round;stroke-linejoin:round;stroke-miterlimit:4;stroke-dasharray:none;stroke-opacity:1"
             id="path3829"
             d="m 369.5944,402.75655 c 0,0.87077 0,1.74154 0,2.61231 -0.0699,0.50852 0.0908,1.10325 0,1.60382 -0.0139,0.0769 0.0627,-0.22318 -0.0148,-0.23394 -0.0824,-0.0115 -0.0857,0.14268 -0.1285,0.21402 -0.0584,0.16504 -0.13366,0.32506 -0.17524,0.49512 -0.0274,0.11208 0.0543,-0.23488 0.13239,-0.31985 0.10879,-0.11838 0.29213,-0.14815 0.40392,-0.26372 0.0267,-0.0277 -0.0688,-0.0472 -0.10708,-0.0432 -0.2525,0.0269 -0.50627,0.0626 -0.74984,0.13439 -0.11896,0.0351 -0.21623,0.1215 -0.32435,0.18225 0.0341,-1.32912 -0.99668,1.13126 -0.42034,0.26289 0.0606,-0.0913 -0.21366,-0.0514 -0.32242,-0.0655 -1.47743,0.4681 -0.40252,0.0156 -1.09334,0.47453 -0.0403,0.0268 0.0696,-0.0676 0.10055,-0.10482 0.10152,-0.12214 -0.30695,-0.0881 -0.46496,-0.10447 -0.1146,-0.007 -0.43354,-0.0939 -0.34381,-0.0222 0.13506,0.10783 0.32502,0.14047 0.49781,0.14517 0.0638,0.002 -0.0805,-0.1028 -0.13533,-0.13532 -1.41601,-0.83918 -0.52699,-0.1894 -0.34285,-0.20051 0.0471,-0.003 -0.0472,-0.0817 -0.0707,-0.12252 0.10129,-0.25181 0.0312,-0.029 -0.31101,-0.57209 -0.0118,-0.0187 -0.0383,-0.0791 -0.0249,-0.0615 0.36005,0.47499 -0.16979,-0.16904 -0.25039,-0.53003 -0.1903,-0.15153 -0.39173,-0.29007 -0.57091,-0.4546 -0.043,-0.0395 0.11473,0.0366 0.1582,0.0756 0.0735,0.066 0.21003,0.32735 0.18425,0.23202 -0.0907,-0.33521 -0.37171,-0.74063 -0.57043,-1.02876 -0.28652,-0.34756 -0.49555,-0.59025 -0.79424,-0.93123 -0.0228,-0.026 0.0986,0.0914 0.0847,0.0597 -0.13581,-0.31138 -0.21594,-0.14448 -0.13889,-0.27794 -0.3465,-0.6702 -0.57938,-1.31579 -0.9005,-1.94573 -0.0161,-0.0246 -0.0662,-0.0971 -0.0484,-0.0737 0.40148,0.52731 -0.15395,-0.39854 -0.2608,-0.49255 -0.4849,-0.42667 -0.76398,-0.55318 -0.39291,-0.36748 -0.14717,-0.11008 -0.29434,-0.22015 -0.44151,-0.33023 0.0682,0.0438 0.2587,0.19172 0.20463,0.13135 -0.12592,-0.14061 -0.29114,-0.24137 -0.42359,-0.37586 -0.0469,-0.0476 0.21179,0.16173 0.16533,0.11363 -0.1397,-0.14464 -0.26868,-0.31213 -0.44697,-0.40521 -0.21704,-0.11331 -0.47167,-0.13167 -0.7075,-0.19751 0.45926,0.15983 -1.13312,-0.0864 -0.88467,0.0743 0.13357,0.0864 0.61553,0.0788 0.47728,1.4e-4 -0.6175,-0.35143 -0.4043,-0.25545 -1.10759,-0.3452 -0.69913,0.0693 -1.39848,0.0934 -2.10009,0.0686 -0.80805,-0.0849 -1.59341,0.349 -1.85439,1.13932 -0.0653,0.19768 -0.046,0.4138 -0.069,0.62071 0.3414,-0.85245 -0.11121,-0.0989 -0.0736,-0.13273 0.0994,-0.0892 0.382,-0.33649 0.25057,-0.31261 -0.42842,0.0778 -0.68612,0.82789 -0.74923,1.10505 -0.0426,0.18708 0.009,0.38364 0.0127,0.57546 0.0184,0.13101 -0.0359,0.48911 0.0551,0.39305 0.10971,-0.11581 0.0285,-0.31837 0.0253,-0.47784 -2.8e-4,-0.0132 -0.0283,0.008 -0.0347,0.0195 -0.0905,0.16455 -0.19849,0.32368 -0.25293,0.50339 -0.11622,0.38364 -0.0704,0.64169 -0.0452,1.0182 0.0817,0.54367 0.0416,1.09243 0.0319,1.63907 -0.002,0.58117 -0.0465,0.3231 0.4346,1.14836 0.0342,0.0587 0.21196,0.15051 0.14426,0.1442 -0.0827,-0.008 -0.12142,-0.17785 -0.19943,-0.14934 -0.0721,0.0264 -0.0122,0.15303 -0.0197,0.22942 -0.01,0.0997 -0.0212,0.19924 -0.0318,0.29886 0.18084,0.85758 0.0521,0.49906 0.3193,1.09725 0,0 1.80473,-0.84078 1.80473,-0.84078 l 0,0 c -0.0976,-0.19062 -0.0476,-0.20875 -0.1413,-0.074 0.0246,-0.29499 0.0878,-0.83012 0.0201,-1.10619 -0.0736,-0.30067 -0.20897,-0.58407 -0.34407,-0.8626 -0.0297,-0.0612 -0.14484,-0.21222 -0.14428,-0.14423 0.002,0.19385 0.0603,0.38947 0.14771,0.56251 0.0404,0.08 4e-4,-0.1793 6e-4,-0.26895 0.0105,-0.61494 0.0496,-1.23229 -0.039,-1.84403 -0.008,-0.0606 0.003,-0.12715 -0.0241,-0.18171 -0.0125,-0.0248 -0.19974,0.20207 -0.14825,0.12402 0.29284,-0.4438 0.59257,-0.76876 0.42523,-1.39375 -0.12277,-0.14636 0.011,-0.0179 -0.26681,0.23256 -0.0402,0.0363 -0.19105,0.0972 -0.15042,0.0614 0.80956,-0.7131 0.64108,-0.31947 0.98336,-1.33133 -0.0778,0.0673 -0.29944,0.28233 -0.22696,0.20928 0.0564,-0.0568 0.25456,-0.16138 0.17457,-0.16498 -0.19366,-0.009 -0.38719,0.0649 -0.56251,0.14754 -0.0749,0.0353 0.1657,-3.8e-4 0.24854,4.8e-4 0.0764,7.9e-4 0.1527,0.003 0.22905,0.005 0.69726,0.0243 1.39835,0.0249 2.09111,-0.069 -0.0454,-0.0591 -0.20959,-0.21001 -0.14872,-0.16698 0.0954,0.0674 0.16068,0.17913 0.26749,0.22654 0.51681,0.22943 0.77748,0.34523 1.25076,0.20006 -0.0652,-0.0465 -0.1396,-0.0822 -0.19547,-0.13949 -0.0479,-0.0491 -0.15756,-0.22356 -0.11012,-0.17397 1.3533,1.41458 -0.73014,-0.67307 0.72457,0.78266 0.0339,0.0339 -0.0548,-0.0786 -0.0822,-0.11791 0.13561,0.13058 0.2509,0.28621 0.40681,0.39173 0.0756,0.0512 -0.20937,-0.29932 -0.15836,-0.22357 0.0742,0.11016 0.0968,0.34829 0.2279,0.32683 0.11979,-0.0196 -0.15677,-0.4593 -0.11537,-0.34524 0.25712,0.70827 0.0739,0.41647 0.35498,0.80056 -0.0385,-0.13373 -0.10058,-0.53953 -0.11552,-0.40118 -0.0467,0.43194 0.21526,0.75292 0.38151,1.10621 0.3737,0.79415 0.0128,0.1739 0.27655,0.61096 0.17765,0.42333 0.30778,0.72529 0.62269,1.0628 0.0177,0.019 -0.0274,-0.0979 -0.0119,-0.077 0.57505,0.77835 0.0775,0.24593 0.51253,0.68777 0.10565,0.11898 0.1206,0.31746 0.25411,0.40404 0.0628,0.0407 -0.0711,-0.28898 -0.0408,-0.22063 0.26032,0.58611 0.13196,0.80361 0.69815,1.12526 0.0947,0.0538 -0.13211,-0.17314 -0.19817,-0.25971 0.0651,0.0969 0.12929,0.38714 0.19517,0.29077 0.0785,-0.11488 -0.14703,-0.53623 -0.12078,-0.39959 0.0558,0.29065 0.12287,0.6809 0.35324,0.91308 0.0273,0.0275 -0.0287,-0.15049 -0.0116,-0.11572 0.0929,0.18836 0.161,0.38795 0.2415,0.58193 0.0945,0.12461 0.168,0.26849 0.28364,0.37383 0.85212,0.7762 0.62253,0.39432 0.34251,0.20017 -0.0523,-0.0363 0.0809,0.10161 0.13508,0.13507 0.76227,0.47079 0.51751,0.41851 1.04955,0.44989 0.44191,0.0455 0.9062,0.12669 1.3445,-0.003 0.18508,-0.0546 0.34984,-0.16356 0.51943,-0.25563 0.0206,-0.0112 0.0708,-0.0515 0.0474,-0.0521 -0.16372,-0.004 -0.3264,0.0274 -0.4896,0.0411 0.57889,0.0675 1.02892,0.10221 1.57741,-0.17718 0.12759,-0.065 0.32994,-0.13339 0.3287,-0.27653 -0.001,-0.12062 -0.44853,0.17069 -0.3298,0.14919 0.15639,-0.0283 0.29692,-0.11342 0.44538,-0.17012 0.0739,-0.0826 -0.43371,-0.0901 -0.32752,-0.0582 0.48243,0.14496 0.99645,0.0848 1.43463,-0.2036 0.20085,-0.13221 0.28727,-0.3861 0.41683,-0.58863 0.006,-0.01 -0.022,-0.008 -0.033,-0.0113 0.22914,-0.38401 0.28022,-0.43249 0.42562,-1.00175 0.026,-0.10187 0,-0.21029 0,-0.31543 0,-0.42946 0,-0.85892 0,-1.28838 0,-0.87077 0,-1.74154 0,-2.61231 0,0 -1.99112,0 -1.99112,0 z"
             inkscape:connector-curvature="0" />
          <path
             style="fill:#0f0f0f;fill-opacity:1;fill-rule:nonzero;stroke:#e38a14;stroke-width:0.40007913;stroke-linecap:round;stroke-linejoin:round;stroke-miterlimit:4;stroke-dasharray:none;stroke-opacity:1"
             id="path3831"
             d="m 368.3144,391.09892 c -1.14922,-0.17184 -2.32346,-0.18989 -3.47289,-0.35198 -1.67062,-0.23559 0.92601,-0.0136 -1.19901,-0.23869 -0.2865,-0.0303 -0.57532,-0.032 -0.86298,-0.048 -1.10252,0.003 -2.20051,0.10727 -3.30296,0.0748 -0.56177,-0.0169 -1.12385,-0.005 -1.68576,-0.004 -0.56909,-10e-4 -1.13817,-0.002 -1.70727,-10e-4 -0.0948,3e-5 -0.18968,7e-5 -0.28453,10e-5 0,0 7.3e-4,1.99033 7.3e-4,1.99033 l 0,0 c 0.0949,-3e-5 0.18985,-7e-5 0.28478,-1e-4 0.57003,-2.8e-4 1.14007,9e-5 1.7101,0.001 0.54141,-0.001 1.08298,-0.0128 1.62426,0.003 1.09023,0.0311 2.17612,-0.055 3.26594,-0.0762 0.68568,0.0252 0.55795,-0.006 1.21806,0.11959 0.25875,0.0492 0.5126,0.1248 0.77329,0.16243 0.27346,0.0395 0.55114,0.0409 0.82607,0.0684 0.43079,0.0431 0.86059,0.0955 1.29088,0.14331 0.5071,0.049 1.01419,0.0981 1.52129,0.14711 0,0 0,-1.99033 0,-1.99033 z"
             inkscape:connector-curvature="0" />
          <path
             style="fill:#0f0f0f;fill-opacity:1;fill-rule:nonzero;stroke:#e38a14;stroke-width:0.40007913;stroke-linecap:round;stroke-linejoin:round;stroke-miterlimit:4;stroke-dasharray:none;stroke-opacity:1"
             id="path3833"
             d="m 369.5944,397.4964 c 0,-1.11364 0,-2.22727 0,-3.34091 -0.0752,-0.38091 0.0906,-1.13238 0,-1.4883 -0.0637,-0.25015 -0.16873,-0.48792 -0.2531,-0.73187 -0.045,-0.0908 -0.1002,-0.17725 -0.13507,-0.27242 -0.009,-0.0245 0.11578,-0.87408 0.11955,-0.92915 0.0107,-0.40488 -0.0174,-0.80914 -0.0204,-1.21391 -6.6e-4,-0.0897 0.041,-0.34903 1.2e-4,-0.26916 -0.0891,0.17407 -0.10152,0.37765 -0.15228,0.56648 0.72149,-0.6295 0.46572,-1.53093 0.42134,-2.3495 -0.0492,0.20693 -0.0984,0.41386 -0.14754,0.62079 0,0 -1.40804,-1.40727 -1.40804,-1.40727 l 0,0 c -0.144,0.30172 -0.288,0.60344 -0.43199,0.90517 0.0234,0.36704 0.0147,0.32236 0.0587,0.67427 0.0354,0.2838 0.0637,0.23489 0.25477,-0.004 0.0423,-0.0529 -0.0966,0.095 -0.14488,0.14256 -0.14706,0.28369 -0.32686,0.5527 -0.44117,0.85108 -0.0851,0.22207 0.0722,1.06213 0.0242,1.35819 -0.0418,0.76985 -0.2261,1.5385 0.23337,2.2393 0.0104,-0.0603 0.009,-0.2381 0.0313,-0.18098 0.0903,0.23378 -0.0734,1.20583 0,1.4883 0,1.11364 0,2.22728 0,3.34091 0,0 1.99111,0 1.99111,0 z"
             inkscape:connector-curvature="0" />
          <path
             style="fill:#0f0f0f;fill-opacity:1;fill-rule:nonzero;stroke:#e38a14;stroke-width:0.40007913;stroke-linecap:round;stroke-linejoin:round;stroke-miterlimit:4;stroke-dasharray:none;stroke-opacity:1"
             id="path3835"
             d="m 367.88773,382.00027 c -1.52296,0 -3.04593,0 -4.5689,0 -0.92667,0 -1.85334,0 -2.78001,0 -0.78985,-0.009 -1.2397,-0.06 -2.01694,0.20897 -0.59973,0.20756 -0.18348,0.14813 -0.46687,0.18149 -0.044,-0.0117 -0.087,-0.0284 -0.13202,-0.035 -0.10564,-0.0156 -0.21253,-0.0211 -0.31878,-0.0317 -0.11253,-0.0113 -0.42461,-0.10644 -0.33755,-0.0343 1.16919,0.96925 10e-4,-0.51292 0.57218,0.28887 0.34618,-0.19362 -0.23299,-0.71788 -0.33927,-0.9672 -0.004,-0.008 0.0686,0.11902 0.0913,10e-4 0.0136,-0.0705 0.0153,-0.14277 0.0229,-0.21415 0.18766,-0.6186 -0.18554,-1.14283 -0.30008,-1.72747 -0.0477,-0.24349 -0.0274,-0.64381 -0.0248,-0.87199 0.0419,-1.00935 0.12839,-2.01901 0.0734,-3.02938 -0.59322,1.1068 -0.15109,0.8753 -1.09132,1.02478 0,0 1.03762,-1.69871 1.03762,-1.69871 l 0,0 c -1.58225,-0.34443 -0.92414,-0.57006 -1.93439,0.78364 0.0549,0.97765 -0.049,1.95462 -0.0764,2.93157 0.0114,0.66071 -0.0224,0.87812 0.13921,1.52513 0.0457,0.18276 0.13048,0.35345 0.19573,0.53017 0.0128,-0.0701 0.004,-0.27278 0.0383,-0.21028 0.0924,0.16872 -0.1406,0.41354 -0.0414,0.57549 -0.0235,0.32457 -0.0632,0.60513 0.007,0.93355 0.0381,0.17916 0.11357,0.34877 0.18508,0.51741 0.0245,0.0577 0.0856,0.21915 0.10152,0.15847 0.0342,-0.13051 -1e-4,-0.53263 -0.0375,-0.40299 -0.0489,0.16981 5.4e-4,0.35344 8.1e-4,0.53016 0.0809,0.21162 0.14374,0.43102 0.24259,0.63487 0.0363,0.075 0.0909,0.14466 0.15882,0.19297 0.24748,0.17612 0.501,0.35001 0.77834,0.47397 0.27983,0.12508 1.23933,0.0469 1.51276,0.0411 0.14075,-0.0435 0.28413,-0.0792 0.42224,-0.13046 0.0826,-0.0306 0.16821,-0.061 0.23811,-0.11455 0.0201,-0.0154 -0.0152,-0.0709 0.01,-0.0754 0.41687,-0.0739 0.87179,0.0663 1.29,0 0.92667,0 1.85334,0 2.78001,0 1.52297,0 3.04593,0 4.5689,0 0,0 0,-1.99033 0,-1.99033 z"
             inkscape:connector-curvature="0" />
          <path
             style="fill:#0f0f0f;fill-opacity:1;fill-rule:nonzero;stroke:#e38a14;stroke-width:0.40007913;stroke-linecap:round;stroke-linejoin:round;stroke-miterlimit:4;stroke-dasharray:none;stroke-opacity:1"
             id="path3837"
             d="m 363.33661,381.00511 c 0,-1.13734 0,-2.27467 0,-3.412 0,-0.26952 0,-0.53904 0,-0.80857 0,0 -1.99112,0 -1.99112,0 l 0,0 c 0,0.26953 0,0.53905 0,0.80857 0,1.13733 0,2.27466 0,3.412 0,0 1.99112,0 1.99112,0 z"
             inkscape:connector-curvature="0" />
          <path
             style="fill:#0f0f0f;fill-opacity:1;fill-rule:nonzero;stroke:#e38a14;stroke-width:0.40007913;stroke-linecap:round;stroke-linejoin:round;stroke-miterlimit:4;stroke-dasharray:none;stroke-opacity:1"
             id="path3839"
             d="m 369.30996,381.57377 c 0.0997,-1.00316 -0.0937,-1.97369 -0.31417,-2.94252 -0.0202,-0.10308 -0.0405,-0.20615 -0.0607,-0.30922 0.006,-0.0534 0.0286,-0.10725 0.0193,-0.16025 -0.0374,-0.21473 -0.10517,-0.42305 -0.15775,-0.63457 -0.22359,-0.50911 -0.0735,-1.07999 -0.0436,-1.61889 0,0 -1.98837,-0.10461 -1.98837,-0.10461 l 0,0 c -0.0383,0.78713 -0.18934,1.60132 0.14305,2.35289 0.24262,0.0226 0.0142,-0.0172 0.0749,0.55576 0.0358,0.33862 0.13867,0.53042 0.20401,0.86965 0.19019,0.98745 0.13221,0.8841 0.13221,1.99176 0,0 1.99112,0 1.99112,0 z"
             inkscape:connector-curvature="0" />
          <path
             style="fill:#0f0f0f;fill-opacity:1;fill-rule:nonzero;stroke:#e38a14;stroke-width:0.40007913;stroke-linecap:round;stroke-linejoin:round;stroke-miterlimit:4;stroke-dasharray:none;stroke-opacity:1"
             id="path3841"
             d="m 366.03741,370.4948 c -1.24238,-0.10364 -2.47719,-0.29804 -3.707,-0.49886 -0.87934,-0.14358 -0.77354,-0.20926 -1.66818,-0.28393 -0.29106,-0.0243 -0.58388,-0.0178 -0.87582,-0.0266 -0.28446,-0.0335 -0.56837,-0.0721 -0.85338,-0.10058 -0.73679,-0.0737 -1.39974,-0.12842 -2.1362,-0.14738 -0.23852,-0.006 -0.47796,0.0224 -0.71581,0.003 -0.0202,-0.002 -0.0208,-0.0594 -5.6e-4,-0.0606 0.0555,-0.003 0.10573,0.0342 0.15859,0.0513 -0.34085,-0.21695 -0.42606,-0.26844 -0.82871,-0.46399 0,0 -0.76528,1.83745 -0.76528,1.83745 l 0,0 c 0.17383,-0.0345 0.56147,0.38236 0.33573,0.16909 0.14916,0.0956 0.28359,0.21945 0.44749,0.28672 0.59839,0.24563 0.67086,0.15037 1.27474,0.16486 1.01637,0.0244 2.02791,0.13408 3.0371,0.24963 0.84096,0.0115 1.49755,0.15772 2.32713,0.29364 1.22337,0.20045 2.45241,0.39443 3.68857,0.49631 0,0 0.28159,-1.97032 0.28159,-1.97032 z"
             inkscape:connector-curvature="0" />
          <path
             style="fill:#0f0f0f;fill-opacity:1;fill-rule:nonzero;stroke:#e38a14;stroke-width:0.40007913;stroke-linecap:round;stroke-linejoin:round;stroke-miterlimit:4;stroke-dasharray:none;stroke-opacity:1"
             id="path3843"
             d="m 368.49374,371.78285 c 0.47071,-0.95443 0.82659,-1.99423 0.74511,-3.07513 -0.0383,-0.50859 -0.21566,-0.68945 -0.30866,-1.13896 0.014,0.0302 0.0164,0.11172 0.042,0.0905 0.037,-0.0307 0.0158,-0.0949 0.021,-0.14277 0.0516,-0.47388 0.0788,-0.63392 -0.3007,-1.1718 -0.13746,-0.19483 -0.39641,-0.26713 -0.57758,-0.42219 -0.0649,-0.0555 -0.10293,-0.13619 -0.15439,-0.20428 -0.53052,-0.35636 -0.96972,-0.86716 -1.54113,-1.16491 -0.28585,-0.14895 -0.59946,-0.23787 -0.89297,-0.37111 -0.76654,-0.33175 -1.54621,-0.0669 -2.3292,-0.0758 -0.36588,0.0433 -0.78106,-0.11031 -1.14146,-0.0239 -0.5247,0.12583 -0.6352,0.19944 -1.02391,0.39762 -1.77969,1.42287 -0.0916,0.27702 -0.20243,0.29628 -0.51366,0.0893 -0.797,0.49471 -1.119,0.84063 -0.0529,0.24152 -0.0914,0.48665 -0.15866,0.72456 -0.0693,0.24522 0.055,-0.36146 0.0264,-0.33573 -0.58781,0.52992 -0.61822,1.22118 -0.59982,1.95639 -0.33735,0.6034 -0.2318,1.32989 -0.19465,1.98903 0.0447,0.95949 -0.24558,1.62813 1.9932,0.22267 0.21446,-0.13464 -0.12465,-0.49084 -0.19536,-0.73392 -0.043,-0.14794 -0.0674,-0.30597 -0.14576,-0.43866 -0.1307,-0.22132 -0.31531,-0.40604 -0.47296,-0.60906 -0.34298,-0.31064 -0.0737,-0.0999 -0.84845,-0.41226 -0.14774,-0.0596 0.28955,0.141 0.44574,0.17236 0.0327,0.007 -0.0361,-0.0582 -0.0411,-0.0911 -0.004,-0.0253 0.0107,-0.05 0.016,-0.075 -0.11472,-0.17473 -0.22944,-0.34946 -0.34416,-0.52419 -0.1561,-0.31825 0.0501,0.0727 -0.62643,-0.53597 -0.0571,-0.0514 0.2621,0.15857 0.20252,0.11007 -0.1433,-0.11664 -0.30902,-0.20329 -0.45547,-0.31596 -0.0761,-0.0586 0.17261,0.089 0.24396,0.15323 0.0587,0.0528 0.0927,0.12783 0.13904,0.19175 -0.0869,-0.20186 -0.13525,-0.42513 -0.26072,-0.60558 -0.36422,-0.52378 -0.5703,-0.44712 -1.11917,-0.71255 -0.024,-0.0116 0.10085,0.0107 0.0799,-0.006 -0.0902,-0.0712 -0.34733,-0.27345 -0.3008,-0.16841 0.0598,0.13511 0.23196,0.18323 0.34794,0.27484 -0.61581,-0.71357 -0.074,-0.22312 -1.11216,-0.69524 -0.0812,-0.0369 0.18864,0.003 0.26212,0.0536 0.1393,0.0958 0.23049,0.48669 0.34986,0.36703 0.14482,-0.14517 -0.19632,-0.36465 -0.2469,-0.56333 -0.18196,-0.18888 -0.36392,-0.37776 -0.54588,-0.56663 0.0967,-0.0418 0.30057,0.37648 0.25912,0.2611 -0.0736,-0.20479 -0.20488,-0.38404 -0.30306,-0.57825 -0.009,-0.0187 -0.0399,-0.0639 -0.0194,-0.0597 0.0317,0.007 0.045,0.0465 0.0675,0.0697 -0.51742,-0.96553 -0.16483,-0.44534 -0.96361,-1.15465 -0.0459,-0.0408 0.12077,0.0387 0.16573,0.0806 0.0786,0.0731 0.13039,0.17044 0.19559,0.25566 0,0 -1.96743,0.30611 -1.96743,0.30611 l 0,0 c 0.20978,0.57615 0.16716,0.8264 0.70299,1.13147 0.0919,0.0524 -0.17662,-0.3541 -0.19555,-0.25002 -0.007,0.0369 0.49533,0.73801 0.0953,-0.06 0.01,0.0377 0.15009,0.78986 0.32418,0.87261 0.0787,0.0374 -0.0966,-0.33341 -0.0606,-0.2541 0.10336,0.22791 0.13838,0.48636 0.26409,0.70276 0.0807,0.13893 0.18099,0.34143 0.3417,0.34005 0.13235,-0.001 -0.13517,-0.2275 -0.20276,-0.34125 0.0497,0.11174 0.0994,0.22348 0.14914,0.33522 -0.003,-0.0404 -0.0303,-0.15587 -0.009,-0.12118 0.44276,0.73324 0.23848,0.92869 1.04747,1.1423 0.17691,0.0467 -0.5391,-0.28033 -0.3834,-0.39269 0.0278,0.033 1.29516,1.65084 1.05806,0.54528 0.0649,0.23955 0.0747,0.50138 0.19468,0.71867 0.0939,0.17001 0.64478,0.66144 0.79046,0.72606 0.11475,0.0509 -0.11599,-0.30085 -0.241,-0.28931 -0.11655,0.0108 0.12806,0.19588 0.19208,0.29383 -0.0176,-0.34689 -0.011,0.0222 0.22509,0.46171 0.33824,0.6297 1.52325,0.99821 0.59744,0.54376 -0.0502,-0.0246 0.0831,0.0749 0.12459,0.11234 -0.15904,-0.65629 0.0572,0.36474 0.18913,0.39613 2.2473,0.53469 2.0208,0.83656 1.98487,-0.39805 -0.0122,-0.21579 -0.073,-0.57982 -0.0593,-0.80016 0.01,-0.15615 0.12964,-0.44921 0.15048,-0.54569 0.0462,-0.21397 0.0688,-0.43237 0.10319,-0.64856 -0.0815,-0.53176 0.0632,-0.11949 -0.16783,-0.21014 -0.0234,-0.009 0.004,-0.0539 0.0211,-0.0725 0.15329,-0.16648 0.35947,-0.28715 0.484,-0.47608 0.12087,-0.18338 0.18117,-0.40256 0.23539,-0.61537 0.0175,-0.0686 -0.0819,0.11559 -0.12279,0.17339 -0.10093,0.0667 -0.40302,0.1323 -0.30279,0.20002 0.10405,0.0703 0.28534,-0.0643 0.33004,-0.18161 0.0357,-0.0936 -0.37966,0.12337 -0.29045,0.0777 0.0571,-0.0292 0.97679,-0.27792 1.02537,-0.61546 0.013,-0.0902 -0.16096,0.0855 -0.24143,0.12823 0.0929,-0.0474 0.22195,-0.0547 0.27872,-0.14214 0.0301,-0.0464 -0.21424,-0.0206 -0.16172,-0.0381 0.27248,-0.0911 0.85577,0.0783 1.15329,0.0239 0.50951,-0.007 1.00703,-0.11656 1.51491,-0.094 0.13957,0.0605 0.27552,0.13021 0.41873,0.18154 0.0622,0.0223 0.13422,0.0111 0.19441,0.0382 0.46037,0.20778 0.77615,0.65109 1.21332,0.89873 0.47476,0.43666 0.60832,0.79451 0.56137,0.43089 -0.0226,-0.17516 -0.007,-0.3604 -0.0712,-0.52502 -0.0336,-0.0865 -0.0167,0.18487 -0.0251,0.2773 -0.0469,0.51605 -0.0428,0.23538 0.01,0.83624 0.0419,0.1295 0.20125,0.42124 0.22468,0.56704 0.12375,0.77011 -0.21678,1.51093 -0.5349,2.18503 0,0 1.78091,0.8901 1.78091,0.8901 z"
             inkscape:connector-curvature="0" />
          <g
             transform="matrix(0.28384959,-1.0735708,-1.182796,-0.25763753,415.13752,445.9365)"
             style="font-style:normal;font-variant:normal;font-weight:normal;font-stretch:normal;font-size:19.99974823px;line-height:125%;font-family:Ubuntu;-inkscape-font-specification:'Ubuntu, Normal';text-align:start;letter-spacing:-1.51999986px;word-spacing:0px;writing-mode:lr-tb;text-anchor:start;fill:#000000;fill-opacity:1;stroke:none;stroke-width:1px;stroke-linecap:butt;stroke-linejoin:miter;stroke-opacity:1"
             id="flowRoot3231">
            <path
               d="m 10.779864,21.078313 q 0,1.239985 -0.359995,2.239972 -0.359996,0.999987 -1.0199873,1.719978 -0.639992,0.719991 -1.5399806,1.119986 -0.8999887,0.379995 -1.9599754,0.379995 -1.0599866,0 -1.9599753,-0.379995 Q 3.0399617,25.758254 2.37997,25.038263 1.7399781,24.318272 1.3799826,23.318285 1.0199872,22.318298 1.0199872,21.078313 q 0,-1.219984 0.3599954,-2.219972 0.3599955,-1.019987 0.9999874,-1.739978 0.6599917,-0.719991 1.5599804,-1.099986 0.8999887,-0.399995 1.9599753,-0.399995 1.0599867,0 1.9599754,0.399995 0.8999886,0.379995 1.5399806,1.099986 0.6599913,0.719991 1.0199873,1.739978 0.359995,0.999988 0.359995,2.219972 z m -1.9399753,0 q 0,-1.759978 -0.7999899,-2.779965 -0.7799902,-1.039987 -2.1399731,-1.039987 -1.3599829,0 -2.1599728,1.039987 -0.7799902,1.019987 -0.7799902,2.779965 0,1.759978 0.7799902,2.799965 0.7999899,1.019987 2.1599728,1.019987 1.3599829,0 2.1399731,-1.019987 0.7999899,-1.039987 0.7999899,-2.799965 z"
               style=""
               id="path3231" />
            <path
               d="m 20.103166,26.278248 q -0.559993,-1.439982 -1.199985,-3.279959 -0.619992,-1.859977 -1.139986,-3.859951 -0.519993,1.999974 -1.139985,3.859951 -0.619992,1.839977 -1.179985,3.279959 l -1.61998,0 Q 12.903257,24.218274 12.023268,21.578307 11.143279,18.93834 10.363289,15.878379 l 1.999974,0 q 0.199998,0.939988 0.479994,2.039974 0.279997,1.099986 0.579993,2.199972 0.319996,1.099986 0.659992,2.119974 0.339995,1.019987 0.639992,1.779977 0.339995,-0.939988 0.659991,-1.979975 0.339996,-1.059987 0.639992,-2.119973 0.299996,-1.079987 0.559993,-2.099974 0.279997,-1.039987 0.479994,-1.939975 l 1.539981,0 q 0.179998,0.899988 0.439994,1.939975 0.259997,1.019987 0.559993,2.099974 0.299996,1.059986 0.619992,2.119973 0.339996,1.039987 0.679992,1.979975 0.299996,-0.75999 0.619992,-1.779977 0.339996,-1.019988 0.659992,-2.119974 0.319996,-1.099986 0.599992,-2.199972 0.279997,-1.099986 0.479994,-2.039974 l 1.919976,0 q -0.77999,3.059961 -1.659979,5.699928 -0.879989,2.639967 -1.799977,4.699941 l -1.61998,0 z"
               style=""
               id="path3233" />
            <path
               d="m 25.629952,16.178375 q 0.639992,-0.159998 1.699979,-0.339996 1.059986,-0.179998 2.439969,-0.179998 1.239984,0 2.059974,0.359996 0.81999,0.339996 1.299984,0.979988 0.499993,0.619992 0.699991,1.499981 0.199997,0.879989 0.199997,1.939975 l 0,5.839927 -1.859976,0 0,-5.439932 q 0,-0.959988 -0.139999,-1.639979 -0.119998,-0.679992 -0.419994,-1.099986 -0.299997,-0.419995 -0.79999,-0.599993 -0.499994,-0.199997 -1.239985,-0.199997 -0.299996,0 -0.619992,0.02 -0.319996,0.02 -0.619992,0.06 -0.279997,0.02 -0.519994,0.06 -0.219997,0.04 -0.319995,0.06 l 0,8.77989 -1.859977,0 0,-10.099873 z"
               style=""
               id="path3235" />
            <path
               d="m 40.114125,26.518245 q -1.259985,0 -2.219972,-0.399995 -0.939989,-0.399995 -1.59998,-1.119986 -0.639992,-0.719991 -0.959988,-1.699979 -0.319996,-0.999987 -0.319996,-2.199972 0,-1.199985 0.339996,-2.199972 0.359995,-0.999988 0.999987,-1.719979 0.639992,-0.73999 1.55998,-1.139985 0.939988,-0.419995 2.079974,-0.419995 0.699991,0 1.399983,0.119998 0.699991,0.119999 1.339983,0.379996 l -0.419995,1.57998 q -0.419995,-0.199998 -0.979988,-0.319996 -0.539993,-0.119999 -1.159985,-0.119999 -1.55998,0 -2.39997,0.979988 -0.81999,0.979988 -0.81999,2.859964 0,0.839989 0.179998,1.539981 0.199998,0.699991 0.599993,1.199984 0.419994,0.499994 1.059986,0.779991 0.639992,0.259996 1.559981,0.259996 0.73999,0 1.339983,-0.139998 0.599992,-0.139998 0.939988,-0.299996 l 0.259997,1.55998 q -0.159998,0.1 -0.459995,0.199998 -0.299996,0.08 -0.679991,0.139998 -0.379995,0.08 -0.81999,0.119999 -0.419994,0.06 -0.819989,0.06 z"
               style=""
               id="path3237" />
            <path
               d="m 46.490902,26.478245 q -1.719978,-0.04 -2.439969,-0.73999 -0.719991,-0.699992 -0.719991,-2.179973 l 0,-12.479843 1.859977,-0.319996 0,12.499843 q 0,0.459994 0.08,0.75999 0.08,0.299996 0.259996,0.479994 0.179998,0.179998 0.479994,0.279997 0.299997,0.08 0.739991,0.139998 l -0.259997,1.55998 z"
               style=""
               id="path3239" />
            <path
               d="m 56.499507,21.078313 q 0,1.239985 -0.359996,2.239972 -0.359995,0.999987 -1.019987,1.719978 -0.639992,0.719991 -1.53998,1.119986 -0.899989,0.379995 -1.959976,0.379995 -1.059986,0 -1.959975,-0.379995 -0.899989,-0.399995 -1.55998,-1.119986 -0.639992,-0.719991 -0.999988,-1.719978 -0.359995,-0.999987 -0.359995,-2.239972 0,-1.219984 0.359995,-2.219972 0.359996,-1.019987 0.999988,-1.739978 0.659991,-0.719991 1.55998,-1.099986 0.899989,-0.399995 1.959975,-0.399995 1.059987,0 1.959976,0.399995 0.899988,0.379995 1.53998,1.099986 0.659992,0.719991 1.019987,1.739978 0.359996,0.999988 0.359996,2.219972 z m -1.939976,0 q 0,-1.759978 -0.79999,-2.779965 -0.77999,-1.039987 -2.139973,-1.039987 -1.359983,0 -2.159972,1.039987 -0.779991,1.019987 -0.779991,2.779965 0,1.759978 0.779991,2.799965 0.799989,1.019987 2.159972,1.019987 1.359983,0 2.139973,-1.019987 0.79999,-1.039987 0.79999,-2.799965 z"
               style=""
               id="path3241" />
            <path
               d="m 65.876244,25.978252 q -0.639992,0.159998 -1.699979,0.339995 -1.039986,0.179998 -2.419969,0.179998 -1.199985,0 -2.019975,-0.339996 Q 58.916332,25.798254 58.416338,25.158262 57.916344,24.51827 57.696347,23.658281 57.47635,22.778292 57.47635,21.718305 l 0,-5.839926 1.859976,0 0,5.439931 q 0,1.899976 0.599993,2.719966 0.599992,0.81999 2.019974,0.81999 0.299997,0 0.619993,-0.02 0.319996,-0.02 0.599992,-0.04 0.279996,-0.04 0.499994,-0.06 0.239997,-0.04 0.339995,-0.08 l 0,-8.779889 1.859977,0 0,10.099873 z"
               style=""
               id="path3243" />
            <path
               d="m 74.280497,18.078351 q -0.339996,-0.279996 -0.979988,-0.539993 -0.639992,-0.259997 -1.399982,-0.259997 -0.79999,0 -1.379983,0.299996 -0.559993,0.279997 -0.919988,0.79999 -0.359995,0.499994 -0.519993,1.199985 -0.159998,0.699991 -0.159998,1.499981 0,1.819977 0.899988,2.819965 0.899989,0.979987 2.39997,0.979987 0.75999,0 1.259984,-0.06 0.519994,-0.08 0.79999,-0.159998 l 0,-6.579917 z m 0,-6.999912 1.859977,-0.319996 0,15.219809 q -0.639992,0.179997 -1.63998,0.359995 -0.999987,0.179998 -2.299971,0.179998 -1.199985,0 -2.159973,-0.379995 -0.959987,-0.379996 -1.639979,-1.079987 -0.679991,-0.699991 -1.059987,-1.699978 -0.359995,-1.019988 -0.359995,-2.279972 0,-1.199985 0.299996,-2.199972 0.319996,-0.999987 0.919989,-1.719978 0.599992,-0.719991 1.459981,-1.119986 0.879989,-0.399995 1.999975,-0.399995 0.899989,0 1.57998,0.239997 0.699991,0.239997 1.039987,0.459994 l 0,-5.259934 z"
               style=""
               id="path3245" />
          </g>
        </g>
      </g>
    </g>
  </g>
</svg>
