<?xml version="1.0" encoding="UTF-8" standalone="no"?>
<!-- Created with Inkscape (http://www.inkscape.org/) -->

<svg
   xmlns:dc="http://purl.org/dc/elements/1.1/"
   xmlns:cc="http://creativecommons.org/ns#"
   xmlns:rdf="http://www.w3.org/1999/02/22-rdf-syntax-ns#"
   xmlns:svg="http://www.w3.org/2000/svg"
   xmlns="http://www.w3.org/2000/svg"
   xmlns:sodipodi="http://sodipodi.sourceforge.net/DTD/sodipodi-0.dtd"
   xmlns:inkscape="http://www.inkscape.org/namespaces/inkscape"
   width="90"
   height="90"
   id="svg4874"
   version="1.1"
   inkscape:version="0.91 r13725"
   viewBox="0 0 90 90.000001"
   sodipodi:docname="app.svg">
  <defs
     id="defs4876" />
  <sodipodi:namedview
     id="base"
     pagecolor="#ffffff"
     bordercolor="#666666"
     borderopacity="1.0"
     inkscape:pageopacity="0.0"
     inkscape:pageshadow="2"
     inkscape:zoom="5.4060244"
     inkscape:cx="31.544848"
     inkscape:cy="32.192119"
     inkscape:document-units="px"
     inkscape:current-layer="g4780"
     showgrid="true"
     showborder="true"
     fit-margin-top="0"
     fit-margin-left="0"
     fit-margin-right="0"
     fit-margin-bottom="0"
     inkscape:snap-bbox="true"
     inkscape:bbox-paths="true"
     inkscape:bbox-nodes="true"
     inkscape:snap-bbox-edge-midpoints="true"
     inkscape:snap-bbox-midpoints="true"
     inkscape:object-paths="true"
     inkscape:snap-intersection-paths="true"
     inkscape:object-nodes="true"
     inkscape:snap-smooth-nodes="true"
     inkscape:snap-midpoints="true"
     inkscape:snap-object-midpoints="true"
     inkscape:snap-center="true"
     showguides="false"
     inkscape:guide-bbox="true"
     inkscape:snap-global="true"
     inkscape:window-width="1391"
     inkscape:window-height="904"
     inkscape:window-x="65"
     inkscape:window-y="24"
     inkscape:window-maximized="1">
    <inkscape:grid
       type="xygrid"
       id="grid5451"
       empspacing="6" />
    <sodipodi:guide
       orientation="1,0"
       position="6,77"
       id="guide4063" />
    <sodipodi:guide
       orientation="1,0"
       position="3,78"
       id="guide4065" />
    <sodipodi:guide
       orientation="0,1"
       position="55,84"
       id="guide4067" />
    <sodipodi:guide
       orientation="0,1"
       position="53,87"
       id="guide4069" />
    <sodipodi:guide
       orientation="0,1"
       position="20,3"
       id="guide4071" />
    <sodipodi:guide
       orientation="0,1"
       position="20,6"
       id="guide4073" />
    <sodipodi:guide
       orientation="1,0"
       position="87,7"
       id="guide4075" />
    <sodipodi:guide
       orientation="1,0"
       position="84,7"
       id="guide4077" />
    <sodipodi:guide
       orientation="0,1"
       position="58,81"
       id="guide4074" />
    <sodipodi:guide
       orientation="1,0"
       position="9,74"
       id="guide4076" />
    <sodipodi:guide
       orientation="0,1"
       position="21,9"
       id="guide4078" />
    <sodipodi:guide
       orientation="1,0"
       position="81,4"
       id="guide4080" />
  </sodipodi:namedview>
  <metadata
     id="metadata4879">
    <rdf:RDF>
      <cc:Work
         rdf:about="">
        <dc:format>image/svg+xml</dc:format>
        <dc:type
           rdf:resource="http://purl.org/dc/dcmitype/StillImage" />
        <dc:title />
      </cc:Work>
    </rdf:RDF>
  </metadata>
  <g
     inkscape:label="Layer 1"
     inkscape:groupmode="layer"
     id="layer1"
     transform="translate(67.857146,-84.50504)">
    <g
       transform="matrix(0,-1,-1,0,373.50506,516.50504)"
       id="g4845"
       style="display:inline">
      <g
         inkscape:export-ydpi="90"
         inkscape:export-xdpi="90"
         inkscape:export-filename="next01.png"
         transform="matrix(-0.9996045,0,0,1,575.94296,-611.00001)"
         id="g4778"
         inkscape:label="Layer 1">
        <g
           transform="matrix(-1,0,0,1,575.99999,611)"
           id="g4780"
           style="display:inline">
          <rect
             transform="scale(-1,1)"
             y="351.36221"
             x="-432"
             height="90"
             width="90"
             id="rect4120"
             style="color:#000000;fill:none;stroke:none;stroke-width:4;marker:none;visibility:visible;display:inline;overflow:visible;enable-background:accumulate" />
          <path
             sodipodi:nodetypes="cccccccccccccccccc"
             inkscape:connector-curvature="0"
             id="path4122"
             d="m 382.94991,365.19669 c -3.07887,2.13061 -5.74697,4.44959 -8.0274,6.66029 l 0,-0.008 c -3.99967,4.04832 -8.77508,9.49192 -8.77508,9.49192 0,0 4.69091,5.76968 8.76906,9.5265 l 0,-0.008 c 2.27742,2.20795 4.94139,4.52544 8.01536,6.65427 -0.0363,0.0951 -0.0668,0.19244 -0.10377,0.28723 -1.94472,5.12874 -4.53071,9.65753 -7.75811,13.58679 l -21.13197,0 0,-21.25757 0,-0.0271 0,-17.48606 0,-21.28464 21.13197,0 c 3.2274,3.92924 5.81339,8.43624 7.75811,13.52358 0.0434,0.1122 0.0793,0.22731 0.12186,0.33987 z"
             style="font-size:15.00296783px;font-style:normal;font-variant:normal;font-weight:normal;font-stretch:normal;text-align:center;line-height:125%;letter-spacing:0px;word-spacing:0px;writing-mode:lr-tb;text-anchor:middle;fill:#808080;fill-opacity:1;stroke:none;font-family:Ubuntu;-inkscape-font-specification:Ubuntu" />
          <path
             style="font-size:121.62958527px;font-style:normal;font-variant:normal;font-weight:normal;font-stretch:normal;text-align:center;line-height:125%;letter-spacing:0px;word-spacing:0px;writing-mode:lr-tb;text-anchor:middle;fill:#808080;fill-opacity:1;stroke:none;font-family:Ubuntu;-inkscape-font-specification:Ubuntu"
             d="m 419.99538,381.36243 c -4.2e-4,4.75381 -1.99124,9.35043 -5.50399,12.71154 -3.51328,3.36163 -8.31664,5.26477 -13.28361,5.26477 l -0.0151,0 c -1.91234,-0.008 -4.11305,-0.18068 -6.34532,-1.08874 -5.81958,-2.36734 -10.33868,-5.91672 -13.83146,-9.15808 l 0,0.007 c -1.01511,-0.89511 -2.04594,-1.91539 -3.03721,-2.93238 l 0,-9.48741 c 0.99968,-1.02979 2.03673,-2.08206 3.04323,-3.0572 l 0,0.008 c 3.49197,-3.24035 8.008,-6.78859 13.82544,-9.15507 2.23203,-0.90797 4.43243,-1.08164 6.34532,-1.08875 l 0.0151,0 c 4.96783,0 9.77075,1.90505 13.28361,5.26628 3.51231,3.3607 5.50357,7.95622 5.50399,12.71003 l 0,0.001 z"
             id="path4124"
             inkscape:connector-curvature="0" />
          <path
             style="font-size:15.00296783px;font-style:normal;font-variant:normal;font-weight:normal;font-stretch:normal;text-align:center;line-height:125%;letter-spacing:0px;word-spacing:0px;writing-mode:lr-tb;text-anchor:middle;fill:#808080;fill-opacity:1;stroke:none;font-family:Ubuntu;-inkscape-font-specification:Ubuntu"
             d="m 388.25039,430.34074 c -0.0289,0.0758 -0.0527,0.15303 -0.0821,0.22851 -1.54846,4.08363 -3.60849,7.68784 -6.17823,10.81641 l -15.04696,0 0,-16.92578 0,-0.0215 0,-7.07618 8.03442,0 c -0.003,0.003 -0.0918,0.10156 -0.0918,0.10156 0,0 3.73612,4.59271 6.98323,7.58399 l 0,-0.006 c 1.81334,1.75802 3.93385,3.6038 6.38143,5.29882 z"
             id="path4115"
             inkscape:connector-curvature="0"
             sodipodi:nodetypes="cccccccccccc" />
          <path
             inkscape:connector-curvature="0"
             id="path4117"
             d="m 417.76167,417.481 c -3.3e-4,3.7851 -1.60092,7.44505 -4.4251,10.12125 -2.82464,2.67661 -6.68644,4.19195 -10.6798,4.19195 l -0.012,0 c -1.53749,-0.007 -3.30682,-0.14386 -5.10151,-0.86688 -4.67884,-1.88494 -8.31211,-4.71104 -11.12027,-7.2919 l 0,0.006 c -0.81613,-0.71271 -1.64489,-1.52508 -2.44186,-2.33484 l 0,-7.55411 c 0.80374,-0.81995 1.6375,-1.6578 2.44671,-2.43423 l 0,0.007 c 2.80749,-2.58005 6.43827,-5.40525 11.11542,-7.28949 1.7945,-0.72295 3.56358,-0.86123 5.10151,-0.8669 l 0.012,0 c 3.99405,0 7.85552,1.51685 10.6798,4.19315 2.82382,2.67587 4.42477,6.33494 4.4251,10.12005 l 0,8e-4 z"
             style="font-size:121.62958527px;font-style:normal;font-variant:normal;font-weight:normal;font-stretch:normal;text-align:center;line-height:125%;letter-spacing:0px;word-spacing:0px;writing-mode:lr-tb;text-anchor:middle;fill:#808080;fill-opacity:1;stroke:none;font-family:Ubuntu;-inkscape-font-specification:Ubuntu" />
          <path
             style="fill:#0f0f0f;fill-opacity:1;fill-rule:nonzero;stroke:#e38a14;stroke-width:0.40007913;stroke-linecap:round;stroke-linejoin:round;stroke-miterlimit:4;stroke-dasharray:none;stroke-opacity:1"
             id="path3819"
             d="m 371.15885,429.76816 c -1.63556,0 -3.27112,0 -4.90668,0 -0.93926,0 -1.87852,0 -2.81778,0 -0.62148,0 -1.24297,0 -1.86445,0 -0.15704,0 -0.31588,0.0237 -0.47111,0 -0.0672,-0.0103 -0.11879,-0.0661 -0.17818,-0.0991 -0.50374,-0.24845 -1.02303,-0.27895 -1.56994,-0.20988 -0.0831,0.0105 -0.24139,0.11713 -0.24913,0.0337 -0.008,-0.0838 0.16506,-0.0335 0.24759,-0.0502 -0.31671,-0.15291 -0.19239,-0.0606 -0.39272,-0.24811 0,0 -1.19568,1.5915 -1.19568,1.5915 l 0,0 c 0.56221,0.39299 0.29292,0.24229 0.79131,0.4805 0.27244,0.0662 0.53995,0.15763 0.81731,0.19857 0.0915,0.0135 0.18318,-0.0249 0.27477,-0.0374 0.0306,-0.008 0.0651,-0.008 0.0919,-0.0247 0.009,-0.005 -0.0152,-0.0304 -0.005,-0.0301 0.15739,0.006 0.5625,0.18234 0.61042,0.20026 0.25246,0.0617 0.50038,0.14646 0.75738,0.18521 0.15528,0.0234 0.31407,0 0.47111,0 0.62148,0 1.24297,0 1.86445,0 0.93926,0 1.87852,0 2.81778,0 1.63556,0 3.27112,0 4.90668,0 0,0 0,-1.99033 0,-1.99033 z"
             inkscape:connector-curvature="0" />
          <path
             style="fill:#0f0f0f;fill-opacity:1;fill-rule:nonzero;stroke:#e38a14;stroke-width:0.40007913;stroke-linecap:round;stroke-linejoin:round;stroke-miterlimit:4;stroke-dasharray:none;stroke-opacity:1"
             id="path3821"
             d="m 372.26691,435.55401 c 0.39877,-0.66455 0.6893,-1.3653 0.79164,-2.12525 -0.047,-0.59831 -0.0677,-1.19334 -0.0533,-1.79319 0.011,-0.57553 0.002,-1.15119 0.002,-1.72677 -0.0629,-0.38217 0.0862,-1.07098 9.7e-4,-1.42024 -0.0609,-0.24942 -0.16501,-0.48626 -0.24752,-0.72939 -0.0474,-0.0948 -0.10477,-0.18519 -0.14224,-0.28431 -0.002,-0.006 0.11825,-0.87365 0.12103,-0.91442 0.004,-0.63302 0.0571,-0.36153 -0.46243,-1.21328 -0.036,-0.059 -0.19415,-0.19629 -0.15111,-0.14217 0.22141,0.27835 0.22676,0.29894 0.2686,0.0239 0.11936,-0.63531 0.026,-0.79131 -0.18379,-1.46804 0,0 -1.78091,0.8901 -1.78091,0.8901 l 0,0 c 0.11519,-0.6571 -0.0203,0.33321 -0.0127,0.34458 -0.036,0.35217 -0.1,0.6997 0.0125,1.05312 0.0725,0.22788 0.90436,1.4782 0.32067,0.16537 -0.0301,-0.0677 0.001,0.14815 0.002,0.22223 -0.041,0.76025 -0.22659,1.52134 0.22772,2.21337 0.0124,-0.0535 0.0213,-0.21317 0.0371,-0.16058 0.0273,0.0906 7e-5,0.18923 7e-5,0.28385 0,0.37928 -6.7e-4,0.75857 -10e-4,1.13785 5.6e-4,0.55914 0.009,1.11836 -10e-4,1.67745 -0.0134,0.56685 -0.0223,1.13566 0.0578,1.69877 0.10122,0.0164 -0.0724,0.23621 -0.16836,0.50483 -0.009,0.0254 0.0145,0.0557 0.004,0.0806 -0.16881,0.4095 -0.45277,0.76664 -0.57315,1.19885 0,0 1.93166,0.48272 1.93166,0.48272 z"
             inkscape:connector-curvature="0" />
          <path
             style="fill:#0f0f0f;fill-opacity:1;fill-rule:nonzero;stroke:#e38a14;stroke-width:0.40007913;stroke-linecap:round;stroke-linejoin:round;stroke-miterlimit:4;stroke-dasharray:none;stroke-opacity:1"
             id="path3823"
             d="m 370.71074,418.83489 c -0.53685,0.25176 -1.13608,0.31734 -1.68685,0.52601 -0.59,0.22354 -0.63855,0.38641 -1.22138,0.23814 -0.51781,-0.14739 -0.80973,-0.0488 -1.375,0.10857 -0.2548,0.0709 -0.48878,0.24071 -0.76207,0.1869 -0.53758,-0.13739 -1.10032,-0.0965 -1.64909,-0.0783 0.32573,0.21152 -1.20763,-0.20468 -0.81664,0.003 1.34965,0.71673 0.0339,-0.39342 0.58495,0.17997 -0.40184,-0.71045 -0.91592,-0.91802 -1.56891,-1.31277 -0.0292,-0.0176 0.12492,0.0424 0.1007,0.0184 -0.092,-0.0912 -0.20911,-0.15307 -0.31367,-0.2296 0.10564,0.10182 0.17217,0.32961 0.31691,0.30545 0.12198,-0.0204 -0.0892,-0.23568 -0.16902,-0.33013 -0.38795,-0.4593 -0.57622,-0.55915 -1.02929,-0.8779 -0.0746,-0.0525 0.15475,0.0967 0.23212,0.145 -1.5357,-1.04364 1.17271,0.66482 -0.72258,-0.70189 -0.22761,-0.16413 -0.65233,-0.14494 -0.69,-0.45637 -0.49823,-0.4588 -0.44806,-0.18993 -0.35368,-0.78098 -0.49906,-1.4742 -0.0256,-0.3835 -0.45509,-1.02716 -0.0333,-0.0499 0.1398,0.18966 0.12168,0.13251 -0.0498,-0.157 -0.15347,-0.29178 -0.21994,-0.44247 -0.0739,-0.16765 -0.0616,-0.15151 -0.0469,-0.29331 0.008,-0.0408 0.0167,-0.0814 0.0233,-0.12236 0.005,-0.0323 0.079,-0.5357 0.0624,-0.51243 -0.10532,0.14775 -0.0737,0.36774 -0.18291,0.51265 -0.0933,0.12377 -0.29803,0.12692 -0.39197,0.25019 -0.0344,0.0451 0.10826,0.0341 0.16238,0.0511 0,0 0.40302,-1.94913 0.40302,-1.94913 l 0,0 c -0.53396,-0.0926 -0.93825,-0.23683 -1.48263,0.14827 -0.6032,0.4267 -0.54679,1.25117 -0.56827,1.87716 0.0313,0.17838 0.0462,0.36043 0.094,0.53513 0.0667,0.24396 0.8076,1.93472 0.49785,0.6602 -0.0628,0.94757 0.10027,1.54607 0.76336,2.23192 0.0116,0.012 7e-4,-0.0334 10e-4,-0.0501 0.34638,0.3957 0.35515,0.47624 0.82072,0.73166 0.0732,0.0402 0.18946,-0.0296 0.24881,0.0292 0.15207,0.15045 0.26973,0.33222 0.41117,0.49269 0.0411,0.0466 -0.0731,-0.10045 -0.10969,-0.15067 0.15071,0.14978 0.30141,0.29955 0.45212,0.44932 -0.0222,-0.0327 -0.0965,-0.12371 -0.0665,-0.098 0.97139,0.83112 0.13919,0.27823 0.26406,0.14405 0.21158,-0.22737 0.0506,2.6073 0.52992,0.76629 -0.0777,-0.22439 0.007,0.0381 0.44434,0.34024 0.044,0.0304 0.10832,0.0182 0.15357,0.0467 0.13193,0.0832 0.66712,0.65621 0.37791,0.0947 0.1018,0.19898 0.19035,0.40531 0.3054,0.59693 0.0333,0.0555 0.0806,0.10547 0.13623,0.13863 0.859,0.5117 0.89326,0.47567 1.74572,0.44329 0.54794,-0.0182 1.08541,-0.026 1.62758,0.0789 0.51563,-0.0331 0.48989,-0.002 0.98733,-0.15337 0.13968,-0.0426 0.29073,-0.0695 0.41061,-0.15286 0.0298,-0.0208 -0.0882,-0.0624 -0.0632,-0.0888 0.0999,-0.10576 0.39082,0.27553 0.43045,0.073 0.66469,0.0919 1.20448,0.0752 1.85334,-0.14484 0.0969,-0.0328 0.1716,-0.11469 0.26751,-0.15015 0.4741,-0.17531 0.98188,-0.25107 1.44205,-0.46916 0,0 -0.32734,-1.96324 -0.32734,-1.96324 z"
             inkscape:connector-curvature="0" />
          <path
             style="fill:#0f0f0f;fill-opacity:1;fill-rule:nonzero;stroke:#e38a14;stroke-width:0.40007913;stroke-linecap:round;stroke-linejoin:round;stroke-miterlimit:4;stroke-dasharray:none;stroke-opacity:1"
             id="path3825"
             d="m 365.61217,418.53702 c -0.0453,-0.81542 0.15584,-1.66094 -0.21343,-2.43101 -0.0863,-0.1799 -0.2463,-0.31413 -0.36261,-0.47626 -0.0136,-0.0189 0.0425,0.0245 0.0533,0.045 0.0636,0.12096 0.11147,0.24954 0.16721,0.37431 0.12073,-0.5997 0.0902,-1.21515 0.0706,-1.82249 0,0 -1.99008,0.0642 -1.99008,0.0642 l 0,0 c 0.019,0.58868 0.0308,1.17471 -0.0716,1.75832 0.0322,0.1405 0.0854,0.83119 0.3627,0.98802 0.0601,0.034 -0.0758,-0.12289 -0.0782,-0.19192 -8.4e-4,-0.0241 0.0686,-0.0382 0.071,-0.0142 0.0577,0.56573 -0.0807,1.14143 0,1.70599 0,0 1.99111,0 1.99111,0 z"
             inkscape:connector-curvature="0" />
          <path
             style="fill:#0f0f0f;fill-opacity:1;fill-rule:nonzero;stroke:#e38a14;stroke-width:0.40007913;stroke-linecap:round;stroke-linejoin:round;stroke-miterlimit:4;stroke-dasharray:none;stroke-opacity:1"
             id="path3827"
             d="m 371.30107,418.11052 c 0,-1.12142 0.0537,-1.12311 -0.15379,-2.21273 -0.0401,-0.21031 -0.0665,-0.43166 -0.16895,-0.61966 -0.13644,-0.25034 -0.36612,-0.43782 -0.53325,-0.66882 -0.01,-0.0132 0.0559,0.0139 0.0488,-7.6e-4 -0.0464,-0.0962 -0.11852,-0.17771 -0.17778,-0.26656 0.12503,-0.36656 0.14388,-0.79449 0.15374,-1.19359 -0.15859,-0.29635 -0.31719,-0.59269 -0.47578,-0.88903 -0.05,-0.046 -0.19352,-0.19001 -0.14993,-0.13794 0.37892,0.4527 0.26787,0.074 0.31156,-0.29096 0.0324,-0.4715 0.0236,-0.23715 0.0268,-0.70304 0,0 -1.99111,-0.002 -1.99111,-0.002 l 0,0 c 0.002,0.30358 0.006,0.14742 -0.0127,0.46845 -0.0531,0.44373 -0.16549,0.94545 -0.0224,1.38472 0.0718,0.2205 0.21171,0.41377 0.33952,0.60731 0.0391,0.0592 0.15928,0.2151 0.15674,0.14417 -0.008,-0.21241 -0.11571,-0.40905 -0.17356,-0.61358 -3.5e-4,0.79774 -0.2939,1.5857 0.18041,2.32947 0.0935,0.14023 0.42283,0.6486 0.51101,0.6923 0.0989,0.049 -0.12226,-0.42263 -0.10658,-0.31341 0.0186,0.12963 0.088,0.24747 0.1155,0.37552 0.19384,0.9043 0.13064,0.86309 0.13064,1.91009 0,0 1.99112,0 1.99112,0 z"
             inkscape:connector-curvature="0" />
          <path
             style="fill:#0f0f0f;fill-opacity:1;fill-rule:nonzero;stroke:#e38a14;stroke-width:0.40007913;stroke-linecap:round;stroke-linejoin:round;stroke-miterlimit:4;stroke-dasharray:none;stroke-opacity:1"
             id="path3829"
             d="m 369.5944,402.75655 c 0,0.87077 0,1.74154 0,2.61231 -0.0699,0.50852 0.0908,1.10325 0,1.60382 -0.0139,0.0769 0.0627,-0.22318 -0.0148,-0.23394 -0.0824,-0.0115 -0.0857,0.14268 -0.1285,0.21402 -0.0584,0.16504 -0.13366,0.32506 -0.17524,0.49512 -0.0274,0.11208 0.0543,-0.23488 0.13239,-0.31985 0.10879,-0.11838 0.29213,-0.14815 0.40392,-0.26372 0.0267,-0.0277 -0.0688,-0.0472 -0.10708,-0.0432 -0.2525,0.0269 -0.50627,0.0626 -0.74984,0.13439 -0.11896,0.0351 -0.21623,0.1215 -0.32435,0.18225 0.0341,-1.32912 -0.99668,1.13126 -0.42034,0.26289 0.0606,-0.0913 -0.21366,-0.0514 -0.32242,-0.0655 -1.47743,0.4681 -0.40252,0.0156 -1.09334,0.47453 -0.0403,0.0268 0.0696,-0.0676 0.10055,-0.10482 0.10152,-0.12214 -0.30695,-0.0881 -0.46496,-0.10447 -0.1146,-0.007 -0.43354,-0.0939 -0.34381,-0.0222 0.13506,0.10783 0.32502,0.14047 0.49781,0.14517 0.0638,0.002 -0.0805,-0.1028 -0.13533,-0.13532 -1.41601,-0.83918 -0.52699,-0.1894 -0.34285,-0.20051 0.0471,-0.003 -0.0472,-0.0817 -0.0707,-0.12252 0.10129,-0.25181 0.0312,-0.029 -0.31101,-0.57209 -0.0118,-0.0187 -0.0383,-0.0791 -0.0249,-0.0615 0.36005,0.47499 -0.16979,-0.16904 -0.25039,-0.53003 -0.1903,-0.15153 -0.39173,-0.29007 -0.57091,-0.4546 -0.043,-0.0395 0.11473,0.0366 0.1582,0.0756 0.0735,0.066 0.21003,0.32735 0.18425,0.23202 -0.0907,-0.33521 -0.37171,-0.74063 -0.57043,-1.02876 -0.28652,-0.34756 -0.49555,-0.59025 -0.79424,-0.93123 -0.0228,-0.026 0.0986,0.0914 0.0847,0.0597 -0.13581,-0.31138 -0.21594,-0.14448 -0.13889,-0.27794 -0.3465,-0.6702 -0.57938,-1.31579 -0.9005,-1.94573 -0.0161,-0.0246 -0.0662,-0.0971 -0.0484,-0.0737 0.40148,0.52731 -0.15395,-0.39854 -0.2608,-0.49255 -0.4849,-0.42667 -0.76398,-0.55318 -0.39291,-0.36748 -0.14717,-0.11008 -0.29434,-0.22015 -0.44151,-0.33023 0.0682,0.0438 0.2587,0.19172 0.20463,0.13135 -0.12592,-0.14061 -0.29114,-0.24137 -0.42359,-0.37586 -0.0469,-0.0476 0.21179,0.16173 0.16533,0.11363 -0.1397,-0.14464 -0.26868,-0.31213 -0.44697,-0.40521 -0.21704,-0.11331 -0.47167,-0.13167 -0.7075,-0.19751 0.45926,0.15983 -1.13312,-0.0864 -0.88467,0.0743 0.13357,0.0864 0.61553,0.0788 0.47728,1.4e-4 -0.6175,-0.35143 -0.4043,-0.25545 -1.10759,-0.3452 -0.69913,0.0693 -1.39848,0.0934 -2.10009,0.0686 -0.80805,-0.0849 -1.59341,0.349 -1.85439,1.13932 -0.0653,0.19768 -0.046,0.4138 -0.069,0.62071 0.3414,-0.85245 -0.11121,-0.0989 -0.0736,-0.13273 0.0994,-0.0892 0.382,-0.33649 0.25057,-0.31261 -0.42842,0.0778 -0.68612,0.82789 -0.74923,1.10505 -0.0426,0.18708 0.009,0.38364 0.0127,0.57546 0.0184,0.13101 -0.0359,0.48911 0.0551,0.39305 0.10971,-0.11581 0.0285,-0.31837 0.0253,-0.47784 -2.8e-4,-0.0132 -0.0283,0.008 -0.0347,0.0195 -0.0905,0.16455 -0.19849,0.32368 -0.25293,0.50339 -0.11622,0.38364 -0.0704,0.64169 -0.0452,1.0182 0.0817,0.54367 0.0416,1.09243 0.0319,1.63907 -0.002,0.58117 -0.0465,0.3231 0.4346,1.14836 0.0342,0.0587 0.21196,0.15051 0.14426,0.1442 -0.0827,-0.008 -0.12142,-0.17785 -0.19943,-0.14934 -0.0721,0.0264 -0.0122,0.15303 -0.0197,0.22942 -0.01,0.0997 -0.0212,0.19924 -0.0318,0.29886 0.18084,0.85758 0.0521,0.49906 0.3193,1.09725 0,0 1.80473,-0.84078 1.80473,-0.84078 l 0,0 c -0.0976,-0.19062 -0.0476,-0.20875 -0.1413,-0.074 0.0246,-0.29499 0.0878,-0.83012 0.0201,-1.10619 -0.0736,-0.30067 -0.20897,-0.58407 -0.34407,-0.8626 -0.0297,-0.0612 -0.14484,-0.21222 -0.14428,-0.14423 0.002,0.19385 0.0603,0.38947 0.14771,0.56251 0.0404,0.08 4e-4,-0.1793 6e-4,-0.26895 0.0105,-0.61494 0.0496,-1.23229 -0.039,-1.84403 -0.008,-0.0606 0.003,-0.12715 -0.0241,-0.18171 -0.0125,-0.0248 -0.19974,0.20207 -0.14825,0.12402 0.29284,-0.4438 0.59257,-0.76876 0.42523,-1.39375 -0.12277,-0.14636 0.011,-0.0179 -0.26681,0.23256 -0.0402,0.0363 -0.19105,0.0972 -0.15042,0.0614 0.80956,-0.7131 0.64108,-0.31947 0.98336,-1.33133 -0.0778,0.0673 -0.29944,0.28233 -0.22696,0.20928 0.0564,-0.0568 0.25456,-0.16138 0.17457,-0.16498 -0.19366,-0.009 -0.38719,0.0649 -0.56251,0.14754 -0.0749,0.0353 0.1657,-3.8e-4 0.24854,4.8e-4 0.0764,7.9e-4 0.1527,0.003 0.22905,0.005 0.69726,0.0243 1.39835,0.0249 2.09111,-0.069 -0.0454,-0.0591 -0.20959,-0.21001 -0.14872,-0.16698 0.0954,0.0674 0.16068,0.17913 0.26749,0.22654 0.51681,0.22943 0.77748,0.34523 1.25076,0.20006 -0.0652,-0.0465 -0.1396,-0.0822 -0.19547,-0.13949 -0.0479,-0.0491 -0.15756,-0.22356 -0.11012,-0.17397 1.3533,1.41458 -0.73014,-0.67307 0.72457,0.78266 0.0339,0.0339 -0.0548,-0.0786 -0.0822,-0.11791 0.13561,0.13058 0.2509,0.28621 0.40681,0.39173 0.0756,0.0512 -0.20937,-0.29932 -0.15836,-0.22357 0.0742,0.11016 0.0968,0.34829 0.2279,0.32683 0.11979,-0.0196 -0.15677,-0.4593 -0.11537,-0.34524 0.25712,0.70827 0.0739,0.41647 0.35498,0.80056 -0.0385,-0.13373 -0.10058,-0.53953 -0.11552,-0.40118 -0.0467,0.43194 0.21526,0.75292 0.38151,1.10621 0.3737,0.79415 0.0128,0.1739 0.27655,0.61096 0.17765,0.42333 0.30778,0.72529 0.62269,1.0628 0.0177,0.019 -0.0274,-0.0979 -0.0119,-0.077 0.57505,0.77835 0.0775,0.24593 0.51253,0.68777 0.10565,0.11898 0.1206,0.31746 0.25411,0.40404 0.0628,0.0407 -0.0711,-0.28898 -0.0408,-0.22063 0.26032,0.58611 0.13196,0.80361 0.69815,1.12526 0.0947,0.0538 -0.13211,-0.17314 -0.19817,-0.25971 0.0651,0.0969 0.12929,0.38714 0.19517,0.29077 0.0785,-0.11488 -0.14703,-0.53623 -0.12078,-0.39959 0.0558,0.29065 0.12287,0.6809 0.35324,0.91308 0.0273,0.0275 -0.0287,-0.15049 -0.0116,-0.11572 0.0929,0.18836 0.161,0.38795 0.2415,0.58193 0.0945,0.12461 0.168,0.26849 0.28364,0.37383 0.85212,0.7762 0.62253,0.39432 0.34251,0.20017 -0.0523,-0.0363 0.0809,0.10161 0.13508,0.13507 0.76227,0.47079 0.51751,0.41851 1.04955,0.44989 0.44191,0.0455 0.9062,0.12669 1.3445,-0.003 0.18508,-0.0546 0.34984,-0.16356 0.51943,-0.25563 0.0206,-0.0112 0.0708,-0.0515 0.0474,-0.0521 -0.16372,-0.004 -0.3264,0.0274 -0.4896,0.0411 0.57889,0.0675 1.02892,0.10221 1.57741,-0.17718 0.12759,-0.065 0.32994,-0.13339 0.3287,-0.27653 -0.001,-0.12062 -0.44853,0.17069 -0.3298,0.14919 0.15639,-0.0283 0.29692,-0.11342 0.44538,-0.17012 0.0739,-0.0826 -0.43371,-0.0901 -0.32752,-0.0582 0.48243,0.14496 0.99645,0.0848 1.43463,-0.2036 0.20085,-0.13221 0.28727,-0.3861 0.41683,-0.58863 0.006,-0.01 -0.022,-0.008 -0.033,-0.0113 0.22914,-0.38401 0.28022,-0.43249 0.42562,-1.00175 0.026,-0.10187 0,-0.21029 0,-0.31543 0,-0.42946 0,-0.85892 0,-1.28838 0,-0.87077 0,-1.74154 0,-2.61231 0,0 -1.99112,0 -1.99112,0 z"
             inkscape:connector-curvature="0" />
          <path
             style="fill:#0f0f0f;fill-opacity:1;fill-rule:nonzero;stroke:#e38a14;stroke-width:0.40007913;stroke-linecap:round;stroke-linejoin:round;stroke-miterlimit:4;stroke-dasharray:none;stroke-opacity:1"
             id="path3831"
             d="m 368.3144,391.09892 c -1.14922,-0.17184 -2.32346,-0.18989 -3.47289,-0.35198 -1.67062,-0.23559 0.92601,-0.0136 -1.19901,-0.23869 -0.2865,-0.0303 -0.57532,-0.032 -0.86298,-0.048 -1.10252,0.003 -2.20051,0.10727 -3.30296,0.0748 -0.56177,-0.0169 -1.12385,-0.005 -1.68576,-0.004 -0.56909,-10e-4 -1.13817,-0.002 -1.70727,-10e-4 -0.0948,3e-5 -0.18968,7e-5 -0.28453,10e-5 0,0 7.3e-4,1.99033 7.3e-4,1.99033 l 0,0 c 0.0949,-3e-5 0.18985,-7e-5 0.28478,-1e-4 0.57003,-2.8e-4 1.14007,9e-5 1.7101,0.001 0.54141,-0.001 1.08298,-0.0128 1.62426,0.003 1.09023,0.0311 2.17612,-0.055 3.26594,-0.0762 0.68568,0.0252 0.55795,-0.006 1.21806,0.11959 0.25875,0.0492 0.5126,0.1248 0.77329,0.16243 0.27346,0.0395 0.55114,0.0409 0.82607,0.0684 0.43079,0.0431 0.86059,0.0955 1.29088,0.14331 0.5071,0.049 1.01419,0.0981 1.52129,0.14711 0,0 0,-1.99033 0,-1.99033 z"
             inkscape:connector-curvature="0" />
          <path
             style="fill:#0f0f0f;fill-opacity:1;fill-rule:nonzero;stroke:#e38a14;stroke-width:0.40007913;stroke-linecap:round;stroke-linejoin:round;stroke-miterlimit:4;stroke-dasharray:none;stroke-opacity:1"
             id="path3833"
             d="m 369.5944,397.4964 c 0,-1.11364 0,-2.22727 0,-3.34091 -0.0752,-0.38091 0.0906,-1.13238 0,-1.4883 -0.0637,-0.25015 -0.16873,-0.48792 -0.2531,-0.73187 -0.045,-0.0908 -0.1002,-0.17725 -0.13507,-0.27242 -0.009,-0.0245 0.11578,-0.87408 0.11955,-0.92915 0.0107,-0.40488 -0.0174,-0.80914 -0.0204,-1.21391 -6.6e-4,-0.0897 0.041,-0.34903 1.2e-4,-0.26916 -0.0891,0.17407 -0.10152,0.37765 -0.15228,0.56648 0.72149,-0.6295 0.46572,-1.53093 0.42134,-2.3495 -0.0492,0.20693 -0.0984,0.41386 -0.14754,0.62079 0,0 -1.40804,-1.40727 -1.40804,-1.40727 l 0,0 c -0.144,0.30172 -0.288,0.60344 -0.43199,0.90517 0.0234,0.36704 0.0147,0.32236 0.0587,0.67427 0.0354,0.2838 0.0637,0.23489 0.25477,-0.004 0.0423,-0.0529 -0.0966,0.095 -0.14488,0.14256 -0.14706,0.28369 -0.32686,0.5527 -0.44117,0.85108 -0.0851,0.22207 0.0722,1.06213 0.0242,1.35819 -0.0418,0.76985 -0.2261,1.5385 0.23337,2.2393 0.0104,-0.0603 0.009,-0.2381 0.0313,-0.18098 0.0903,0.23378 -0.0734,1.20583 0,1.4883 0,1.11364 0,2.22728 0,3.34091 0,0 1.99111,0 1.99111,0 z"
             inkscape:connector-curvature="0" />
          <path
             style="fill:#0f0f0f;fill-opacity:1;fill-rule:nonzero;stroke:#e38a14;stroke-width:0.40007913;stroke-linecap:round;stroke-linejoin:round;stroke-miterlimit:4;stroke-dasharray:none;stroke-opacity:1"
             id="path3835"
             d="m 367.88773,382.00027 c -1.52296,0 -3.04593,0 -4.5689,0 -0.92667,0 -1.85334,0 -2.78001,0 -0.78985,-0.009 -1.2397,-0.06 -2.01694,0.20897 -0.59973,0.20756 -0.18348,0.14813 -0.46687,0.18149 -0.044,-0.0117 -0.087,-0.0284 -0.13202,-0.035 -0.10564,-0.0156 -0.21253,-0.0211 -0.31878,-0.0317 -0.11253,-0.0113 -0.42461,-0.10644 -0.33755,-0.0343 1.16919,0.96925 10e-4,-0.51292 0.57218,0.28887 0.34618,-0.19362 -0.23299,-0.71788 -0.33927,-0.9672 -0.004,-0.008 0.0686,0.11902 0.0913,10e-4 0.0136,-0.0705 0.0153,-0.14277 0.0229,-0.21415 0.18766,-0.6186 -0.18554,-1.14283 -0.30008,-1.72747 -0.0477,-0.24349 -0.0274,-0.64381 -0.0248,-0.87199 0.0419,-1.00935 0.12839,-2.01901 0.0734,-3.02938 -0.59322,1.1068 -0.15109,0.8753 -1.09132,1.02478 0,0 1.03762,-1.69871 1.03762,-1.69871 l 0,0 c -1.58225,-0.34443 -0.92414,-0.57006 -1.93439,0.78364 0.0549,0.97765 -0.049,1.95462 -0.0764,2.93157 0.0114,0.66071 -0.0224,0.87812 0.13921,1.52513 0.0457,0.18276 0.13048,0.35345 0.19573,0.53017 0.0128,-0.0701 0.004,-0.27278 0.0383,-0.21028 0.0924,0.16872 -0.1406,0.41354 -0.0414,0.57549 -0.0235,0.32457 -0.0632,0.60513 0.007,0.93355 0.0381,0.17916 0.11357,0.34877 0.18508,0.51741 0.0245,0.0577 0.0856,0.21915 0.10152,0.15847 0.0342,-0.13051 -1e-4,-0.53263 -0.0375,-0.40299 -0.0489,0.16981 5.4e-4,0.35344 8.1e-4,0.53016 0.0809,0.21162 0.14374,0.43102 0.24259,0.63487 0.0363,0.075 0.0909,0.14466 0.15882,0.19297 0.24748,0.17612 0.501,0.35001 0.77834,0.47397 0.27983,0.12508 1.23933,0.0469 1.51276,0.0411 0.14075,-0.0435 0.28413,-0.0792 0.42224,-0.13046 0.0826,-0.0306 0.16821,-0.061 0.23811,-0.11455 0.0201,-0.0154 -0.0152,-0.0709 0.01,-0.0754 0.41687,-0.0739 0.87179,0.0663 1.29,0 0.92667,0 1.85334,0 2.78001,0 1.52297,0 3.04593,0 4.5689,0 0,0 0,-1.99033 0,-1.99033 z"
             inkscape:connector-curvature="0" />
          <path
             style="fill:#0f0f0f;fill-opacity:1;fill-rule:nonzero;stroke:#e38a14;stroke-width:0.40007913;stroke-linecap:round;stroke-linejoin:round;stroke-miterlimit:4;stroke-dasharray:none;stroke-opacity:1"
             id="path3837"
             d="m 363.33661,381.00511 c 0,-1.13734 0,-2.27467 0,-3.412 0,-0.26952 0,-0.53904 0,-0.80857 0,0 -1.99112,0 -1.99112,0 l 0,0 c 0,0.26953 0,0.53905 0,0.80857 0,1.13733 0,2.27466 0,3.412 0,0 1.99112,0 1.99112,0 z"
             inkscape:connector-curvature="0" />
          <path
             style="fill:#0f0f0f;fill-opacity:1;fill-rule:nonzero;stroke:#e38a14;stroke-width:0.40007913;stroke-linecap:round;stroke-linejoin:round;stroke-miterlimit:4;stroke-dasharray:none;stroke-opacity:1"
             id="path3839"
             d="m 369.30996,381.57377 c 0.0997,-1.00316 -0.0937,-1.97369 -0.31417,-2.94252 -0.0202,-0.10308 -0.0405,-0.20615 -0.0607,-0.30922 0.006,-0.0534 0.0286,-0.10725 0.0193,-0.16025 -0.0374,-0.21473 -0.10517,-0.42305 -0.15775,-0.63457 -0.22359,-0.50911 -0.0735,-1.07999 -0.0436,-1.61889 0,0 -1.98837,-0.10461 -1.98837,-0.10461 l 0,0 c -0.0383,0.78713 -0.18934,1.60132 0.14305,2.35289 0.24262,0.0226 0.0142,-0.0172 0.0749,0.55576 0.0358,0.33862 0.13867,0.53042 0.20401,0.86965 0.19019,0.98745 0.13221,0.8841 0.13221,1.99176 0,0 1.99112,0 1.99112,0 z"
             inkscape:connector-curvature="0" />
          <path
             style="fill:#0f0f0f;fill-opacity:1;fill-rule:nonzero;stroke:#e38a14;stroke-width:0.40007913;stroke-linecap:round;stroke-linejoin:round;stroke-miterlimit:4;stroke-dasharray:none;stroke-opacity:1"
             id="path3841"
             d="m 366.03741,370.4948 c -1.24238,-0.10364 -2.47719,-0.29804 -3.707,-0.49886 -0.87934,-0.14358 -0.77354,-0.20926 -1.66818,-0.28393 -0.29106,-0.0243 -0.58388,-0.0178 -0.87582,-0.0266 -0.28446,-0.0335 -0.56837,-0.0721 -0.85338,-0.10058 -0.73679,-0.0737 -1.39974,-0.12842 -2.1362,-0.14738 -0.23852,-0.006 -0.47796,0.0224 -0.71581,0.003 -0.0202,-0.002 -0.0208,-0.0594 -5.6e-4,-0.0606 0.0555,-0.003 0.10573,0.0342 0.15859,0.0513 -0.34085,-0.21695 -0.42606,-0.26844 -0.82871,-0.46399 0,0 -0.76528,1.83745 -0.76528,1.83745 l 0,0 c 0.17383,-0.0345 0.56147,0.38236 0.33573,0.16909 0.14916,0.0956 0.28359,0.21945 0.44749,0.28672 0.59839,0.24563 0.67086,0.15037 1.27474,0.16486 1.01637,0.0244 2.02791,0.13408 3.0371,0.24963 0.84096,0.0115 1.49755,0.15772 2.32713,0.29364 1.22337,0.20045 2.45241,0.39443 3.68857,0.49631 0,0 0.28159,-1.97032 0.28159,-1.97032 z"
             inkscape:connector-curvature="0" />
          <path
             style="fill:#0f0f0f;fill-opacity:1;fill-rule:nonzero;stroke:#e38a14;stroke-width:0.40007913;stroke-linecap:round;stroke-linejoin:round;stroke-miterlimit:4;stroke-dasharray:none;stroke-opacity:1"
             id="path3843"
             d="m 368.49374,371.78285 c 0.47071,-0.95443 0.82659,-1.99423 0.74511,-3.07513 -0.0383,-0.50859 -0.21566,-0.68945 -0.30866,-1.13896 0.014,0.0302 0.0164,0.11172 0.042,0.0905 0.037,-0.0307 0.0158,-0.0949 0.021,-0.14277 0.0516,-0.47388 0.0788,-0.63392 -0.3007,-1.1718 -0.13746,-0.19483 -0.39641,-0.26713 -0.57758,-0.42219 -0.0649,-0.0555 -0.10293,-0.13619 -0.15439,-0.20428 -0.53052,-0.35636 -0.96972,-0.86716 -1.54113,-1.16491 -0.28585,-0.14895 -0.59946,-0.23787 -0.89297,-0.37111 -0.76654,-0.33175 -1.54621,-0.0669 -2.3292,-0.0758 -0.36588,0.0433 -0.78106,-0.11031 -1.14146,-0.0239 -0.5247,0.12583 -0.6352,0.19944 -1.02391,0.39762 -1.77969,1.42287 -0.0916,0.27702 -0.20243,0.29628 -0.51366,0.0893 -0.797,0.49471 -1.119,0.84063 -0.0529,0.24152 -0.0914,0.48665 -0.15866,0.72456 -0.0693,0.24522 0.055,-0.36146 0.0264,-0.33573 -0.58781,0.52992 -0.61822,1.22118 -0.59982,1.95639 -0.33735,0.6034 -0.2318,1.32989 -0.19465,1.98903 0.0447,0.95949 -0.24558,1.62813 1.9932,0.22267 0.21446,-0.13464 -0.12465,-0.49084 -0.19536,-0.73392 -0.043,-0.14794 -0.0674,-0.30597 -0.14576,-0.43866 -0.1307,-0.22132 -0.31531,-0.40604 -0.47296,-0.60906 -0.34298,-0.31064 -0.0737,-0.0999 -0.84845,-0.41226 -0.14774,-0.0596 0.28955,0.141 0.44574,0.17236 0.0327,0.007 -0.0361,-0.0582 -0.0411,-0.0911 -0.004,-0.0253 0.0107,-0.05 0.016,-0.075 -0.11472,-0.17473 -0.22944,-0.34946 -0.34416,-0.52419 -0.1561,-0.31825 0.0501,0.0727 -0.62643,-0.53597 -0.0571,-0.0514 0.2621,0.15857 0.20252,0.11007 -0.1433,-0.11664 -0.30902,-0.20329 -0.45547,-0.31596 -0.0761,-0.0586 0.17261,0.089 0.24396,0.15323 0.0587,0.0528 0.0927,0.12783 0.13904,0.19175 -0.0869,-0.20186 -0.13525,-0.42513 -0.26072,-0.60558 -0.36422,-0.52378 -0.5703,-0.44712 -1.11917,-0.71255 -0.024,-0.0116 0.10085,0.0107 0.0799,-0.006 -0.0902,-0.0712 -0.34733,-0.27345 -0.3008,-0.16841 0.0598,0.13511 0.23196,0.18323 0.34794,0.27484 -0.61581,-0.71357 -0.074,-0.22312 -1.11216,-0.69524 -0.0812,-0.0369 0.18864,0.003 0.26212,0.0536 0.1393,0.0958 0.23049,0.48669 0.34986,0.36703 0.14482,-0.14517 -0.19632,-0.36465 -0.2469,-0.56333 -0.18196,-0.18888 -0.36392,-0.37776 -0.54588,-0.56663 0.0967,-0.0418 0.30057,0.37648 0.25912,0.2611 -0.0736,-0.20479 -0.20488,-0.38404 -0.30306,-0.57825 -0.009,-0.0187 -0.0399,-0.0639 -0.0194,-0.0597 0.0317,0.007 0.045,0.0465 0.0675,0.0697 -0.51742,-0.96553 -0.16483,-0.44534 -0.96361,-1.15465 -0.0459,-0.0408 0.12077,0.0387 0.16573,0.0806 0.0786,0.0731 0.13039,0.17044 0.19559,0.25566 0,0 -1.96743,0.30611 -1.96743,0.30611 l 0,0 c 0.20978,0.57615 0.16716,0.8264 0.70299,1.13147 0.0919,0.0524 -0.17662,-0.3541 -0.19555,-0.25002 -0.007,0.0369 0.49533,0.73801 0.0953,-0.06 0.01,0.0377 0.15009,0.78986 0.32418,0.87261 0.0787,0.0374 -0.0966,-0.33341 -0.0606,-0.2541 0.10336,0.22791 0.13838,0.48636 0.26409,0.70276 0.0807,0.13893 0.18099,0.34143 0.3417,0.34005 0.13235,-0.001 -0.13517,-0.2275 -0.20276,-0.34125 0.0497,0.11174 0.0994,0.22348 0.14914,0.33522 -0.003,-0.0404 -0.0303,-0.15587 -0.009,-0.12118 0.44276,0.73324 0.23848,0.92869 1.04747,1.1423 0.17691,0.0467 -0.5391,-0.28033 -0.3834,-0.39269 0.0278,0.033 1.29516,1.65084 1.05806,0.54528 0.0649,0.23955 0.0747,0.50138 0.19468,0.71867 0.0939,0.17001 0.64478,0.66144 0.79046,0.72606 0.11475,0.0509 -0.11599,-0.30085 -0.241,-0.28931 -0.11655,0.0108 0.12806,0.19588 0.19208,0.29383 -0.0176,-0.34689 -0.011,0.0222 0.22509,0.46171 0.33824,0.6297 1.52325,0.99821 0.59744,0.54376 -0.0502,-0.0246 0.0831,0.0749 0.12459,0.11234 -0.15904,-0.65629 0.0572,0.36474 0.18913,0.39613 2.2473,0.53469 2.0208,0.83656 1.98487,-0.39805 -0.0122,-0.21579 -0.073,-0.57982 -0.0593,-0.80016 0.01,-0.15615 0.12964,-0.44921 0.15048,-0.54569 0.0462,-0.21397 0.0688,-0.43237 0.10319,-0.64856 -0.0815,-0.53176 0.0632,-0.11949 -0.16783,-0.21014 -0.0234,-0.009 0.004,-0.0539 0.0211,-0.0725 0.15329,-0.16648 0.35947,-0.28715 0.484,-0.47608 0.12087,-0.18338 0.18117,-0.40256 0.23539,-0.61537 0.0175,-0.0686 -0.0819,0.11559 -0.12279,0.17339 -0.10093,0.0667 -0.40302,0.1323 -0.30279,0.20002 0.10405,0.0703 0.28534,-0.0643 0.33004,-0.18161 0.0357,-0.0936 -0.37966,0.12337 -0.29045,0.0777 0.0571,-0.0292 0.97679,-0.27792 1.02537,-0.61546 0.013,-0.0902 -0.16096,0.0855 -0.24143,0.12823 0.0929,-0.0474 0.22195,-0.0547 0.27872,-0.14214 0.0301,-0.0464 -0.21424,-0.0206 -0.16172,-0.0381 0.27248,-0.0911 0.85577,0.0783 1.15329,0.0239 0.50951,-0.007 1.00703,-0.11656 1.51491,-0.094 0.13957,0.0605 0.27552,0.13021 0.41873,0.18154 0.0622,0.0223 0.13422,0.0111 0.19441,0.0382 0.46037,0.20778 0.77615,0.65109 1.21332,0.89873 0.47476,0.43666 0.60832,0.79451 0.56137,0.43089 -0.0226,-0.17516 -0.007,-0.3604 -0.0712,-0.52502 -0.0336,-0.0865 -0.0167,0.18487 -0.0251,0.2773 -0.0469,0.51605 -0.0428,0.23538 0.01,0.83624 0.0419,0.1295 0.20125,0.42124 0.22468,0.56704 0.12375,0.77011 -0.21678,1.51093 -0.5349,2.18503 0,0 1.78091,0.8901 1.78091,0.8901 z"
             inkscape:connector-curvature="0" />
          <path
             style="fill:none;fill-rule:evenodd;stroke:#000000;stroke-width:1.00019777;stroke-linecap:round;stroke-linejoin:round;stroke-miterlimit:4;stroke-dasharray:none;stroke-opacity:1"
             d="m 405.03952,434.36403 c 0.19297,0.0285 0.3701,-0.12331 0.55515,-0.18497 0.37011,-0.12332 0.7352,-0.26283 1.11031,-0.36996 0.79325,-0.22655 1.60168,-0.37634 2.40568,-0.55494 0.24827,-0.0552 0.49194,-0.12983 0.74021,-0.18498 2.11437,-0.46967 -0.13974,0.0812 1.66547,-0.36996 0.81817,-0.20446 1.60603,-0.47347 2.40567,-0.73991 0.68444,-0.22806 1.38965,-0.41708 2.03558,-0.73992 0.12336,-0.0617 0.23925,-0.14137 0.3701,-0.18497 0.0585,-0.0195 0.12988,0.0276 0.18505,0 0.0482,-0.0241 0.31268,-0.24239 0.18505,-0.36996 -0.0436,-0.0436 -0.12336,0 -0.18505,0 l -0.74021,0 c -0.12336,0 -0.25042,0.0299 -0.3701,0 -0.13381,-0.0334 -0.23629,-0.15154 -0.3701,-0.18498 -0.11969,-0.0299 -0.25042,0.0299 -0.37011,0 -0.85911,-0.42939 0.10652,-0.0157 -0.74021,-0.18498 -0.37161,0.0425 -0.603,-0.28942 -0.92526,-0.36996 -0.11968,-0.0299 -0.24913,0.0242 -0.3701,0 -0.19128,-0.0382 -0.3701,-0.12332 -0.55516,-0.18498 -0.18505,-0.0617 -0.3701,-0.12332 -0.55515,-0.18498 -0.18505,-0.0617 -0.36275,-0.15292 -0.55516,-0.18497 -0.18253,-0.0304 -0.37262,0.0304 -0.55516,0 -0.38481,-0.0641 -0.72549,-0.30585 -1.11031,-0.36996 -1.771,0 0.41379,0.0827 -0.92526,-0.18498 -0.18146,-0.0363 -0.37369,0.0363 -0.55515,0 -0.13526,-0.027 -0.2363,-0.15154 -0.37011,-0.18498 -0.11968,-0.0299 -0.25042,0.0299 -0.3701,0 -0.13381,-0.0334 -0.23629,-0.15154 -0.37011,-0.18498 -0.17952,-0.0449 -0.3796,0.0585 -0.55515,0 -0.13085,-0.0436 -0.23925,-0.14138 -0.37011,-0.18498 -0.11703,-0.039 -0.28287,0.0872 -0.3701,0 -0.0436,-0.0436 0.0436,-0.14138 0,-0.18498 -0.0872,-0.0872 -0.28287,0.0872 -0.3701,0 -0.0436,-0.0436 0.0436,-0.14137 0,-0.18497 -0.008,-0.008 -0.83801,0 -0.92526,0 -0.0617,0 -0.14144,-0.0436 -0.18506,0 -0.0436,0.0436 0.0436,0.14137 0,0.18497 -0.0436,0.0436 -0.14143,-0.0436 -0.18505,0 -0.0436,0.0436 -0.0436,0.14138 0,0.18498 0.0436,0.0436 0.24149,0.0249 0.18505,0"
             id="path3297"
             inkscape:connector-curvature="0"
             sodipodi:nodetypes="csscscsccccsscccccccccccccccccccscsscscsc" />
          <path
             style="fill:none;fill-rule:evenodd;stroke:#000000;stroke-width:1.00019789px;stroke-linecap:butt;stroke-linejoin:miter;stroke-opacity:1"
             d="m 408.54168,433.72842 c 0.59882,-1.08316 0.56898,-0.63723 0.56898,-1.21417 0,-0.12332 -0.039,-0.25297 0,-0.36996 0.0276,-0.0827 0.15747,-0.10226 0.18505,-0.18498 0.039,-0.11699 -0.0299,-0.25032 0,-0.36996 -0.11153,-0.3348 0.29978,-0.34403 0.37011,-0.55493 0.039,-0.117 -0.039,-0.25297 0,-0.36996 0.0276,-0.0827 0.14604,-0.10699 0.18505,-0.18498 0.0552,-0.1103 -0.0552,-0.25966 0,-0.36996 0.039,-0.078 0.14604,-0.10698 0.18505,-0.18498 0.005,-0.01 0.005,-0.54526 0,-0.55493 -0.039,-0.078 -0.12634,-0.12049 -0.18505,-0.18498"
             id="path3299"
             inkscape:connector-curvature="0"
             sodipodi:nodetypes="cscccccccccc" />
          <path
             style="fill:none;fill-rule:evenodd;stroke:#000000;stroke-width:1.00019777;stroke-linecap:round;stroke-linejoin:round;stroke-miterlimit:4;stroke-dasharray:none;stroke-opacity:1"
             d="m 414.54406,415.72842 c 0.53286,0.41587 0.56735,0.17826 1.04246,0.65901 0.0867,0.0877 0.55612,0.83523 0.55612,0.95855 0,0.84825 0.039,-0.19498 -0.18505,0.9249 -0.0242,0.12092 0.0242,0.24903 0,0.36995 -0.0803,0.40105 -0.34083,0.93778 -0.55516,1.29486 -0.11443,0.19063 -0.25568,0.3643 -0.3701,0.55493 -0.071,0.11823 -0.0875,0.27247 -0.18506,0.36996 -0.0975,0.0975 -0.25976,0.10225 -0.3701,0.18498 -0.13958,0.10464 -0.24674,0.24664 -0.3701,0.36996 -0.18506,0.0617 -0.3879,0.0847 -0.55516,0.18498 -0.14961,0.0897 -0.2205,0.28023 -0.3701,0.36995 -0.16727,0.10032 -0.38069,0.0978 -0.55516,0.18498 -0.19893,0.0994 -0.35623,0.27054 -0.55516,0.36996 -0.17447,0.0872 -0.3701,0.12332 -0.55515,0.18498 -0.18505,0.0617 -0.37011,0.12332 -0.55516,0.18498 -0.18505,0.0617 -0.36275,0.15292 -0.55516,0.18498 -0.30422,0.0507 -0.62283,-0.0605 -0.92526,0 -1.31712,0.26332 0.0656,0.24761 -0.92526,0 -0.11968,-0.0299 -0.25555,0.0458 -0.3701,0 -0.2065,-0.0826 -0.36445,-0.25558 -0.55516,-0.36996 -0.4649,-0.27884 -0.35004,-0.0674 -0.7402,-0.55494 -0.13894,-0.1736 -0.23117,-0.38133 -0.37011,-0.55493 -0.10899,-0.13619 -0.28034,-0.22042 -0.3701,-0.36996 -0.10036,-0.1672 -0.0978,-0.38054 -0.18505,-0.55494 -0.0995,-0.19884 -0.28751,-0.34852 -0.37011,-0.55494 -0.0458,-0.11449 0.0242,-0.24903 0,-0.36995 -0.0383,-0.1912 -0.15298,-0.36261 -0.18505,-0.55494 -0.0155,-0.0932 -0.0291,-1.14943 0,-1.29485 0.15991,-0.79924 0.34586,-0.48224 0.55516,-1.10987 0.0195,-0.0585 0,-0.12332 0,-0.18498 0.0617,-0.0617 0.14604,-0.10699 0.18505,-0.18498 0.0276,-0.0552 -0.0436,-0.14138 0,-0.18498 0.0436,-0.0436 0.14143,0.0436 0.18505,0 0.0436,-0.0436 -0.0601,-0.17115 0,-0.18498"
             id="path3317"
             inkscape:connector-curvature="0"
             sodipodi:nodetypes="ccscccccccscsccccccccccsccccccccscc" />
          <path
             style="fill:none;fill-rule:evenodd;stroke:#000000;stroke-width:1.00019777;stroke-linecap:round;stroke-linejoin:round;stroke-miterlimit:4;stroke-dasharray:none;stroke-opacity:1"
             d="m 414.54406,403.72842 c 0.22444,-0.0853 0.43453,-0.23072 0.67332,-0.25585 0.0613,-0.007 -0.0195,0.12648 0,0.18498 0.0872,0.2616 0.3032,0.4724 0.3701,0.73992 0.0299,0.11963 -0.0299,0.25032 0,0.36995 0.0335,0.13376 0.12337,0.24664 0.18505,0.36996 0.0617,0.18498 0.1468,0.36374 0.18506,0.55494 0.0484,0.24185 0,0.49327 0,0.73991 0,0.15144 0.04,0.80505 0,0.9249 -0.0436,0.1308 -0.12337,0.24664 -0.18506,0.36995 -0.67086,1.34121 0.19507,-0.29247 -0.3701,0.55494 -0.31523,0.47266 -0.0216,0.33987 -0.55516,0.73992 -0.11034,0.0827 -0.25976,0.10225 -0.3701,0.18497 -0.13958,0.10464 -0.23387,0.26102 -0.3701,0.36996 -0.68208,0.54544 -0.3487,0.20914 -0.92526,0.55494 -0.43447,0.26057 -0.50226,0.3858 -0.92526,0.55494 -0.18112,0.0724 -0.37011,0.12331 -0.55516,0.18497 -0.18505,0.0617 -0.36388,0.14674 -0.55516,0.18498 -0.12097,0.0242 -0.24913,-0.0242 -0.3701,0 -0.19128,0.0382 -0.3601,0.18498 -0.55516,0.18498 -0.13793,0 -0.23629,-0.15154 -0.3701,-0.18498 -0.11969,-0.0299 -0.24913,0.0242 -0.37011,0 -0.19127,-0.0382 -0.3701,-0.12332 -0.55515,-0.18498 -0.18505,-0.0617 -0.37405,-0.11256 -0.55516,-0.18497 -0.423,-0.16914 -0.4908,-0.29437 -0.92526,-0.55494 -0.11827,-0.0709 -0.25976,-0.10225 -0.3701,-0.18498 -0.13958,-0.10464 -0.23053,-0.26532 -0.37011,-0.36996 -0.11034,-0.0827 -0.25976,-0.10225 -0.3701,-0.18498 -0.13957,-0.10464 -0.23053,-0.26531 -0.3701,-0.36995 -0.11035,-0.0827 -0.27258,-0.0875 -0.37011,-0.18498 -0.0118,-0.0118 -0.34712,-0.70546 -0.3701,-0.73992 -0.0484,-0.0725 -0.15747,-0.10225 -0.18505,-0.18498 -0.039,-0.11699 0.0299,-0.25032 0,-0.36995 -0.0335,-0.13376 -0.14144,-0.23916 -0.18506,-0.36996 -0.0214,-0.0643 -0.0118,-0.87771 0,-0.9249 0.0335,-0.13375 0.13383,-0.24194 0.18506,-0.36995 0.0724,-0.18104 0.1126,-0.3739 0.18505,-0.55494 0.10245,-0.25603 0.24673,-0.49328 0.3701,-0.73992 0.0617,-0.12331 0.10855,-0.25523 0.18505,-0.36995 0.0968,-0.14511 0.29208,-0.21397 0.37011,-0.36996 0.0552,-0.1103 -0.0552,-0.25966 0,-0.36996 0.039,-0.078 0.18505,-0.0978 0.18505,-0.18498 0,-0.0617 -0.18505,-0.0617 -0.18505,0 0,0.0553 0.61374,-0.12177 0,0.18498 -0.0552,0.0276 -0.24639,-0.007 -0.18505,0"
             id="path3323"
             inkscape:connector-curvature="0"
             sodipodi:nodetypes="ccsccccsccscsscccccscccccccccccccccccccccsscc" />
          <path
             style="fill:none;fill-rule:evenodd;stroke:#000000;stroke-width:1.00019777;stroke-linecap:round;stroke-linejoin:round;stroke-miterlimit:4;stroke-dasharray:none;stroke-opacity:1"
             d="m 407.8153,395.14852 c -0.0205,-0.0581 -0.12337,0 -0.18506,0 -0.35483,0 -0.28649,-0.0836 -0.55515,0.18498 -0.4243,0.42413 0.078,-0.11699 -0.37011,0.55494 -0.22573,0.33846 -0.23593,0.0184 -0.3701,0.55494 -0.0598,0.23927 0.0598,0.50064 0,0.73991 -0.0334,0.13376 -0.18505,0.23208 -0.18505,0.36996 0,0.13787 0.158,0.23476 0.18505,0.36996 0.0363,0.18138 -0.0363,0.37355 0,0.55493 0.0773,0.38616 0.32256,0.44929 0.55516,0.73992 0.13893,0.1736 0.23116,0.38133 0.3701,0.55494 0.10899,0.13618 0.24674,0.24663 0.3701,0.36995 0.18506,0.18498 0.33741,0.40983 0.55516,0.55494 0.1623,0.10816 0.38069,0.0978 0.55516,0.18498 1.08136,0.54046 0.025,0.24497 1.11031,0.55493 0.24454,0.0698 0.48784,0.15345 0.74021,0.18498 0.42845,0.0535 0.86357,0 1.29536,0 0.24674,0 0.49595,0.0349 0.74021,0 0.1931,-0.0276 0.3701,-0.12332 0.55516,-0.18498 0.18505,-0.0617 0.3701,-0.12331 0.55515,-0.18497 0.18505,-0.0617 0.38789,-0.0847 0.55516,-0.18498 0.1496,-0.0897 0.24673,-0.24664 0.3701,-0.36996 0.43581,-0.43563 0.39005,-0.34152 0.74021,-0.92489 0.071,-0.11823 0.11409,-0.25174 0.18505,-0.36996 0.11443,-0.19064 0.27064,-0.35609 0.37011,-0.55494 0.17446,-0.3488 0.22521,-0.74779 0.3701,-1.10987 0.10245,-0.25603 0.3032,-0.4724 0.3701,-0.73992 0.0299,-0.11963 -0.0299,-0.25032 0,-0.36995 0.0335,-0.13376 0.14144,-0.23916 0.18506,-0.36996 0.0167,-0.0501 0.007,-0.90398 0,-0.9249 -0.0276,-0.0827 -0.15747,-0.10225 -0.18506,-0.18497 -0.039,-0.117 0.0299,-0.25033 0,-0.36996 -0.11189,-0.44741 -0.34704,-0.42787 -0.55515,-0.73992 -0.0765,-0.11472 -0.10855,-0.25524 -0.18505,-0.36996 -0.16972,-0.25447 -0.28549,-0.19024 -0.55516,-0.36995 -0.0726,-0.0484 -0.11247,-0.13661 -0.18505,-0.18498 -0.11477,-0.0765 -0.24674,-0.12332 -0.37011,-0.18498 -0.12336,-0.0617 -0.23629,-0.15154 -0.3701,-0.18498 -0.11969,-0.0299 -0.25042,0.0299 -0.3701,0 -0.13382,-0.0334 -0.2363,-0.15154 -0.37011,-0.18498 -0.11968,-0.0299 -0.24673,0 -0.3701,0 l -0.37011,0 -0.55515,0 c -0.12337,0 -0.24914,-0.0242 -0.37011,0 -0.19127,0.0382 -0.36275,0.15293 -0.55515,0.18498 -0.36507,0.0608 -0.7474,-0.0726 -1.11032,0 -0.13525,0.027 -0.24203,0.13377 -0.3701,0.18498 -0.18111,0.0724 -0.37405,0.11256 -0.55516,0.18498 -0.25612,0.10241 -0.4785,0.28276 -0.7402,0.36996 -0.0585,0.0195 -0.12654,-0.0195 -0.18506,0 -0.13523,0.0451 -0.47046,0.20064 -0.55515,0.36995 -0.0276,0.0552 0.0276,0.12983 0,0.18498 -0.039,0.078 -0.13666,0.11243 -0.18505,0.18498 -0.62324,0.93448 -10e-4,0.004 -0.18506,0.55494 -0.0436,0.1308 -0.158,0.23476 -0.18505,0.36996 -0.0363,0.18138 0,0.36995 0,0.55493"
             id="path3325"
             inkscape:connector-curvature="0"
             sodipodi:nodetypes="csccccscccccscccsccccscscsccccccccccccccscsccccccccccccc" />
          <path
             style="fill:none;fill-rule:evenodd;stroke:#000000;stroke-width:1.00019777;stroke-linecap:round;stroke-linejoin:round;stroke-miterlimit:4;stroke-dasharray:none;stroke-opacity:1"
             d="m 415.40243,389.2292 c -0.11704,0.039 -0.24674,0 -0.3701,0 l -2.03558,0 -0.55515,0 c -0.18505,0 -0.3737,0.0363 -0.55516,0 -0.13525,-0.027 -0.24204,-0.13377 -0.3701,-0.18498 -0.18111,-0.0724 -0.37011,-0.12332 -0.55516,-0.18497 -0.41568,-0.13851 -1.13275,-0.29429 -1.48042,-0.55494 -0.13957,-0.10464 -0.23052,-0.26532 -0.3701,-0.36996 -0.11034,-0.0827 -0.25976,-0.10225 -0.3701,-0.18498 -0.13958,-0.10464 -0.23053,-0.26532 -0.37011,-0.36996 -0.11034,-0.0827 -0.27257,-0.0875 -0.3701,-0.18497 -0.0119,-0.0118 -0.34713,-0.70546 -0.37011,-0.73992 -0.0484,-0.0726 -0.14604,-0.10698 -0.18505,-0.18498 -0.0276,-0.0552 0.0195,-0.12648 0,-0.18498 -0.0436,-0.1308 -0.14143,-0.23916 -0.18505,-0.36995 -0.0232,-0.0696 -0.005,-0.90966 0,-0.9249 0.0552,-0.16545 0.27333,-0.22485 0.3701,-0.36996 0.17979,-0.26956 0.11553,-0.38528 0.37011,-0.55493 0.11476,-0.0765 0.25976,-0.10226 0.3701,-0.18498 0.13958,-0.10464 0.23053,-0.26532 0.37011,-0.36996 0.11034,-0.0827 0.24673,-0.12332 0.3701,-0.18498 l 0.74021,-0.36996 0.74021,-0.36995 c 0.12337,-0.0617 0.23629,-0.15154 0.3701,-0.18498 0.11969,-0.0299 0.25042,0.0299 0.37011,0 0.13381,-0.0334 0.23629,-0.15154 0.3701,-0.18498 0.11968,-0.0299 0.25042,0.0299 0.3701,0 0.13381,-0.0334 0.2363,-0.15154 0.37011,-0.18498 0.14556,-0.0364 0.91787,0 1.11031,0 0.7229,0 0.0195,-0.0551 0.74021,0.18498 0.16174,0.0539 0.99885,-0.0557 1.11031,0 0.078,0.039 0.10703,0.14598 0.18505,0.18498 0.034,0.017 0.55516,-0.0136 0.55516,0 0,0.2485 -0.55028,0.19552 -0.55516,0.18498"
             id="path3327"
             inkscape:connector-curvature="0"
             sodipodi:nodetypes="cscsccccccccccsccccscscccccccscccsc" />
          <path
             style="fill:none;fill-rule:evenodd;stroke:#000000;stroke-width:1.00019777;stroke-linecap:round;stroke-linejoin:round;stroke-miterlimit:4;stroke-dasharray:none;stroke-opacity:1"
             d="m 406.51993,377.0206 c -0.0642,-0.10529 0.24913,0.0242 0.37011,0 1.32381,-0.4411 -0.20257,0.002 1.11031,-0.18498 0.25177,-0.036 0.48743,-0.1569 0.74021,-0.18498 0.30653,-0.0341 0.61837,0.0307 0.92526,0 0.31296,-0.0313 0.61265,-0.15026 0.92526,-0.18498 0.49045,-0.0545 0.99075,0.0612 1.48041,0 0.25237,-0.0315 0.48844,-0.14902 0.74021,-0.18497 0.18319,-0.0262 0.3737,0.0363 0.55516,0 1.20112,-0.24013 -0.41242,-0.18498 0.74021,-0.18498 0.72289,0 0.0195,0.0551 0.7402,-0.18498 0.0585,-0.0195 0.12988,0.0276 0.18506,0 0.078,-0.039 0.10702,-0.14598 0.18505,-0.18498 0.0552,-0.0276 0.18505,0.0617 0.18505,0 0,-0.27218 -0.48289,-0.18498 -0.55516,-0.18498 -0.51317,0 0.2954,0.0276 -0.55515,-0.18498 -0.11969,-0.0299 -0.24914,0.0242 -0.37011,0 -1.52151,-0.50697 0.39013,0.065 -1.11031,-0.18498 -0.38482,-0.0641 -0.7352,-0.26282 -1.11031,-0.36995 -0.24455,-0.0698 -0.49567,-0.11514 -0.74021,-0.18498 -0.18756,-0.0536 -0.3676,-0.13142 -0.55516,-0.18498 -0.48908,-0.13969 -1.00414,-0.19143 -1.48041,-0.36996 -0.2583,-0.0968 -0.48665,-0.26133 -0.74021,-0.36996 -0.17929,-0.0768 -0.38789,-0.0847 -0.55516,-0.18498 -0.1496,-0.0897 -0.22049,-0.28023 -0.3701,-0.36995 -0.16726,-0.10032 -0.38789,-0.0847 -0.55516,-0.18498 -0.2244,-0.13459 -0.3701,-0.36996 -0.55515,-0.55494 -0.005,-0.005 -0.70284,-0.6652 -0.74021,-0.73991 -0.0552,-0.1103 0.0552,-0.25966 0,-0.36996 -0.039,-0.078 -0.18505,-0.0978 -0.18505,-0.18498 0,-0.0872 0.14604,-0.10699 0.18505,-0.18498 0.12763,-0.25515 -0.22411,-0.16546 0.18505,-0.36996 0.0552,-0.0276 0.12988,0.0276 0.18505,0 0.28343,-0.14165 0.14472,-0.32963 0.37011,-0.55493 0.0119,-0.0118 0.70574,-0.34699 0.74021,-0.36996 0.21775,-0.14511 0.34579,-0.39798 0.55515,-0.55494 0.22069,-0.16545 0.54515,-0.17497 0.74021,-0.36995 0.0975,-0.0975 0.0875,-0.27247 0.18505,-0.36996 0.0975,-0.0975 0.24674,-0.12332 0.37011,-0.18498 0.12336,-0.0617 0.23485,-0.15794 0.3701,-0.18498 0.18146,-0.0363 0.3737,0.0363 0.55516,0 0.13525,-0.027 0.23485,-0.15794 0.3701,-0.18498 0.18146,-0.0363 0.37262,0.0304 0.55516,0 0.1924,-0.0321 0.3701,-0.12332 0.55515,-0.18498 0.24674,-0.0617 0.48844,-0.14902 0.74021,-0.18498 0.18319,-0.0262 0.37011,0 0.55516,0 0.24673,-0.0617 0.48934,-0.14318 0.74021,-0.18498 0.12168,-0.0203 0.24673,0 0.3701,0 l 1.48042,0 c 0.0617,0 0.14143,-0.0436 0.18505,0 0.0436,0.0436 -0.0436,0.14138 0,0.18498 0.0272,0.0272 0.55515,-0.0218 0.55515,0 0,0.30675 -0.25951,0.12971 -0.3701,0.18498 -0.64899,0.32437 0.68809,0.24105 -0.85837,0.14174"
             id="path3329"
             inkscape:connector-curvature="0"
             sodipodi:nodetypes="cccccccccscccssccccccccccccccscccccscccccccccccsscsscc" />
          <path
             style="fill:none;fill-rule:evenodd;stroke:#000000;stroke-width:1.00019777;stroke-linecap:round;stroke-linejoin:round;stroke-miterlimit:4;stroke-dasharray:none;stroke-opacity:1"
             d="m 414.54406,361.72842 c 0.22444,-0.39031 0.56046,-0.7351 0.67332,-1.17093 0.0309,-0.11939 -0.24674,0 -0.37011,0 l -0.7402,0 -3.14589,0 c -0.30842,0 -0.61837,-0.0307 -0.92526,0 -0.31297,0.0313 -0.61229,0.15369 -0.92526,0.18498 -0.30689,0.0307 -0.61684,0 -0.92526,0 l -2.03557,0 c -0.24674,0 -0.49595,-0.0349 -0.74021,0 -0.1931,0.0276 -0.36275,0.15292 -0.55516,0.18497 -0.30422,0.0507 -0.61684,0 -0.92526,0 l -0.3701,0 c -0.0617,0 -0.18505,-0.0617 -0.18505,0 0,0.17647 0.25951,0.22183 0.3701,0.18498 1.35796,-0.45247 -1.14018,0.0962 1.11031,-0.18498 0.25237,-0.0315 0.49168,-0.23896 0.74021,-0.18497"
             id="path3331"
             inkscape:connector-curvature="0"
             sodipodi:nodetypes="ccscsccssccsssccc" />
          <path
             style="fill:none;fill-rule:evenodd;stroke:#000000;stroke-width:1.00019777;stroke-linecap:round;stroke-linejoin:round;stroke-miterlimit:4;stroke-dasharray:none;stroke-opacity:1"
             d="m 414.54406,361.72842 c 0.16275,0.71956 0.3111,1.44253 0.48827,2.15868 0.0148,0.0599 0,-0.12331 0,-0.18497 0,-0.12332 0.0299,-0.25032 0,-0.36996 -0.51454,-1.02866 0.0603,0.25842 -0.18506,-0.73992 -0.0728,-0.29634 -0.30321,-0.55868 -0.30321,-0.86383 0,-0.28547 0.24091,-0.52238 0.30321,-0.80098 0,-1.41113 -0.0828,0.14593 0.18506,-0.92489 0.0364,-0.14551 0,-0.91751 0,-1.10987 0,-0.12332 -0.039,-0.25297 0,-0.36996 0.0276,-0.0827 0.15746,-0.10225 0.18505,-0.18498 0.0585,-0.17549 0,-0.36996 0,-0.55494 0,-0.0731 -0.0395,-0.84589 0,-0.92489 0.039,-0.078 0.14604,-0.10699 0.18505,-0.18498 0.019,-0.038 0.0261,-0.52885 0,-0.55493 -0.0436,-0.0436 -0.14144,-0.0436 -0.18505,0 -0.0436,0.0436 0,0.12331 0,0.18497 -0.22444,-0.19151 -0.44888,-0.38303 -0.67332,-0.57455"
             id="path3333"
             inkscape:connector-curvature="0" />
          <path
             style="fill:none;fill-rule:evenodd;stroke:#ff3a00;stroke-width:3.00059343;stroke-linecap:round;stroke-linejoin:round;stroke-opacity:1;fill-opacity:1;stroke-miterlimit:4;stroke-dasharray:none"
             d="m 395.98583,435.36222 c -0.12408,0.6484 -0.13067,1.3308 -0.37223,1.94521 -0.0627,0.15959 -0.76146,-0.12686 -0.78511,-0.1308 -0.12908,-0.0215 -0.26171,0 -0.39256,0 -0.17447,0 -0.34894,0 -0.5234,0 -0.13086,0 -0.26272,0.0162 -0.39256,0 -0.22069,-0.0276 -0.43321,-0.10625 -0.65426,-0.1308 -0.3468,-0.0385 -0.70057,0.0433 -1.04681,0 -0.17845,-0.0223 -0.34537,-0.10538 -0.52341,-0.1308 -0.25907,-0.037 -0.52696,0.043 -0.7851,0 -0.13606,-0.0227 -0.25651,-0.10814 -0.39256,-0.1308 -0.12907,-0.0215 -0.2617,0 -0.39255,0 -0.13086,-0.0436 -0.25731,-0.10376 -0.39256,-0.1308 -0.2097,-0.0419 -0.44456,0.0419 -0.65426,0 -0.0956,-0.0191 -0.16708,-0.10716 -0.2617,-0.1308 -0.0846,-0.0211 -0.17447,0 -0.2617,0 -0.17447,0 -0.34894,0 -0.52341,0 -0.0436,0 -0.0872,0 -0.13085,0 -0.0436,0 -0.0918,0.0195 -0.13085,0 -0.0552,-0.0276 -0.0757,-0.10323 -0.13085,-0.1308 -0.0822,-0.0411 -0.44117,0.0411 -0.52341,0 -0.32339,-0.16163 0.0452,-0.1308 -0.2617,-0.1308 -0.0436,0 -0.13085,-0.0436 -0.13085,0 0,0.0436 0.0872,0 0.13085,0 0.0436,0 0.17184,0.0149 0.13085,0 -0.86294,-0.31365 -1.73584,-0.59921 -2.60375,-0.89881"
             id="path3335"
             inkscape:connector-curvature="0" />
          <path
             style="fill:none;fill-rule:evenodd;stroke:#ff3a00;stroke-width:3.00059343;stroke-linecap:round;stroke-linejoin:round;stroke-opacity:1;fill-opacity:1;stroke-miterlimit:4;stroke-dasharray:none"
             d="m 395.9204,434.02152 c -0.0368,0.7792 -0.0715,1.55851 -0.11053,2.33761 -0.002,0.0435 -0.0195,-0.0918 0,-0.1308 0.19253,-0.38492 0.13085,0.20303 0.13085,-0.3924 0,-0.30675 -0.0308,0.0617 0.13085,-0.2616 0.0291,-0.0582 -0.0199,-0.46338 0,-0.5232 0.0195,-0.0585 0.10327,-0.0757 0.13085,-0.1308 0.0195,-0.039 0,-0.0872 0,-0.1308 0,-0.0436 0.015,-0.0899 0,-0.1308 -0.0801,-0.21804 -0.35549,-0.41687 -0.28202,-0.63721 0.0506,-0.15174 0.25299,0.25131 0.41288,0.24481 0.002,-6e-5 0,-0.45821 0,-0.5232 0,-0.29551 -0.0195,0.0585 0.13085,-0.3924 0.0274,-0.0823 0,-0.5361 0,-0.654 0,-0.0436 0.0308,-0.1 0,-0.1308 -0.0308,-0.0308 -0.10001,0.0308 -0.13085,0 -0.0308,-0.0308 0.0195,-0.0918 0,-0.1308 -0.0276,-0.0551 -0.10327,-0.0756 -0.13086,-0.1308 -0.0195,-0.039 0.0195,-0.0918 0,-0.1308 -0.14466,-0.2892 -0.0812,-0.0406 -0.2617,-0.1308 -0.0552,-0.0276 -0.0757,-0.10322 -0.13085,-0.1308 -0.039,-0.0195 -0.0918,0.0195 -0.13085,0 -0.0552,-0.0276 -0.0723,-0.1113 -0.13085,-0.1308 -0.0599,-0.0199 -0.58123,0 -0.65426,0 l -0.65426,0 c -0.0872,0 -0.17894,-0.0276 -0.2617,0 -0.0585,0.0195 -0.0723,0.11131 -0.13085,0.1308 -0.0828,0.0276 -0.17895,-0.0276 -0.26171,0 -0.0585,0.0195 -0.0795,0.0966 -0.13085,0.1308 -0.1623,0.10816 -0.3611,0.15345 -0.52341,0.2616 -0.0513,0.0342 -0.0795,0.0966 -0.13085,0.1308 -0.0811,0.0541 -0.18055,0.0767 -0.2617,0.1308 -0.0513,0.0342 -0.0795,0.0966 -0.13085,0.1308 -0.0811,0.0541 -0.18055,0.0767 -0.2617,0.1308 -0.15896,0.10593 -0.10275,0.15567 -0.26171,0.2616 -0.0811,0.0541 -0.18055,0.0767 -0.2617,0.1308 -0.0513,0.0342 -0.0872,0.0872 -0.13085,0.1308 -0.0436,0.0436 -0.10327,0.0756 -0.13085,0.1308 -0.0195,0.039 0.0138,0.0894 0,0.1308 -0.0308,0.0925 -0.10001,0.16911 -0.13086,0.2616 -0.0138,0.0414 0.0138,0.0894 0,0.1308 -0.0308,0.0925 -0.10719,0.16702 -0.13085,0.2616 -0.0212,0.0846 0.0276,0.17887 0,0.2616 -0.0195,0.0585 -0.11134,0.0723 -0.13085,0.1308 -0.0199,0.0598 0.0291,0.465 0,0.5232 -0.0276,0.0552 -0.10326,0.0756 -0.13085,0.1308 -0.0134,0.0268 -0.0185,0.37395 0,0.3924 0.0308,0.0308 0.10001,0.0308 0.13085,0 0.0308,-0.0308 0.0231,-0.0938 0,-0.1308"
             id="path3337"
             inkscape:connector-curvature="0"
             sodipodi:nodetypes="cccssccscccscssccccccccssccccccscccsccccccccscccc" />
          <path
             style="fill:none;fill-rule:evenodd;stroke:#ff3a00;stroke-width:3.00059343;stroke-linecap:round;stroke-linejoin:round;stroke-opacity:1;fill-opacity:1;stroke-miterlimit:4;stroke-dasharray:none"
             d="m 392.0806,429.19782 c -1.02537,-0.1025 -0.28495,0.0317 -1.17766,0.1308 -0.21675,0.0241 -0.43617,0 -0.65426,0 l -1.04681,0 c -0.17447,0 -0.35069,-0.0247 -0.52341,0 -0.13654,0.0195 -0.2565,0.10813 -0.39255,0.1308 -0.0507,0.009 -0.98294,0.016 -1.04681,0 -0.0946,-0.0236 -0.16709,-0.10716 -0.26171,-0.1308 -0.0971,-0.0243 -0.48324,0.0401 -0.5234,0 -0.0308,-0.0308 -0.0308,-0.1 0,-0.1308 0.0308,-0.0308 0.0872,0 0.13085,0 l 0.13085,0 1.57022,0 1.83192,0 c 0.21809,0 0.43725,0.0217 0.65426,0 0.2213,-0.0221 0.43617,-0.0872 0.65426,-0.1308 0.2617,0 0.52448,0.0237 0.78511,0 0.22149,-0.0201 0.43295,-0.10868 0.65425,-0.1308 0.21701,-0.0217 0.43786,0.027 0.65426,0 0.13687,-0.0171 0.25993,-0.0929 0.39256,-0.1308 0.17291,-0.0494 0.35279,-0.0739 0.5234,-0.1308 0.10559,-0.0352 0.70013,-0.32869 0.78511,-0.3924 0.0987,-0.074 0.17447,-0.1744 0.2617,-0.2616 0.0436,-0.0436 0.10327,-0.0756 0.13086,-0.1308 0.0617,-0.12332 0.0872,-0.2616 0.13085,-0.3924 0.0436,-0.1308 0.10817,-0.2564 0.13085,-0.3924 0.0215,-0.12902 0,-0.2616 0,-0.3924 l 0,-0.3924 0,-0.39239 c 0,-0.1308 0.0215,-0.26338 0,-0.3924 -0.0361,-0.21627 -0.26155,-0.71917 -0.39256,-0.9156 -0.0342,-0.0513 -0.0966,-0.0795 -0.13085,-0.1308 -0.0541,-0.0811 -0.0497,-0.20752 -0.13085,-0.2616 -0.0726,-0.0484 -0.17894,0.0276 -0.2617,0 -0.0585,-0.0195 -0.0723,-0.1113 -0.13085,-0.1308 -0.86796,0 0.18505,0.0617 -0.39256,-0.1308 -0.22501,-0.075 -0.45504,0.091 -0.65426,0.1308 -0.0855,0.0171 -0.17616,-0.0171 -0.2617,0 -0.43398,0.0868 -0.30532,0.12208 -0.65426,0.2616 -0.12806,0.0512 -0.27428,0.0599 -0.39255,0.1308 -0.10579,0.0634 -0.17447,0.1744 -0.2617,0.2616 -0.0872,0.0872 -0.18769,0.16294 -0.26171,0.2616 -0.0585,0.078 -0.0723,0.1836 -0.13085,0.2616 -0.074,0.0987 -0.19823,0.15585 -0.2617,0.2616 -0.24828,0.41363 -0.0587,0.3521 -0.13085,0.78479 -0.17223,1.03298 -0.13086,-0.23545 -0.13086,0.7848 l 0,0.9156 c 0,0.0436 0.0309,0.1 0,0.1308 -0.0308,0.0308 -0.1,-0.0308 -0.13085,0 -0.0308,0.0308 -0.0436,0.1308 0,0.1308 0.0436,0 0.0195,-0.0918 0,-0.1308 -0.0552,-0.1103 -0.19327,-0.15899 -0.2617,-0.2616 -0.0541,-0.0811 -0.0619,-0.19266 -0.13085,-0.2616 -0.069,-0.0689 -0.19274,-0.0619 -0.2617,-0.1308 -0.069,-0.0689 -0.0807,-0.178 -0.13086,-0.2616 -0.0809,-0.1348 -0.16346,-0.26964 -0.2617,-0.3924 -0.74581,-0.93189 0.28209,0.55377 -0.52341,-0.654 -0.80549,-1.20777 0.22241,0.2779 -0.5234,-0.65399 -0.0982,-0.12276 -0.16346,-0.26965 -0.2617,-0.3924 -0.0771,-0.0963 -0.17447,-0.1744 -0.26171,-0.2616 -0.0872,-0.0872 -0.15591,-0.19816 -0.2617,-0.2616 -0.11827,-0.0709 -0.27428,-0.0599 -0.39256,-0.1308 -0.10578,-0.0635 -0.163,-0.18761 -0.2617,-0.2616 -0.17535,-0.13147 -0.46576,-0.18623 -0.65426,-0.2616 -0.0906,-0.0362 -0.17114,-0.0946 -0.2617,-0.1308 -0.17704,-0.26953 -0.44326,-0.0605 -0.65426,-0.1308 -0.0585,-0.0195 -0.0757,-0.10323 -0.13085,-0.1308 -0.039,-0.0195 -0.0918,0.0195 -0.13085,0 -0.0552,-0.0276 -0.0696,-0.12368 -0.13085,-0.1308"
             id="path3339"
             inkscape:connector-curvature="0"
             sodipodi:nodetypes="ccsscccccssccsccccccccccccscsccccccccccccccccssccsccccccscccccccccccc" />
          <path
             style="fill:none;fill-rule:evenodd;stroke:#ff3a00;stroke-width:3.00059343;stroke-linecap:round;stroke-linejoin:round;stroke-opacity:1;fill-opacity:1;stroke-miterlimit:4;stroke-dasharray:none"
             d="m 386.45399,414.54827 c -0.13537,0 -0.18086,-0.0308 -0.2617,0.1308 -0.0195,0.039 0.0195,0.0918 0,0.1308 -0.16622,0.3323 -0.1564,-0.13396 -0.26171,0.39239 -0.0257,0.12826 0.0215,0.26338 0,0.3924 -0.10881,0.65264 -0.22851,0.13463 -0.13085,0.9156 0.0223,0.17838 0.0918,0.34771 0.13085,0.5232 0.0482,0.21702 0.0826,0.43698 0.13085,0.654 0.14253,0.64113 0.0891,0.43968 0.39256,1.0464 0.0872,0.1744 0.13683,0.37341 0.2617,0.5232 0.10068,0.12076 0.27174,0.16096 0.39256,0.2616 0.14216,0.11842 0.23188,0.30062 0.39255,0.3924 0.15614,0.0892 0.34894,0.0872 0.52341,0.1308 0.60866,0.1521 1.19525,0.32524 1.83192,0.2616 0.2213,-0.0221 0.43276,-0.11068 0.65426,-0.1308 1.08254,-0.0984 0.46472,0.1349 1.43936,-0.1308 1.72643,-0.47066 0.004,-0.034 1.30852,-0.5232 0.16839,-0.0631 0.37377,-0.0311 0.5234,-0.1308 0.13086,-0.0872 0.16346,-0.26965 0.26171,-0.3924 0.0771,-0.0963 0.19823,-0.15586 0.2617,-0.2616 0.071,-0.11823 0.0872,-0.2616 0.13085,-0.3924 0.0436,-0.1308 0.10818,-0.2564 0.13085,-0.3924 0.0215,-0.12902 0,-0.2616 0,-0.3924 l 0,-0.3924 0,-0.5232 c 0,-0.1308 0.0215,-0.26338 0,-0.3924 -0.0227,-0.136 -0.0872,-0.2616 -0.13085,-0.3924 -0.0872,-0.2616 -0.15925,-0.52877 -0.2617,-0.7848 -0.11965,-0.29899 -0.20823,-0.34691 -0.39256,-0.65399 -0.0502,-0.0836 -0.0619,-0.19267 -0.13085,-0.2616 -0.1112,-0.11116 -0.26975,-0.1634 -0.39255,-0.2616 -0.4057,-0.32443 -0.11726,-0.25481 -0.65426,-0.5232 -0.12337,-0.0617 -0.26919,-0.0691 -0.39255,-0.1308 -0.14067,-0.0703 -0.2519,-0.1913 -0.39256,-0.2616 -0.20916,-0.10454 -0.72031,-0.20572 -0.91596,-0.2616 -0.13262,-0.0379 -0.25601,-0.1113 -0.39255,-0.1308 -0.17272,-0.0247 -0.35029,0.0216 -0.52341,0 -1.27258,-0.31802 0.21903,0.01 -1.04681,-0.1308 -0.22105,-0.0245 -0.43296,-0.10868 -0.65426,-0.1308 -0.217,-0.0217 -0.43617,0 -0.65426,0 -0.17447,0 -0.35069,-0.0247 -0.5234,0 -0.13655,0.0195 -0.25651,0.10813 -0.39256,0.1308 -0.12907,0.0215 -0.26424,-0.0256 -0.39255,0 -0.19668,0.0393 -0.41457,0.24734 -0.52341,0.3924 -0.0585,0.078 -0.0872,0.1744 -0.13085,0.2616 -0.26789,0.53557 -0.2617,0.71992 -0.2617,1.308 0,0.73597 -0.0287,0.4309 0.13085,1.30799 0.0398,0.21873 0.0605,0.44309 0.13085,0.654 0.0617,0.18498 0.18486,0.34398 0.2617,0.5232 0.0543,0.12673 0.0481,0.2821 0.13085,0.3924 0.0585,0.078 0.16709,0.10716 0.26171,0.1308 0.0846,0.0211 0.3489,0.002 0.2617,0"
             id="path3341"
             inkscape:connector-curvature="0"
             sodipodi:nodetypes="ccccccccccccsccsccccccscscccccsccccccccscccccscscccc" />
          <path
             style="fill:none;fill-rule:evenodd;stroke:#ff3a00;stroke-width:3.00059343;stroke-linecap:round;stroke-linejoin:round;stroke-opacity:1;fill-opacity:1;stroke-miterlimit:4;stroke-dasharray:none"
             d="m 395.62599,410.51202 c -0.77833,-0.72558 -1.16279,-0.63926 -1.97517,-1.32655 -0.10528,-0.0891 -0.26918,-0.0691 -0.39255,-0.1308 -0.14066,-0.0703 -0.25601,-0.1836 -0.39256,-0.26159 -0.16936,-0.0967 -0.34893,-0.1744 -0.5234,-0.2616 -0.17447,-0.0872 -0.34516,-0.18241 -0.52341,-0.2616 -0.73151,-0.32499 -0.6415,-0.23319 -1.43937,-0.5232 -0.22074,-0.0802 -0.43351,-0.18136 -0.65425,-0.2616 -0.997,-0.36241 -2.03827,-0.61487 -3.00959,-1.0464 -0.3565,-0.15838 -0.68823,-0.36958 -1.04681,-0.5232 -0.12678,-0.0543 -0.26449,-0.0796 -0.39256,-0.1308 -0.0906,-0.0362 -0.17446,-0.0872 -0.2617,-0.1308 -0.0872,-0.0436 -0.19274,-0.0619 -0.2617,-0.1308 -0.0308,-0.0308 0.0308,-0.1 0,-0.1308 -0.0308,-0.0308 -0.10001,0.0308 -0.13085,0 -0.0308,-0.0308 -0.0308,-0.1 0,-0.1308 6.4e-4,-6.4e-4 0.38751,10e-4 0.39255,0 0.13525,-0.027 0.2617,-0.0872 0.39256,-0.1308 0.89732,-0.29899 -0.21641,0.0541 1.04681,-0.2616 0.50958,-0.12734 1.19818,-0.34367 1.70107,-0.5232 0.48217,-0.17213 1.48481,-0.54591 1.96277,-0.7848 0.31453,-0.1572 0.60143,-0.36599 0.91596,-0.52319 0.29711,-0.1485 0.61436,-0.25326 0.91596,-0.3924 0.44277,-0.20428 0.87235,-0.436 1.30852,-0.654 0.17447,-0.0872 0.34411,-0.18479 0.5234,-0.2616 0.29792,-0.12763 0.40154,-0.0932 0.65426,-0.2616 0.0513,-0.0342 0.0872,-0.0872 0.13085,-0.1308 0.0436,-0.0436 0.10327,-0.0756 0.13085,-0.1308 0.0195,-0.039 -0.0308,-0.1 0,-0.1308 0.0308,-0.0308 0.10001,0.0308 0.13086,0 0.0308,-0.0308 -0.0244,-0.0947 0,-0.1308"
             id="path3343"
             inkscape:connector-curvature="0"
             sodipodi:nodetypes="ccccsscssccccscscccscccsscccscc" />
          <path
             style="fill:none;fill-rule:evenodd;stroke:#ff3a00;stroke-width:3.00059343;stroke-linecap:round;stroke-linejoin:round;stroke-opacity:1;fill-opacity:1;stroke-miterlimit:4;stroke-dasharray:none"
             d="m 395.98583,395.91812 c -1.00039,0 -0.59773,-0.0985 -1.94245,0.0566 -0.12998,0.0149 -0.26171,0 -0.39256,0 l -0.5234,0 -3.27129,0 -0.65426,0 c -0.21809,0 -0.43725,0.0217 -0.65426,0 -0.2213,-0.0221 -0.43321,-0.10625 -0.65426,-0.1308 -0.1734,-0.0193 -0.34893,0 -0.5234,0 l -0.65426,0 c -1.36724,0 0.20018,0.0551 -0.91596,-0.1308 -0.17209,-0.0287 -0.34894,0 -0.52341,0 -0.0782,0 -0.2617,0.0308 -0.2617,-0.1308 0,-0.0436 0.0872,0 0.13085,0 l 0.26171,0 c 1.02066,0 -0.24828,0.0414 0.78511,-0.1308 0.12907,-0.0215 0.48764,0.0899 0.39255,0"
             id="path3345"
             inkscape:connector-curvature="0"
             sodipodi:nodetypes="ccsccsccsscsssscc" />
          <path
             style="fill:none;fill-rule:evenodd;stroke:#ff3a00;stroke-width:3.00059343;stroke-linecap:round;stroke-linejoin:round;stroke-opacity:1;fill-opacity:1;stroke-miterlimit:4;stroke-dasharray:none"
             d="m 385.66888,389.04231 c 0.10178,0.0822 0.2617,0 0.39255,0 0.30532,0 0.61251,-0.0337 0.91596,0 0.22105,0.0246 0.43296,0.10868 0.65426,0.1308 1.89124,0.18905 -0.74294,-0.26583 1.43937,0.1308 0.47954,0.0872 0.95983,0.17444 1.43937,0.2616 0.21881,0.0398 0.43295,0.10868 0.65425,0.1308 0.21701,0.0217 0.43726,-0.0217 0.65426,0 0.2213,0.0221 0.43321,0.10625 0.65426,0.1308 0.1734,0.0193 0.34894,0 0.5234,0 l 0.52341,0 0.78511,0 c 0.13085,0 0.26348,0.0215 0.39255,0 0.13606,-0.0227 0.25731,-0.10376 0.39256,-0.1308 0.0855,-0.0171 0.17616,0.0171 0.2617,0 0.13525,-0.027 0.25731,-0.10376 0.39256,-0.1308 0.0855,-0.0171 0.17447,0 0.2617,0 0.0436,0 0.0918,0.0195 0.13085,0 0.0552,-0.0276 0.0757,-0.10323 0.13085,-0.1308 0.039,-0.0195 0.10001,0.0308 0.13086,0 0.0308,-0.0308 0,-0.0872 0,-0.1308 0,-0.0589 0.0199,-0.35259 0,-0.3924 -0.0276,-0.0552 -0.11135,-0.0723 -0.13086,-0.1308 -0.0276,-0.0827 0.0276,-0.17887 0,-0.2616 -0.0195,-0.0585 -0.0966,-0.0795 -0.13085,-0.1308 -0.0541,-0.0811 -0.0872,-0.1744 -0.13085,-0.2616 -0.0436,-0.0872 -0.1072,-0.16702 -0.13085,-0.2616 -0.0212,-0.0846 0.0171,-0.17609 0,-0.2616 -0.0868,-0.43381 -0.12213,-0.3052 -0.2617,-0.654 -0.15342,-0.38338 -0.23915,-0.79382 -0.39256,-1.1772 -0.0362,-0.0905 -0.0946,-0.17108 -0.13085,-0.26159 -0.19349,-0.48354 -0.0396,-0.34382 -0.39256,-0.7848 -0.0771,-0.0963 -0.17446,-0.1744 -0.2617,-0.2616 -0.17447,-0.1744 -0.33074,-0.36913 -0.5234,-0.5232 -0.12281,-0.0982 -0.26976,-0.1634 -0.39256,-0.2616 -0.0963,-0.077 -0.15592,-0.19815 -0.2617,-0.2616 -0.11828,-0.0709 -0.26171,-0.0872 -0.39256,-0.1308 l -0.39255,-0.1308 c -1.42313,-0.47419 0.34482,0.0689 -0.65426,-0.1308 -0.13525,-0.027 -0.2565,-0.10813 -0.39255,-0.1308 -0.17569,-0.0293 -0.84836,0 -1.04682,0 l -0.91596,0 c -0.13085,0 -0.26424,-0.0256 -0.39255,0 -0.0956,0.0191 -0.16709,0.10715 -0.2617,0.1308 -0.45323,0.11326 -0.0786,-0.16563 -0.52341,0.1308 -0.0513,0.0342 -0.0723,0.1113 -0.13085,0.1308 -0.0827,0.0276 -0.17708,-0.0212 -0.26171,0 -0.31673,0.0791 -0.2627,0.19695 -0.5234,0.3924 -0.15605,0.11699 -0.36736,0.14461 -0.52341,0.2616 -0.0987,0.074 -0.16301,0.18761 -0.2617,0.2616 -0.078,0.0585 -0.18368,0.0723 -0.2617,0.1308 -0.19739,0.14798 -0.32602,0.37521 -0.52341,0.5232 -0.078,0.0585 -0.18055,0.0767 -0.2617,0.1308 -0.0555,0.037 -0.36549,0.33828 -0.39256,0.3924 -0.0195,0.039 0.0195,0.0918 0,0.1308 -0.0276,0.0552 -0.10326,0.0756 -0.13085,0.1308 -0.0147,0.0293 0,0.49211 0,0.52319 0,0.0872 0.0171,0.1761 0,0.2616 -0.027,0.1352 -0.13085,0.25453 -0.13085,0.3924 0,0.0975 0.11172,0.166 0.13085,0.2616 0.0428,0.21377 0,0.436 0,0.654 0,0.0872 -0.0212,0.177 0,0.2616 0.0237,0.0946 0.10001,0.16911 0.13085,0.2616 0.0341,0.10234 -0.0548,0.2616 0,0.2616 0.0436,0 0.0309,-0.10006 0,-0.1308"
             id="path3349"
             inkscape:connector-curvature="0"
             sodipodi:nodetypes="cscscccccscsccccscccscccccccccccccccssccsscccccsccccscscscscsccsc" />
          <path
             style="fill:none;fill-rule:evenodd;stroke:#ff3a00;stroke-width:3.00059343;stroke-linecap:round;stroke-linejoin:round;stroke-opacity:1;fill-opacity:1;stroke-miterlimit:4;stroke-dasharray:none"
             d="m 395.98583,375.36222 c -0.0368,-0.19236 0.0819,-0.61392 -0.11053,-0.57709 -0.19244,0.0368 0.11053,0.38123 0.11053,0.57709 0,0.56714 -0.17959,0.64009 -0.11053,1.12331 0.0254,0.17796 0.10854,0.34482 0.13085,0.5232 0.0216,0.17305 -0.0247,0.35055 0,0.5232 0.0195,0.13649 0.0872,0.2616 0.13085,0.3924 0.0436,0.1308 0.0692,0.26908 0.13085,0.3924 0.0276,0.0551 0.10327,0.0756 0.13086,0.1308 0.0195,0.039 -0.0195,0.0918 0,0.1308 0.017,0.034 0.23314,0.15935 0.13085,0.2616 -0.0308,0.0308 -0.0918,-0.0195 -0.13085,0 -0.0552,0.0276 -0.0757,0.10322 -0.13086,0.1308 -0.0822,0.0411 -0.44116,-0.0411 -0.5234,0 -0.0552,0.0276 -0.0757,0.10322 -0.13085,0.1308 -0.039,0.0195 -0.0872,0 -0.13086,0 l -0.13085,0 -0.65426,0 -1.43936,0 c -0.30532,0 -0.613,-0.0379 -0.91596,0 -0.17845,0.0223 -0.34467,0.11094 -0.52341,0.1308 -0.21675,0.0241 -0.43617,0 -0.65426,0 l -1.57022,0 -0.7851,0 -0.39256,0 c -0.0872,0 -0.17707,0.0212 -0.2617,0 -0.0946,-0.0236 -0.16918,-0.1 -0.26171,-0.1308 -0.0414,-0.0138 -0.0872,0 -0.13085,0 -0.0872,0 -0.17894,0.0276 -0.2617,0 -0.0585,-0.0195 -0.0757,-0.10323 -0.13085,-0.1308 -0.0857,-0.0428 -0.53814,0.0387 -0.65426,0 -0.0925,-0.0308 -0.16918,-0.1 -0.2617,-0.1308 -0.0738,-0.0246 -0.30657,0 -0.39256,0 -0.048,0 -0.51814,0.005 -0.5234,0 -0.0267,-0.0267 0.0259,-0.34054 0,-0.3924 -0.0276,-0.0551 -0.11135,-0.0723 -0.13085,-0.1308 -0.0276,-0.0827 0,-0.1744 0,-0.2616 l 0,-0.3924 0,-0.9156 c 0,-0.1308 -0.0185,-0.26291 0,-0.3924 0.0254,-0.17796 0.10854,-0.34482 0.13085,-0.5232 0.0379,-0.30284 -0.0432,-0.61346 0,-0.9156 0.0254,-0.17796 0.0814,-0.35035 0.13085,-0.5232 0.0379,-0.13257 0.11134,-0.25591 0.13085,-0.39239 0.0247,-0.17265 -0.0247,-0.35056 0,-0.5232 0.039,-0.27298 0.2076,-0.51441 0.2617,-0.7848 0.0171,-0.0855 -0.0212,-0.17701 0,-0.2616 0.15036,-0.6012 0.13086,-0.0297 0.13086,-0.3924 0,-0.0782 -0.0308,-0.2616 0.13085,-0.2616 0.0436,0 -0.0242,0.0945 0,0.1308 0.0684,0.10261 0.17447,0.1744 0.2617,0.2616 0.0436,0.0436 0.17279,0.17601 0.13085,0.1308"
             id="path3355"
             inkscape:connector-curvature="0"
             sodipodi:nodetypes="ccsccccccsccsccsccsccsccsccsccccscccscsccccccccssccc" />
          <path
             style="fill:none;fill-rule:evenodd;stroke:#ff3a00;stroke-width:3.00059343;stroke-linecap:round;stroke-linejoin:round;stroke-opacity:1;fill-opacity:1;stroke-miterlimit:4;stroke-dasharray:none"
             d="m 391.16464,377.53193 c 0.0459,0.0742 0,-0.1744 0,-0.2616 l 0,-0.3924 c 0,-1.02026 -0.0414,0.24818 0.13085,-0.7848 0.043,-0.25804 -0.043,-0.52676 0,-0.7848 0.0227,-0.136 0.10381,-0.2572 0.13086,-0.3924 0.0342,-0.17101 -0.0423,-0.354 0,-0.5232 0.0237,-0.0946 0.10001,-0.16911 0.13085,-0.2616 0.0138,-0.0414 0,-0.0872 0,-0.13079 0,-0.0436 0.0308,-0.1 0,-0.1308 -0.0308,-0.0308 -0.10001,0.0308 -0.13085,0 -0.0308,-0.0308 0.0308,-0.1 0,-0.1308 -0.0308,-0.0308 -0.13086,-0.0436 -0.13086,0 0,0.0436 0.15827,-0.0339 0.13086,0"
             id="path3357"
             inkscape:connector-curvature="0"
             sodipodi:nodetypes="csscccccsscssc" />
          <path
             style="fill:none;fill-rule:evenodd;stroke:#ff3a00;stroke-width:3.00059343;stroke-linecap:round;stroke-linejoin:round;stroke-opacity:1;fill-opacity:1;stroke-miterlimit:4;stroke-dasharray:none"
             d="m 388.80932,367.46035 c -0.13655,-0.0195 -0.25651,-0.10814 -0.39256,-0.1308 -0.21512,-0.0358 -0.44268,0.0529 -0.65426,0 -0.0946,-0.0236 -0.16708,-0.10716 -0.2617,-0.1308 -0.11862,-0.0296 -0.50225,0 -0.65426,0 l -0.13085,0 c -0.0436,0 -0.13085,-0.0436 -0.13085,0 0,0.0436 0.0872,0 0.13085,0 0.15747,0 0.37602,-0.0295 0.52341,0 1.07587,0.35848 -0.27586,-0.046 0.78511,0.1308 0.13605,0.0227 0.25601,0.1113 0.39255,0.1308 0.17272,0.0247 0.35029,-0.0216 0.52341,0 0.17845,0.0223 0.34495,0.1085 0.5234,0.1308 0.17312,0.0216 0.35029,-0.0216 0.52341,0 0.17845,0.0223 0.34467,0.11094 0.52341,0.1308 0.21675,0.0241 0.4375,-0.0241 0.65425,0 0.17874,0.0199 0.34467,0.11094 0.52341,0.1308 0.21675,0.0241 0.43617,0 0.65426,0 l 0.5234,0 c 0.21809,0 0.43786,0.027 0.65426,0 0.13687,-0.0171 0.25601,-0.11131 0.39256,-0.1308 0.17271,-0.0247 0.35069,0.0247 0.5234,0 0.46046,-0.0657 0.37048,-0.18517 0.78511,-0.3924 0.12337,-0.0617 0.27428,-0.0599 0.39256,-0.1308 0.10578,-0.0635 0.16536,-0.18457 0.2617,-0.2616 0.1228,-0.0982 0.2577,-0.18072 0.39255,-0.2616 0.0836,-0.0502 0.19274,-0.0619 0.26171,-0.1308 0.069,-0.0689 0.0807,-0.178 0.13085,-0.2616 0.21942,-0.36556 0.43694,-0.61427 0.5234,-1.0464 0.0171,-0.0855 0,-0.1744 0,-0.2616 l 0,-0.3924 c 0,-0.46811 0.0489,-0.59722 -0.13085,-1.0464 -0.0362,-0.0905 -0.0723,-0.1836 -0.13085,-0.2616 -0.1984,-0.26443 -0.25593,-0.25871 -0.5234,-0.3924 -0.0872,-0.0436 -0.18368,-0.0723 -0.26171,-0.1308 -0.0987,-0.074 -0.15136,-0.20644 -0.2617,-0.2616 -0.078,-0.039 -0.17707,0.0211 -0.2617,0 -0.0946,-0.0237 -0.16709,-0.10715 -0.26171,-0.13079 -0.0846,-0.0211 -0.17447,0 -0.2617,0 l -0.2617,0 c -0.13608,0 -0.68218,-0.0257 -0.78511,0 -0.17092,0.0427 -0.55375,0.33211 -0.65426,0.39239 -0.0836,0.0502 -0.18368,0.0723 -0.2617,0.1308 -0.0987,0.074 -0.17447,0.1744 -0.26171,0.2616 -0.0872,0.0872 -0.17447,0.1744 -0.2617,0.2616 -0.0872,0.0872 -0.17447,0.1744 -0.2617,0.2616 -0.0872,0.0872 -0.19823,0.15586 -0.26171,0.2616 -0.071,0.11823 -0.0872,0.2616 -0.13085,0.3924 -0.37068,1.11161 0.1463,-0.24373 -0.39255,0.654 -0.003,0.004 -0.25492,0.76785 -0.26171,0.7848 -0.0362,0.0905 -0.10719,0.16702 -0.13085,0.2616 -0.0423,0.16919 0.078,0.36721 0,0.5232 -0.0195,0.039 -0.10001,-0.0308 -0.13085,0 -0.0963,0.0962 0.1053,0.23606 0.13085,0.2616 0.0255,0.0255 0.16544,0.22703 0.26171,0.1308 0.0999,-0.0998 -0.11042,-0.23095 -0.13086,-0.2616 -0.0541,-0.0811 -0.0872,-0.1744 -0.13085,-0.2616 -0.0872,-0.1744 -0.17447,-0.3488 -0.2617,-0.5232 -0.0436,-0.0872 -0.0723,-0.18361 -0.13085,-0.2616 -0.074,-0.0987 -0.18768,-0.16294 -0.2617,-0.2616 -0.0585,-0.078 -0.0723,-0.18361 -0.13086,-0.2616 -0.074,-0.0987 -0.17446,-0.1744 -0.2617,-0.2616 -0.0872,-0.0872 -0.17447,-0.1744 -0.2617,-0.2616 -0.17447,-0.1744 -0.33074,-0.36912 -0.52341,-0.5232 -0.2456,-0.1964 -0.5234,-0.3488 -0.78511,-0.5232 -0.13085,-0.0872 -0.248,-0.19967 -0.39255,-0.2616 -0.1653,-0.0708 -0.35049,-0.0814 -0.52341,-0.1308 -0.13262,-0.0379 -0.2617,-0.0872 -0.39255,-0.1308 l -0.78511,-0.2616 c -0.13085,-0.0436 -0.25874,-0.0974 -0.39256,-0.1308 -0.0423,-0.0106 -0.0872,0 -0.13085,0 -0.0872,-0.0436 -0.16918,-0.1 -0.2617,-0.1308 -0.0414,-0.0138 -0.10001,0.0308 -0.13085,0 -0.0308,-0.0308 -0.0308,-0.1 0,-0.13079 0.0308,-0.0308 0.0872,0 0.13085,0 0.0436,0 0.16834,-0.0223 0.13085,0"
             id="path3359"
             inkscape:connector-curvature="0"
             sodipodi:nodetypes="ccccsssscccccccccssccccccccccsscccccccsscccccccccccccccccccccccccccsscccccsc" />
        </g>
      </g>
    </g>
  </g>
</svg>
