<?xml version="1.0" encoding="UTF-8" standalone="no"?>
<!-- Created with Inkscape (http://www.inkscape.org/) -->

<svg
   xmlns:dc="http://purl.org/dc/elements/1.1/"
   xmlns:cc="http://creativecommons.org/ns#"
   xmlns:rdf="http://www.w3.org/1999/02/22-rdf-syntax-ns#"
   xmlns:svg="http://www.w3.org/2000/svg"
   xmlns="http://www.w3.org/2000/svg"
   xmlns:sodipodi="http://sodipodi.sourceforge.net/DTD/sodipodi-0.dtd"
   xmlns:inkscape="http://www.inkscape.org/namespaces/inkscape"
   width="90"
   height="90"
   id="svg4874"
   version="1.1"
   inkscape:version="0.48.5 r10040"
   viewBox="0 0 90 90.000001"
   sodipodi:docname="account-tester.svg">
  <defs
     id="defs4876" />
  <sodipodi:namedview
     id="base"
     pagecolor="#ffffff"
     bordercolor="#666666"
     borderopacity="1.0"
     inkscape:pageopacity="0.0"
     inkscape:pageshadow="2"
     inkscape:zoom="3.517007"
     inkscape:cx="11.084728"
     inkscape:cy="8.1168115"
     inkscape:document-units="px"
     inkscape:current-layer="g4780"
     showgrid="true"
     showborder="true"
     fit-margin-top="0"
     fit-margin-left="0"
     fit-margin-right="0"
     fit-margin-bottom="0"
     inkscape:snap-bbox="true"
     inkscape:bbox-paths="true"
     inkscape:bbox-nodes="true"
     inkscape:snap-bbox-edge-midpoints="true"
     inkscape:snap-bbox-midpoints="true"
     inkscape:object-paths="true"
     inkscape:snap-intersection-paths="true"
     inkscape:object-nodes="true"
     inkscape:snap-smooth-nodes="true"
     inkscape:snap-midpoints="true"
     inkscape:snap-object-midpoints="true"
     inkscape:snap-center="true"
     showguides="false"
     inkscape:guide-bbox="true"
     inkscape:snap-global="true"
     inkscape:window-width="1215"
     inkscape:window-height="936"
     inkscape:window-x="65"
     inkscape:window-y="24"
     inkscape:window-maximized="1">
    <inkscape:grid
       type="xygrid"
       id="grid5451"
       empspacing="6" />
    <sodipodi:guide
       orientation="1,0"
       position="6,77"
       id="guide4063" />
    <sodipodi:guide
       orientation="1,0"
       position="3,78"
       id="guide4065" />
    <sodipodi:guide
       orientation="0,1"
       position="55,84"
       id="guide4067" />
    <sodipodi:guide
       orientation="0,1"
       position="53,87"
       id="guide4069" />
    <sodipodi:guide
       orientation="0,1"
       position="20,3"
       id="guide4071" />
    <sodipodi:guide
       orientation="0,1"
       position="20,6"
       id="guide4073" />
    <sodipodi:guide
       orientation="1,0"
       position="87,7"
       id="guide4075" />
    <sodipodi:guide
       orientation="1,0"
       position="84,7"
       id="guide4077" />
    <sodipodi:guide
       orientation="0,1"
       position="58,81"
       id="guide4074" />
    <sodipodi:guide
       orientation="1,0"
       position="9,74"
       id="guide4076" />
    <sodipodi:guide
       orientation="0,1"
       position="21,9"
       id="guide4078" />
    <sodipodi:guide
       orientation="1,0"
       position="81,4"
       id="guide4080" />
  </sodipodi:namedview>
  <metadata
     id="metadata4879">
    <rdf:RDF>
      <cc:Work
         rdf:about="">
        <dc:format>image/svg+xml</dc:format>
        <dc:type
           rdf:resource="http://purl.org/dc/dcmitype/StillImage" />
        <dc:title />
      </cc:Work>
    </rdf:RDF>
  </metadata>
  <g
     inkscape:label="Layer 1"
     inkscape:groupmode="layer"
     id="layer1"
     transform="translate(67.857146,-84.50504)">
    <g
       transform="matrix(0,-1,-1,0,373.50506,516.50504)"
       id="g4845"
       style="display:inline">
      <g
         inkscape:export-ydpi="90"
         inkscape:export-xdpi="90"
         inkscape:export-filename="next01.png"
         transform="matrix(-0.9996045,0,0,1,575.94296,-611.00001)"
         id="g4778"
         inkscape:label="Layer 1">
        <g
           transform="matrix(-1,0,0,1,575.99999,611)"
           id="g4780"
           style="display:inline">
          <rect
             transform="scale(-1,1)"
             y="351.36221"
             x="-432"
             height="90"
             width="90"
             id="rect4120"
             style="color:#000000;fill:none;stroke:none;stroke-width:4;marker:none;visibility:visible;display:inline;overflow:visible;enable-background:accumulate" />
          <path
             sodipodi:nodetypes="cccccccccccccccccc"
             inkscape:connector-curvature="0"
             id="path4122"
             d="m 382.94991,365.19669 c -3.07887,2.13061 -5.74697,4.44959 -8.0274,6.66029 l 0,-0.008 c -3.99967,4.04832 -8.77508,9.49192 -8.77508,9.49192 0,0 4.69091,5.76968 8.76906,9.5265 l 0,-0.008 c 2.27742,2.20795 4.94139,4.52544 8.01536,6.65427 -0.0363,0.0951 -0.0668,0.19244 -0.10377,0.28723 -1.94472,5.12874 -4.53071,9.65753 -7.75811,13.58679 l -21.13197,0 0,-21.25757 0,-0.0271 0,-17.48606 0,-21.28464 21.13197,0 c 3.2274,3.92924 5.81339,8.43624 7.75811,13.52358 0.0434,0.1122 0.0793,0.22731 0.12186,0.33987 z"
             style="font-size:15.00296783px;font-style:normal;font-variant:normal;font-weight:normal;font-stretch:normal;text-align:center;line-height:125%;letter-spacing:0px;word-spacing:0px;writing-mode:lr-tb;text-anchor:middle;fill:#808080;fill-opacity:1;stroke:none;font-family:Ubuntu;-inkscape-font-specification:Ubuntu" />
          <path
             style="font-size:121.62958527px;font-style:normal;font-variant:normal;font-weight:normal;font-stretch:normal;text-align:center;line-height:125%;letter-spacing:0px;word-spacing:0px;writing-mode:lr-tb;text-anchor:middle;fill:#808080;fill-opacity:1;stroke:none;font-family:Ubuntu;-inkscape-font-specification:Ubuntu"
             d="m 419.99538,381.36243 c -4.2e-4,4.75381 -1.99124,9.35043 -5.50399,12.71154 -3.51328,3.36163 -8.31664,5.26477 -13.28361,5.26477 l -0.0151,0 c -1.91234,-0.008 -4.11305,-0.18068 -6.34532,-1.08874 -5.81958,-2.36734 -10.33868,-5.91672 -13.83146,-9.15808 l 0,0.007 c -1.01511,-0.89511 -2.04594,-1.91539 -3.03721,-2.93238 l 0,-9.48741 c 0.99968,-1.02979 2.03673,-2.08206 3.04323,-3.0572 l 0,0.008 c 3.49197,-3.24035 8.008,-6.78859 13.82544,-9.15507 2.23203,-0.90797 4.43243,-1.08164 6.34532,-1.08875 l 0.0151,0 c 4.96783,0 9.77075,1.90505 13.28361,5.26628 3.51231,3.3607 5.50357,7.95622 5.50399,12.71003 l 0,0.001 z"
             id="path4124"
             inkscape:connector-curvature="0" />
          <path
             style="font-size:15.00296783px;font-style:normal;font-variant:normal;font-weight:normal;font-stretch:normal;text-align:center;line-height:125%;letter-spacing:0px;word-spacing:0px;writing-mode:lr-tb;text-anchor:middle;fill:#808080;fill-opacity:1;stroke:none;font-family:Ubuntu;-inkscape-font-specification:Ubuntu"
             d="m 388.25039,430.34074 c -0.0289,0.0758 -0.0527,0.15303 -0.0821,0.22851 -1.54846,4.08363 -3.60849,7.68784 -6.17823,10.81641 l -15.04696,0 0,-16.92578 0,-0.0215 0,-7.07618 8.03442,0 c -0.003,0.003 -0.0918,0.10156 -0.0918,0.10156 0,0 3.73612,4.59271 6.98323,7.58399 l 0,-0.006 c 1.81334,1.75802 3.93385,3.6038 6.38143,5.29882 z"
             id="path4115"
             inkscape:connector-curvature="0"
             sodipodi:nodetypes="cccccccccccc" />
          <path
             inkscape:connector-curvature="0"
             id="path4117"
             d="m 417.76167,417.481 c -3.3e-4,3.7851 -1.60092,7.44505 -4.4251,10.12125 -2.82464,2.67661 -6.68644,4.19195 -10.6798,4.19195 l -0.012,0 c -1.53749,-0.007 -3.30682,-0.14386 -5.10151,-0.86688 -4.67884,-1.88494 -8.31211,-4.71104 -11.12027,-7.2919 l 0,0.006 c -0.81613,-0.71271 -1.64489,-1.52508 -2.44186,-2.33484 l 0,-7.55411 c 0.80374,-0.81995 1.6375,-1.6578 2.44671,-2.43423 l 0,0.007 c 2.80749,-2.58005 6.43827,-5.40525 11.11542,-7.28949 1.7945,-0.72295 3.56358,-0.86123 5.10151,-0.8669 l 0.012,0 c 3.99405,0 7.85552,1.51685 10.6798,4.19315 2.82382,2.67587 4.42477,6.33494 4.4251,10.12005 l 0,8e-4 z"
             style="font-size:121.62958527px;font-style:normal;font-variant:normal;font-weight:normal;font-stretch:normal;text-align:center;line-height:125%;letter-spacing:0px;word-spacing:0px;writing-mode:lr-tb;text-anchor:middle;fill:#808080;fill-opacity:1;stroke:none;font-family:Ubuntu;-inkscape-font-specification:Ubuntu" />
          <path
             style="fill:#0f0f0f;fill-opacity:1;fill-rule:nonzero;stroke:#e38a14;stroke-width:0.40000001000000002;stroke-linecap:round;stroke-linejoin:round;stroke-miterlimit:4;stroke-opacity:1;stroke-dasharray:none"
             id="path3819"
             d="m 14.643133,13.514511 c 0,1.634913 0,3.269826 0,4.904739 0,0.93889 0,1.87778 0,2.81667 0,0.621237 0,1.242475 0,1.863712 0,0.156975 -0.0237,0.31575 0,0.470926 0.01026,0.06717 0.06609,0.11874 0.09913,0.17811 0.248445,0.503532 0.278945,1.022621 0.209875,1.56932 -0.0105,0.0831 -0.117124,0.241292 -0.03372,0.249024 0.08382,0.0078 0.03348,-0.164996 0.05022,-0.247494 0.152911,0.316588 0.06061,0.192319 0.24811,0.392565 0,0 -1.591501,1.195213 -1.591501,1.195213 l 0,0 c -0.392989,-0.56199 -0.242288,-0.292804 -0.480492,-0.790997 -0.06619,-0.272331 -0.157632,-0.53974 -0.198575,-0.816993 -0.0135,-0.09141 0.02491,-0.183106 0.03737,-0.274659 0.0082,-0.03062 0.0078,-0.06503 0.02467,-0.09185 0.0054,-0.0086 0.03043,0.01516 0.03005,0.005 -0.0059,-0.157333 -0.182338,-0.562283 -0.200263,-0.610181 -0.06173,-0.25236 -0.146458,-0.500183 -0.185201,-0.757078 -0.02341,-0.15522 0,-0.313951 0,-0.470926 0,-0.621237 0,-1.242475 0,-1.863712 0,-0.93889 0,-1.87778 0,-2.81667 0,-1.634913 0,-3.269826 0,-4.904739 0,0 1.990329,0 1.990329,0 z"
             inkscape:connector-curvature="0"
             transform="matrix(0,-1,-1.0003957,0,432.00008,441.36222)" />
          <path
             style="fill:#0f0f0f;fill-opacity:1;fill-rule:nonzero;stroke:#e38a14;stroke-width:0.40000001;stroke-linecap:round;stroke-linejoin:round;stroke-miterlimit:4;stroke-opacity:1;stroke-dasharray:none"
             id="path3821"
             d="m 8.8572827,12.406893 c 0.6645514,-0.398611 1.3652993,-0.689026 2.1252473,-0.791328 0.598313,0.04696 1.193345,0.06764 1.793195,0.05329 0.575527,-0.01102 1.151182,-0.0022 1.726767,-0.0017 0.382174,0.06283 1.070984,-0.0862 1.420242,-9.72e-4 0.249416,0.06086 0.486256,0.164946 0.729384,0.24742 0.09477,0.0474 0.185193,0.104734 0.284315,0.142192 0.0064,0.0024 0.873651,-0.118211 0.914423,-0.120985 0.633016,-0.0035 0.361529,-0.0571 1.21328,0.462242 0.05903,0.03599 0.196287,0.194082 0.142166,0.15105 -0.278355,-0.221318 -0.298936,-0.226662 -0.0239,-0.268488 0.635308,-0.11931 0.791314,-0.02601 1.468041,0.18372 0,0 -0.890104,1.780203 -0.890104,1.780203 l 0,0 c 0.657102,-0.115148 -0.333206,0.02032 -0.344577,0.01268 -0.352167,0.036 -0.699703,0.09991 -1.05312,-0.01247 -0.22788,-0.07246 -1.478196,-0.904005 -0.165374,-0.320545 0.06769,0.03008 -0.148149,-0.0013 -0.222224,-0.0019 -0.760248,0.041 -1.521347,0.2265 -2.213375,-0.227627 0.05353,-0.01237 0.213176,-0.02125 0.16058,-0.03712 -0.09058,-0.02733 -0.189231,-7e-5 -0.283847,-7e-5 -0.379283,0 -0.758566,6.71e-4 -1.137849,0.001 -0.559146,-5.53e-4 -1.118358,-0.009 -1.677451,0.0011 -0.566848,0.01343 -1.135662,0.02232 -1.698766,-0.05778 -0.01642,-0.101173 -0.236212,0.07236 -0.50483,0.168295 -0.02535,0.0091 -0.05575,-0.01452 -0.08064,-0.0043 -0.409501,0.168747 -0.7666488,0.452596 -1.1988527,0.572931 0,0 -0.4827256,-1.930903 -0.4827256,-1.930903 z"
             inkscape:connector-curvature="0"
             transform="matrix(0,-1,-1.0003957,0,432.00008,441.36222)" />
          <path
             style="fill:#0f0f0f;fill-opacity:1;fill-rule:nonzero;stroke:#e38a14;stroke-width:0.40000001;stroke-linecap:round;stroke-linejoin:round;stroke-miterlimit:4;stroke-opacity:1;stroke-dasharray:none"
             id="path3823"
             d="m 25.5764,13.962448 c -0.251761,0.536637 -0.317334,1.13563 -0.526011,1.686184 -0.223539,0.58976 -0.386409,0.638294 -0.238133,1.220892 0.147381,0.517609 0.04879,0.809414 -0.108573,1.374463 -0.07093,0.254699 -0.240711,0.488583 -0.186903,0.76176 0.137391,0.537372 0.09649,1.099891 0.07828,1.648443 -0.211521,-0.3256 0.20468,1.20715 -0.003,0.816315 -0.716724,-1.349114 0.393426,-0.03386 -0.179969,-0.584722 0.71045,0.401687 0.918017,0.915557 1.312774,1.56829 0.01765,0.02918 -0.04239,-0.12487 -0.01837,-0.100659 0.09124,0.09196 0.153066,0.209031 0.229599,0.313546 -0.101818,-0.105595 -0.329613,-0.172099 -0.305455,-0.316783 0.02036,-0.121932 0.235682,0.08921 0.330137,0.168956 0.459299,0.387792 0.55915,0.575988 0.877892,1.028878 0.05249,0.07458 -0.09667,-0.154683 -0.145001,-0.232024 1.04364,1.535094 -0.664817,-1.172243 0.701892,0.72229 0.164132,0.227519 0.144946,0.652076 0.456371,0.689725 0.4588,0.498036 0.189928,0.447891 0.780978,0.353543 1.474202,0.498862 0.383505,0.02564 1.02716,0.454907 0.04988,0.03327 -0.189656,-0.139739 -0.132503,-0.121628 0.156999,0.04975 0.291773,0.153408 0.442468,0.219851 0.167647,0.07392 0.151509,0.06159 0.293308,0.04683 0.04079,-0.0078 0.08137,-0.01673 0.122363,-0.02333 0.03234,-0.0052 0.535693,-0.07894 0.512431,-0.06236 -0.147758,0.105275 -0.36774,0.07367 -0.512651,0.182833 -0.123772,0.09324 -0.126921,0.297914 -0.25019,0.391814 -0.04512,0.03437 -0.03406,-0.10821 -0.05109,-0.162315 0,0 1.949131,-0.402861 1.949131,-0.402861 l 0,0 c 0.09265,0.533751 0.236826,0.937886 -0.148271,1.482051 -0.426703,0.602957 -1.251173,0.546573 -1.877161,0.568044 -0.178378,-0.03133 -0.360436,-0.04622 -0.535134,-0.09398 -0.243953,-0.06669 -1.934714,-0.807278 -0.6602,-0.497647 -0.947563,0.06277 -1.546066,-0.100231 -2.231919,-0.763056 -0.012,-0.0116 0.03338,-7.01e-4 0.05007,-0.0011 -0.395695,-0.346243 -0.476237,-0.355016 -0.731657,-0.820401 -0.04016,-0.07317 0.02957,-0.189386 -0.02915,-0.248712 -0.150451,-0.152006 -0.332223,-0.269617 -0.492692,-0.411006 -0.0466,-0.04106 0.100446,0.0731 0.150669,0.10965 -0.149774,-0.150648 -0.299548,-0.301296 -0.449322,-0.451944 0.03268,0.02216 0.123714,0.09648 0.09804,0.06649 -0.831116,-0.970998 -0.278228,-0.139128 -0.144042,-0.263949 0.227363,-0.211494 -2.6073,-0.05058 -0.766295,-0.529716 0.224395,0.07765 -0.0381,-0.0066 -0.340244,-0.444164 -0.03039,-0.04401 -0.01816,-0.108276 -0.04671,-0.153508 -0.08322,-0.131872 -0.656203,-0.666858 -0.09469,-0.377759 -0.198975,-0.101759 -0.405303,-0.190272 -0.596927,-0.305279 -0.05554,-0.03333 -0.105468,-0.08054 -0.138628,-0.136179 -0.511699,-0.858662 -0.47567,-0.892901 -0.443294,-1.745026 0.01819,-0.547726 0.02597,-1.084986 -0.07888,-1.626936 0.03309,-0.515425 0.0015,-0.489697 0.153376,-0.986938 0.04265,-0.139628 0.06946,-0.29062 0.152859,-0.410454 0.02076,-0.02982 0.06239,0.08815 0.08881,0.0632 0.10576,-0.09989 -0.275534,-0.390665 -0.07299,-0.430277 -0.09187,-0.664429 -0.0752,-1.204004 0.144834,-1.852611 0.03284,-0.09681 0.11469,-0.171529 0.150157,-0.267406 0.175312,-0.473914 0.251068,-0.981488 0.469153,-1.441475 0,0 1.963248,0.327208 1.963248,0.327208 z"
             inkscape:connector-curvature="0"
             transform="matrix(0,-1,-1.0003957,0,432.00008,441.36222)" />
          <path
             style="fill:#0f0f0f;fill-opacity:1;fill-rule:nonzero;stroke:#e38a14;stroke-width:0.40000001;stroke-linecap:round;stroke-linejoin:round;stroke-miterlimit:4;stroke-opacity:1;stroke-dasharray:none"
             id="path3825"
             d="m 25.874273,19.058998 c 0.815415,0.04529 1.660936,-0.155777 2.431007,0.213344 0.179901,0.08623 0.314132,0.24621 0.476259,0.362466 0.0189,0.01355 -0.02446,-0.04244 -0.04504,-0.05326 -0.120956,-0.06357 -0.24954,-0.111425 -0.37431,-0.167138 0.599703,-0.120688 1.21515,-0.09015 1.822493,-0.07057 0,0 -0.06417,1.989294 -0.06417,1.989294 l 0,0 c -0.588676,-0.01899 -1.174714,-0.03078 -1.758322,0.0716 -0.140498,-0.03218 -0.831186,-0.08539 -0.98802,-0.36256 -0.03402,-0.06012 0.122894,0.07574 0.191926,0.07813 0.02412,8.36e-4 0.03819,-0.06854 0.01418,-0.07099 -0.565735,-0.05765 -1.141432,0.08071 -1.705996,0 0,0 0,-1.990329 0,-1.990329 z"
             inkscape:connector-curvature="0"
             transform="matrix(0,-1,-1.0003957,0,432.00008,441.36222)" />
          <path
             style="fill:#0f0f0f;fill-opacity:1;fill-rule:nonzero;stroke:#e38a14;stroke-width:0.40000001;stroke-linecap:round;stroke-linejoin:round;stroke-miterlimit:4;stroke-opacity:1;stroke-dasharray:none"
             id="path3827"
             d="m 26.300772,13.372345 c 1.121422,0 1.123109,-0.05365 2.212734,0.153738 0.21031,0.04003 0.431654,0.06647 0.619653,0.168884 0.250345,0.13638 0.437822,0.365969 0.668822,0.533036 0.01317,0.0095 -0.01388,-0.05584 7.61e-4,-0.04877 0.09619,0.04639 0.177707,0.118472 0.266561,0.177708 0.366554,-0.12498 0.794489,-0.143822 1.193592,-0.153682 0.296342,0.158531 0.592684,0.317062 0.889026,0.475593 0.04598,0.04996 0.190013,0.19344 0.13794,0.149871 -0.452698,-0.37877 -0.07395,-0.26776 0.290964,-0.311438 0.471501,-0.03235 0.237149,-0.02363 0.703034,-0.02677 0,0 0.0019,1.990328 0.0019,1.990328 l 0,0 c -0.303579,-0.0024 -0.147414,-0.0061 -0.468451,0.01266 -0.443729,0.05311 -0.94545,0.165426 -1.384712,0.02239 -0.220507,-0.0718 -0.413775,-0.211626 -0.607315,-0.339381 -0.05923,-0.0391 -0.215097,-0.159215 -0.144172,-0.156675 0.212409,0.0076 0.409053,0.11566 0.61358,0.17349 -0.797738,3.49e-4 -1.585699,0.293777 -2.329468,-0.180339 -0.140231,-0.09349 -0.648595,-0.422661 -0.6923,-0.510812 -0.04901,-0.09886 0.422626,0.122209 0.313406,0.106536 -0.129625,-0.0186 -0.247466,-0.08801 -0.375512,-0.115448 -0.904303,-0.193767 -0.863097,-0.130595 -1.91009,-0.130595 0,0 0,-1.990328 0,-1.990328 z"
             inkscape:connector-curvature="0"
             transform="matrix(0,-1,-1.0003957,0,432.00008,441.36222)" />
          <path
             style="fill:#0f0f0f;fill-opacity:1;fill-rule:nonzero;stroke:#e38a14;stroke-width:0.40000001;stroke-linecap:round;stroke-linejoin:round;stroke-miterlimit:4;stroke-opacity:1;stroke-dasharray:none"
             id="path3829"
             d="m 41.654737,15.078341 c -0.870769,0 -1.741538,0 -2.612307,0 -0.50852,0.0699 -1.103248,-0.09071 -1.603814,0 -0.07688,0.01393 0.223172,-0.06262 0.233934,0.01477 0.01146,0.08241 -0.142679,0.08563 -0.214018,0.128449 -0.16504,0.05839 -0.32506,0.133606 -0.495118,0.175166 -0.112081,0.02739 0.234875,-0.05428 0.319843,-0.132331 0.118381,-0.108752 0.148154,-0.292021 0.26372,-0.403761 0.02766,-0.02674 0.04724,0.06878 0.04317,0.107035 -0.02688,0.252403 -0.06259,0.506074 -0.134386,0.74954 -0.03507,0.118915 -0.121497,0.216149 -0.182245,0.324224 1.32912,-0.03409 -1.131263,0.996291 -0.262895,0.420171 0.09135,-0.06061 0.05141,0.213575 0.06552,0.322292 -0.468095,1.476851 -0.01562,0.402362 -0.474527,1.09291 -0.02679,0.04032 0.06759,-0.06957 0.104822,-0.100509 0.122135,-0.101476 0.08808,0.306831 0.104465,0.464773 0.0074,0.114558 0.09386,0.43337 0.02221,0.343673 -0.107833,-0.135005 -0.140472,-0.324889 -0.145165,-0.497608 -0.0017,-0.06376 0.102793,0.08042 0.13532,0.13528 0.839176,1.415448 0.189393,0.526774 0.200509,0.34271 0.0028,-0.04707 0.08168,0.04714 0.12252,0.0707 0.25181,-0.101244 0.02905,-0.03117 0.572087,0.310889 0.01871,0.01179 0.07911,0.03829 0.06148,0.02493 -0.474993,-0.359903 0.16904,0.169724 0.530027,0.250289 0.151536,0.190229 0.290076,0.391579 0.454606,0.570687 0.03953,0.04303 -0.03658,-0.114681 -0.07564,-0.158139 -0.06601,-0.07344 -0.327351,-0.209946 -0.232028,-0.184172 0.335218,0.09064 0.740635,0.371554 1.02876,0.570204 0.347569,0.286406 0.590256,0.495353 0.931235,0.793926 0.02599,0.02276 -0.09135,-0.09852 -0.05969,-0.08472 0.311384,0.135759 0.144477,0.215854 0.27794,0.138836 0.670195,0.346366 1.315789,0.579148 1.945733,0.900146 0.02456,0.01613 0.09707,0.0662 0.07369,0.0484 -0.527309,-0.401319 0.398533,0.15389 0.49255,0.260698 0.426665,0.484709 0.553174,0.763678 0.367473,0.392752 0.110079,0.14711 0.220158,0.294221 0.330237,0.441331 -0.04378,-0.06818 -0.191728,-0.258593 -0.131354,-0.204547 0.140615,0.125876 0.241368,0.291023 0.375858,0.423423 0.04764,0.0469 -0.161724,-0.211704 -0.113629,-0.165268 0.144644,0.139653 0.312136,0.268578 0.405215,0.446794 0.113311,0.216954 0.13167,0.471482 0.197506,0.707223 -0.159826,-0.459082 0.08636,1.132677 -0.07434,0.88432 -0.08639,-0.133517 -0.07882,-0.615288 -1.38e-4,-0.477087 0.351424,0.617253 0.255448,0.404134 0.345203,1.107152 -0.0693,0.698845 -0.09339,1.397925 -0.06864,2.09926 0.08492,0.807725 -0.349006,1.592779 -1.139323,1.853649 -0.197684,0.06525 -0.413806,0.04596 -0.620709,0.06895 0.852445,-0.341272 0.09894,0.11116 0.132732,0.07353 0.08921,-0.09935 0.336487,-0.38185 0.312606,-0.250477 -0.07785,0.428258 -0.827894,0.68585 -1.105046,0.748937 -0.187082,0.04258 -0.383641,-0.0085 -0.575461,-0.01272 -0.131018,-0.01835 -0.489111,0.03592 -0.393053,-0.05505 0.11581,-0.109674 0.318368,-0.02851 0.477835,-0.02524 0.01325,2.72e-4 -0.0079,0.02826 -0.01952,0.03465 -0.164544,0.09046 -0.323677,0.198411 -0.503389,0.252833 -0.383639,0.116178 -0.64169,0.07036 -1.018192,0.04521 -0.543677,-0.08165 -1.092439,-0.04157 -1.639076,-0.03194 -0.581169,0.0018 -0.323094,0.04654 -1.148361,-0.434421 -0.05873,-0.03423 -0.150507,-0.211884 -0.144201,-0.144201 0.0077,0.08267 0.177851,0.121366 0.149339,0.199342 -0.02636,0.07208 -0.153024,0.01221 -0.229414,0.01965 -0.09971,0.0097 -0.199239,0.02118 -0.298858,0.03177 -0.857583,-0.18076 -0.499066,-0.05208 -1.097256,-0.319168 0,0 0.840784,-1.80402 0.840784,-1.80402 l 0,0 c 0.190615,0.09755 0.208749,0.04759 0.07398,0.141243 0.294984,-0.02456 0.830121,-0.08771 1.106191,-0.02012 0.300666,0.07361 0.584067,0.208885 0.862601,0.343931 0.06118,0.02966 0.212215,0.144784 0.144228,0.144228 -0.193849,-0.0016 -0.389471,-0.06026 -0.562512,-0.147648 -0.08002,-0.04041 0.179301,-4.05e-4 0.268951,-6.08e-4 0.614937,-0.0105 1.232289,-0.04963 1.844034,0.03895 0.06057,0.008 0.127143,-0.0034 0.181706,0.02405 0.02477,0.01248 -0.202066,0.199664 -0.124018,0.148186 0.4438,-0.292718 0.768757,-0.592335 1.39375,-0.425055 0.146358,0.122717 0.01793,-0.01104 -0.232561,0.266703 -0.03626,0.0402 -0.09722,0.190975 -0.06142,0.150356 0.713094,-0.80924 0.319469,-0.640828 1.331327,-0.982968 -0.06735,0.07778 -0.28233,0.299319 -0.20928,0.226869 0.05683,-0.05637 0.161385,-0.254463 0.164981,-0.174497 0.0087,0.193579 -0.06488,0.38703 -0.14754,0.562289 -0.03533,0.0749 3.8e-4,-0.165637 -4.8e-4,-0.24845 -7.93e-4,-0.07633 -0.003,-0.152636 -0.0045,-0.228955 -0.02433,-0.696987 -0.02486,-1.397799 0.06898,-2.090279 0.05912,0.04537 0.210011,0.209504 0.166979,0.148661 -0.06745,-0.09537 -0.179124,-0.160624 -0.226537,-0.267386 -0.229429,-0.516608 -0.345228,-0.777174 -0.200061,-1.250266 0.0465,0.06513 0.08218,0.139541 0.139492,0.195392 0.04914,0.04789 0.223558,0.157501 0.173964,0.110074 -1.41458,-1.352767 0.673072,0.729855 -0.782661,-0.724286 -0.0339,-0.03386 0.07861,0.05481 0.117912,0.08222 -0.130577,-0.13555 -0.286208,-0.2508 -0.391731,-0.406648 -0.05119,-0.07561 0.299324,0.209288 0.223575,0.158296 -0.110163,-0.07416 -0.348287,-0.09676 -0.326836,-0.227809 0.0196,-0.119739 0.459303,0.156709 0.345248,0.115321 -0.708273,-0.257016 -0.416473,-0.07385 -0.800565,-0.354831 0.133728,0.03849 0.539535,0.100534 0.401182,0.115473 -0.431944,0.04664 -0.752921,-0.215175 -1.106212,-0.381358 -0.794146,-0.373556 -0.173903,-0.0128 -0.610958,-0.27644 -0.423333,-0.177582 -0.725291,-0.307664 -1.062798,-0.622448 -0.01899,-0.01771 0.09789,0.02736 0.07699,0.01193 -0.778357,-0.574829 -0.245934,-0.07748 -0.687775,-0.512337 -0.118975,-0.105603 -0.317453,-0.120546 -0.404038,-0.254 -0.04071,-0.06274 0.288984,0.0711 0.22063,0.04076 -0.58611,-0.260218 -0.803607,-0.131904 -1.125262,-0.697871 -0.0538,-0.09466 0.173144,0.132057 0.259716,0.198086 -0.09692,-0.06503 -0.387141,-0.129237 -0.290774,-0.195091 0.114881,-0.07851 0.536234,0.146973 0.399588,0.120731 -0.290652,-0.05582 -0.680895,-0.122819 -0.91308,-0.353101 -0.02753,-0.0273 0.150493,0.02871 0.115723,0.01157 -0.188359,-0.09286 -0.387952,-0.160936 -0.581928,-0.241404 -0.124611,-0.09451 -0.268492,-0.167933 -0.373835,-0.283533 -0.776202,-0.851777 -0.394321,-0.622279 -0.200167,-0.342368 0.03628,0.05231 -0.101606,-0.08087 -0.135069,-0.13503 -0.470787,-0.761968 -0.418508,-0.517311 -0.449895,-1.049139 -0.04555,-0.441735 -0.126685,-0.905842 0.0027,-1.34396 0.05465,-0.185014 0.16356,-0.349705 0.255631,-0.519233 0.0112,-0.02062 0.05151,-0.07081 0.05209,-0.04736 0.0041,0.163662 -0.02743,0.326273 -0.04114,0.489409 -0.06747,-0.578661 -0.102207,-1.028514 0.177187,-1.576785 0.065,-0.127545 0.133384,-0.329806 0.27653,-0.328574 0.120614,0.001 -0.170691,0.448357 -0.14919,0.32967 0.02832,-0.156323 0.113414,-0.296804 0.17012,-0.445206 0.08264,-0.07387 0.09013,0.433541 0.05822,0.327391 -0.14496,-0.482236 -0.08483,-0.996053 0.203595,-1.434056 0.132207,-0.200772 0.386103,-0.287158 0.588627,-0.416664 0.0098,-0.0063 0.0076,0.022 0.01135,0.033 0.384016,-0.229048 0.43249,-0.280109 1.001752,-0.425447 0.101876,-0.02601 0.210288,0 0.315432,0 0.42946,0 0.858921,0 1.288382,0 0.870769,0 1.741538,0 2.612307,0 0,0 0,1.990329 0,1.990329 z"
             inkscape:connector-curvature="0"
             transform="matrix(0,-1,-1.0003957,0,432.00008,441.36222)" />
          <path
             style="fill:#0f0f0f;fill-opacity:1;fill-rule:nonzero;stroke:#e38a14;stroke-width:0.40000001;stroke-linecap:round;stroke-linejoin:round;stroke-miterlimit:4;stroke-opacity:1;stroke-dasharray:none"
             id="path3831"
             d="m 53.312376,16.357838 c 0.171834,1.148768 0.189886,2.322541 0.351978,3.471514 0.235592,1.669964 0.0136,-0.925637 0.238689,1.198537 0.03035,0.286388 0.03197,0.575095 0.04796,0.862642 -0.0031,1.102081 -0.107273,2.199633 -0.07482,3.301656 0.01688,0.561545 0.0048,1.123402 0.0037,1.685086 0.0011,0.568864 0.0015,1.137727 0.0012,1.706593 -3.5e-5,0.09481 -7e-5,0.189612 -1.04e-4,0.284418 0,0 -1.990329,-7.28e-4 -1.990329,-7.28e-4 l 0,0 c 3.5e-5,-0.09489 7e-5,-0.189776 1.04e-4,-0.284663 2.79e-4,-0.56981 -8.9e-5,-1.139617 -0.0012,-1.709426 0.001,-0.541191 0.01276,-1.082552 -0.0029,-1.623613 -0.03113,-1.089799 0.055,-2.175268 0.07623,-3.264652 -0.02516,-0.68541 0.006,-0.557733 -0.119595,-1.217576 -0.04922,-0.258647 -0.124797,-0.5124 -0.162426,-0.772986 -0.03947,-0.273356 -0.04093,-0.550925 -0.06843,-0.825744 -0.04309,-0.430619 -0.09554,-0.860248 -0.143314,-1.290372 -0.04903,-0.506896 -0.09807,-1.013791 -0.147106,-1.520686 0,0 1.990329,0 1.990329,0 z"
             inkscape:connector-curvature="0"
             transform="matrix(0,-1,-1.0003957,0,432.00008,441.36222)" />
          <path
             style="fill:#0f0f0f;fill-opacity:1;fill-rule:nonzero;stroke:#e38a14;stroke-width:0.40000001;stroke-linecap:round;stroke-linejoin:round;stroke-miterlimit:4;stroke-opacity:1;stroke-dasharray:none"
             id="path3833"
             d="m 46.914891,15.078341 c 1.113636,0 2.227273,0 3.340909,0 0.38091,0.07522 1.132378,-0.0906 1.488304,0 0.250147,0.06367 0.487915,0.168671 0.731872,0.253007 0.0908,0.045 0.177249,0.100161 0.272414,0.13501 0.02449,0.009 0.874085,-0.115727 0.929155,-0.119495 0.404877,-0.01066 0.809133,0.0174 1.213908,0.02037 0.08972,6.6e-4 0.349029,-0.04098 0.269155,-1.21e-4 -0.174069,0.08905 -0.37765,0.10148 -0.566475,0.152219 0.629499,-0.721204 1.530931,-0.46554 2.349498,-0.421175 -0.20693,0.04916 -0.413859,0.09832 -0.620789,0.147486 0,0 1.407268,1.407482 1.407268,1.407482 l 0,0 c -0.301722,0.14394 -0.603443,0.287879 -0.905165,0.431819 -0.367045,-0.02336 -0.322364,-0.01473 -0.674275,-0.05865 -0.283794,-0.03542 -0.234887,-0.06371 0.0036,-0.254665 0.05287,-0.04234 -0.09504,0.09655 -0.142558,0.14482 -0.283695,0.146998 -0.552698,0.326731 -0.851085,0.440995 -0.222069,0.08504 -1.062126,-0.07213 -1.358181,-0.02417 -0.76985,0.04178 -1.538507,0.22601 -2.239301,-0.233275 0.06033,-0.01044 0.238092,-0.0093 0.180978,-0.03133 -0.233779,-0.09025 -1.205831,0.07334 -1.488304,0 -1.113636,0 -2.227273,0 -3.340909,0 0,0 0,-1.990328 0,-1.990328 z"
             inkscape:connector-curvature="0"
             transform="matrix(0,-1,-1.0003957,0,432.00008,441.36222)" />
          <path
             style="fill:#0f0f0f;fill-opacity:1;fill-rule:nonzero;stroke:#e38a14;stroke-width:0.40000001;stroke-linecap:round;stroke-linejoin:round;stroke-miterlimit:4;stroke-opacity:1;stroke-dasharray:none"
             id="path3835"
             d="m 62.411022,16.784337 c 0,1.522364 0,3.044729 0,4.567093 0,0.926303 0,1.852605 0,2.778908 0.0085,0.789543 0.06002,1.239219 -0.208969,2.016144 -0.20756,0.599492 -0.148131,0.183406 -0.181489,0.466686 0.01168,0.04399 0.02837,0.08695 0.03504,0.131975 0.01565,0.10559 0.02106,0.212445 0.03174,0.318651 0.01132,0.112483 0.106441,0.424436 0.03427,0.337416 -0.969253,-1.168733 0.512915,-0.0014 -0.288875,-0.571954 0.193622,-0.346042 0.717878,0.232901 0.967207,0.339131 0.0083,0.0035 -0.119023,-0.06853 -0.0013,-0.09124 0.07049,-0.0136 0.142762,-0.01525 0.214142,-0.02288 0.618608,-0.187591 1.142834,0.185469 1.727474,0.299964 0.243488,0.04768 0.643811,0.02736 0.871986,0.0248 1.00935,-0.04186 2.01901,-0.128345 3.029384,-0.07335 -1.106798,0.592977 -0.875302,0.151026 -1.024778,1.090881 0,0 1.698707,-1.03721 1.698707,-1.03721 l 0,0 c 0.344435,1.581628 0.570057,0.92378 -0.783641,1.933632 -0.977647,-0.0549 -1.954621,0.04896 -2.931571,0.07634 -0.660711,-0.01143 -0.878122,0.02241 -1.525128,-0.13916 -0.182762,-0.04564 -0.353449,-0.130432 -0.530174,-0.195649 0.07009,-0.01277 0.272781,-0.0041 0.21028,-0.03832 -0.168716,-0.09232 -0.41354,0.140551 -0.57549,0.04138 -0.324568,0.0235 -0.605122,0.0632 -0.933541,-0.0066 -0.179161,-0.03809 -0.348777,-0.113523 -0.517419,-0.185005 -0.05775,-0.02448 -0.219147,-0.08559 -0.158467,-0.101484 0.130509,-0.03418 0.532627,9.8e-5 0.402991,0.03745 -0.169811,0.04893 -0.353438,-5.39e-4 -0.530157,-8.09e-4 -0.211625,-0.08083 -0.431022,-0.143689 -0.634874,-0.242497 -0.07495,-0.03633 -0.144661,-0.0909 -0.192969,-0.158758 -0.176124,-0.247386 -0.350006,-0.500806 -0.473968,-0.77803 -0.125077,-0.279717 -0.04685,-1.238839 -0.04111,-1.512164 0.04349,-0.140691 0.07922,-0.284018 0.130463,-0.422074 0.03064,-0.08255 0.06098,-0.16814 0.114547,-0.23802 0.01541,-0.0201 0.07094,0.01522 0.07536,-0.0097 0.07387,-0.416711 -0.06628,-0.871443 0,-1.289493 0,-0.926303 0,-1.852605 0,-2.778908 0,-1.522364 0,-3.044729 0,-4.567093 0,0 1.990329,0 1.990329,0 z"
             inkscape:connector-curvature="0"
             transform="matrix(0,-1,-1.0003957,0,432.00008,441.36222)" />
          <path
             style="fill:#0f0f0f;fill-opacity:1;fill-rule:nonzero;stroke:#e38a14;stroke-width:0.40000001;stroke-linecap:round;stroke-linejoin:round;stroke-miterlimit:4;stroke-opacity:1;stroke-dasharray:none"
             id="path3837"
             d="m 63.406186,21.33366 c 1.137331,0 2.274661,0 3.411992,0 0.269524,0 0.539047,0 0.808571,0 0,0 0,1.990328 0,1.990328 l 0,0 c -0.269524,0 -0.539047,0 -0.808571,0 -1.137331,0 -2.274661,0 -3.411992,0 0,0 0,-1.990328 0,-1.990328 z"
             inkscape:connector-curvature="0"
             transform="matrix(0,-1,-1.0003957,0,432.00008,441.36222)" />
          <path
             style="fill:#0f0f0f;fill-opacity:1;fill-rule:nonzero;stroke:#e38a14;stroke-width:0.40000001;stroke-linecap:round;stroke-linejoin:round;stroke-miterlimit:4;stroke-opacity:1;stroke-dasharray:none"
             id="path3839"
             d="m 62.837521,15.362673 c 1.003158,-0.0997 1.973691,0.09368 2.942523,0.314046 0.103073,0.02023 0.206147,0.04046 0.309221,0.0607 0.05342,-0.0064 0.107242,-0.02855 0.160248,-0.01933 0.214728,0.03738 0.423048,0.105129 0.634573,0.157694 0.509107,0.223495 1.079984,0.07349 1.618882,0.0436 0,0 0.10461,1.987578 0.10461,1.987578 l 0,0 c -0.787129,0.03834 -1.601314,0.189272 -2.35289,-0.14299 -0.02259,-0.242525 0.0172,-0.01423 -0.555759,-0.07488 -0.338613,-0.03584 -0.530422,-0.138613 -0.869651,-0.203926 -0.987446,-0.190117 -0.884092,-0.132165 -1.991757,-0.132165 0,0 0,-1.990329 0,-1.990329 z"
             inkscape:connector-curvature="0"
             transform="matrix(0,-1,-1.0003957,0,432.00008,441.36222)" />
          <path
             style="fill:#0f0f0f;fill-opacity:1;fill-rule:nonzero;stroke:#e38a14;stroke-width:0.40000001;stroke-linecap:round;stroke-linejoin:round;stroke-miterlimit:4;stroke-opacity:1;stroke-dasharray:none"
             id="path3841"
             d="m 73.916493,18.633928 c 0.10364,1.241892 0.298038,2.476206 0.498854,3.705538 0.143587,0.87899 0.209268,0.773226 0.283937,1.667519 0.02429,0.290945 0.01775,0.583644 0.02663,0.875467 0.03353,0.284348 0.07206,0.568149 0.100577,0.853044 0.07371,0.736497 0.128424,1.399189 0.147377,2.135352 0.0061,0.238434 -0.02238,0.477777 -0.0034,0.715531 0.0016,0.02015 0.05944,0.02074 0.06064,5.64e-4 0.0033,-0.05544 -0.03418,-0.10569 -0.05127,-0.158535 0.216949,0.340715 0.268447,0.425898 0.463996,0.828386 0,0 -1.837449,0.764979 -1.837449,0.764979 l 0,0 c 0.03451,-0.173758 -0.38236,-0.561252 -0.169089,-0.3356 -0.09558,-0.149104 -0.219451,-0.283481 -0.286728,-0.447311 -0.24563,-0.598155 -0.150362,-0.670597 -0.164859,-1.274234 -0.0244,-1.015966 -0.134082,-2.027109 -0.249627,-3.035902 -0.01148,-0.840631 -0.157718,-1.496959 -0.293643,-2.326211 -0.200446,-1.222882 -0.394423,-2.45144 -0.49631,-3.687112 0,0 1.970325,-0.281475 1.970325,-0.281475 z"
             inkscape:connector-curvature="0"
             transform="matrix(0,-1,-1.0003957,0,432.00008,441.36222)" />
          <path
             style="fill:#0f0f0f;fill-opacity:1;fill-rule:nonzero;stroke:#e38a14;stroke-width:0.40000001;stroke-linecap:round;stroke-linejoin:round;stroke-miterlimit:4;stroke-opacity:1;stroke-dasharray:none"
             id="path3843"
             d="m 72.628446,16.178567 c 0.954421,-0.470521 1.994222,-0.826262 3.075128,-0.74481 0.508585,0.03832 0.689452,0.21557 1.138956,0.308531 -0.03016,-0.01399 -0.111721,-0.01639 -0.09048,-0.04197 0.03073,-0.037 0.09495,-0.01578 0.142773,-0.02099 0.473877,-0.05162 0.63392,-0.07877 1.171798,0.300576 0.194835,0.137411 0.267127,0.396253 0.422189,0.577357 0.0555,0.06483 0.13619,0.102884 0.204285,0.154326 0.356357,0.530309 0.86716,0.969335 1.164907,1.540525 0.148949,0.285737 0.237873,0.599221 0.371112,0.892614 0.331743,0.766233 0.06687,1.545597 0.07576,2.32828 -0.04333,0.365737 0.110305,0.780747 0.02387,1.141003 -0.125835,0.524497 -0.199442,0.634955 -0.397626,1.023507 -1.422863,1.77899 -0.277013,0.0916 -0.296275,0.202351 -0.0893,0.513462 -0.494713,0.796683 -0.840629,1.118556 -0.241522,0.05287 -0.486648,0.09135 -0.724566,0.158596 -0.24522,0.06931 0.36146,-0.05497 0.335733,-0.02644 -0.529924,0.587585 -1.221181,0.617984 -1.956386,0.599584 -0.603408,0.337215 -1.329891,0.231712 -1.989033,0.194576 -0.95949,-0.04466 -1.628129,0.245485 -0.222666,-1.992409 0.134636,-0.214378 0.490832,0.124593 0.733911,0.195282 0.147947,0.04302 0.305977,0.06738 0.43866,0.145705 0.221321,0.130646 0.40604,0.315176 0.60906,0.472765 0.310642,0.342851 0.09987,0.07364 0.412264,0.848119 0.05957,0.147684 -0.141003,-0.289434 -0.172357,-0.445562 -0.0066,-0.03267 0.05818,0.03612 0.09113,0.0411 0.02528,0.0038 0.05,-0.01066 0.075,-0.01599 0.174729,0.114673 0.349457,0.229347 0.524185,0.344021 0.318251,0.156035 -0.0727,-0.0501 0.535969,0.626179 0.05138,0.05709 -0.158563,-0.261991 -0.110065,-0.202433 0.116641,0.143243 0.203289,0.308896 0.31596,0.455283 0.05855,0.07608 -0.08897,-0.172542 -0.153233,-0.243861 -0.05284,-0.05864 -0.127831,-0.09265 -0.191747,-0.138981 0.20186,0.08687 0.425129,0.135188 0.605578,0.260616 0.523781,0.364071 0.447121,0.570073 0.712546,1.118725 0.01162,0.02403 -0.01066,-0.100807 0.0059,-0.07986 0.07117,0.09018 0.273455,0.347196 0.168414,0.300684 -0.13511,-0.05983 -0.183226,-0.231873 -0.274838,-0.347809 0.713573,0.615574 0.223118,0.07402 0.695237,1.111722 0.03692,0.08115 -0.0031,-0.188558 -0.05364,-0.262016 -0.09575,-0.139243 -0.486685,-0.230398 -0.367024,-0.349722 0.145165,-0.144756 0.36465,0.196247 0.563324,0.246804 0.188878,0.18189 0.377757,0.36378 0.566636,0.54567 0.04179,-0.09668 -0.376488,-0.300458 -0.261106,-0.259021 0.204793,0.07355 0.384038,0.204799 0.578251,0.302935 0.01866,0.0094 0.06394,0.03987 0.05966,0.0194 -0.0066,-0.03165 -0.04648,-0.04497 -0.06971,-0.06745 0.965533,0.517219 0.445344,0.164764 1.154647,0.963234 0.04078,0.04591 -0.03874,-0.120723 -0.08058,-0.165669 -0.0731,-0.07852 -0.170441,-0.130338 -0.255661,-0.195507 0,0 -0.306106,1.966649 -0.306106,1.966649 l 0,0 c -0.57615,-0.209698 -0.826397,-0.167094 -1.13147,-0.702709 -0.05236,-0.09192 0.354104,0.176543 0.250023,0.195467 -0.03693,0.0067 -0.738015,-0.495135 0.06004,-0.09529 -0.03768,-0.0097 -0.789861,-0.15003 -0.872608,-0.324048 -0.03739,-0.07864 0.333402,0.09654 0.254097,0.06059 -0.227909,-0.103318 -0.486363,-0.138323 -0.702758,-0.263982 -0.138934,-0.08068 -0.341435,-0.180916 -0.34005,-0.341569 0.0011,-0.132295 0.227498,0.13512 0.341247,0.202681 -0.111739,-0.04969 -0.223478,-0.09939 -0.335216,-0.149081 0.04039,0.0031 0.155861,0.03027 0.121177,0.0093 -0.733244,-0.44259 -0.92869,-0.238391 -1.142306,-1.04706 -0.04671,-0.176841 0.280331,0.538891 0.392693,0.383253 -0.03299,-0.02783 -1.65084,-1.294647 -0.545274,-1.057648 -0.239557,-0.06487 -0.50138,-0.07468 -0.71867,-0.194595 -0.170019,-0.09383 -0.661443,-0.644528 -0.726067,-0.790149 -0.0509,-0.114706 0.30085,0.115939 0.289315,0.240901 -0.01075,0.116505 -0.195885,-0.128003 -0.293828,-0.192004 0.346882,0.01758 -0.02221,0.01098 -0.46171,-0.225 -0.629709,-0.338106 -0.998212,-1.522647 -0.543763,-0.597201 0.02464,0.05018 -0.0749,-0.08303 -0.112346,-0.124547 0.656292,0.158984 -0.364734,-0.05718 -0.396122,-0.189049 -0.534695,-2.246411 -0.836566,-2.020007 0.398051,-1.984084 0.215782,0.01217 0.579818,0.073 0.800158,0.0593 0.156146,-0.0097 0.449203,-0.129586 0.545687,-0.150415 0.213974,-0.04619 0.432373,-0.06877 0.64856,-0.103149 0.531756,0.08152 0.11949,-0.06318 0.210143,0.167758 0.0092,0.02341 0.05395,-0.004 0.07246,-0.02106 0.166475,-0.153223 0.287145,-0.359329 0.476079,-0.483808 0.183383,-0.120823 0.402556,-0.181099 0.615371,-0.235297 0.06862,-0.01748 -0.115596,0.08183 -0.173393,0.122738 -0.06667,0.100891 -0.132303,0.402865 -0.200017,0.302671 -0.07029,-0.104005 0.0643,-0.285223 0.18161,-0.329906 0.09362,-0.03566 -0.123375,0.379509 -0.07772,0.290333 0.02922,-0.05708 0.277916,-0.976399 0.615454,-1.02496 0.09017,-0.01297 -0.08549,0.16089 -0.128231,0.241336 0.04738,-0.09287 0.05468,-0.221869 0.14214,-0.278614 0.04645,-0.03013 0.02056,0.21416 0.03813,0.161657 0.09115,-0.272369 -0.07828,-0.855427 -0.02385,-1.152834 0.007,-0.509308 0.116566,-1.006627 0.09395,-1.514307 -0.06051,-0.139523 -0.130206,-0.275413 -0.181537,-0.418569 -0.02228,-0.06215 -0.01106,-0.134164 -0.03823,-0.194336 -0.207774,-0.460188 -0.651093,-0.775841 -0.898726,-1.212838 -0.436666,-0.474573 -0.794512,-0.608075 -0.430888,-0.561141 0.175151,0.02261 0.360392,0.0072 0.525015,0.07113 0.08651,0.0336 -0.184868,0.01669 -0.277298,0.02508 -0.516054,0.04686 -0.235385,0.04273 -0.836246,-0.0097 -0.129493,-0.0419 -0.421239,-0.201173 -0.56704,-0.224592 -0.770104,-0.123695 -1.51093,0.216696 -2.185026,0.534687 0,0 -0.890102,-1.780205 -0.890102,-1.780205 z"
             inkscape:connector-curvature="0"
             transform="matrix(0,-1,-1.0003957,0,432.00008,441.36222)" />
        </g>
      </g>
    </g>
  </g>
</svg>
